<svg xmlns="http://www.w3.org/2000/svg" viewBox="0 0 1200 500"><defs><filter id="blur" width="250%" height="250%"><feGaussianBlur in="Source" stdDeviation="20"/></filter></defs><style>.st3{fill:none;stroke:#000;stroke-width:4;stroke-miterlimit:10}</style><path filter="url(#blur)" fill="#999999" d="M947.1 433.1H259.8c-7.8 0-84.2 6.4-84.2 14.2s76.4 14.2 84.2 14.2h687.3c7.8 0 84.2-6.4 84.2-14.2s-76.4-14.2-84.2-14.2z"/><path fill="#f9daea" stroke="#000" stroke-miterlimit="10" stroke-width="5" d="M991.6 28h-2 0-400v416h400c215.8 0 220.8-416 2-416z"/><path fill="#f2f2f2" stroke="#000" stroke-miterlimit="10" stroke-width="5" d="M204 21C-22 37.5.5 449.7 204 452h394V21H204z"/><path d="M401 241h82v-46h35" class="st3"/><path d="M519 244v-98l59 83 20-97h81v107l146-59v168H685v-38H476l-17 3v-72" class="st3"/><ellipse cx="369.3" cy="242.3" rx="39.2" ry="37.7"/><ellipse cx="520" cy="147" rx="18.2" ry="18"/><ellipse cx="599.4" cy="128" rx="39.1" ry="37"/><ellipse cx="520" cy="258.7" rx="18.2" ry="17.7"/><ellipse cx="578.1" cy="227.9" rx="11.3" ry="11.2"/><ellipse cx="595.2" cy="310.3" rx="21" ry="20.2"/><ellipse cx="681.1" cy="237.8" rx="53.9" ry="51.3"/><ellipse cx="679.1" cy="161" rx="11.2" ry="11"/><ellipse cx="825" cy="180.2" rx="39.3" ry="37.5"/><ellipse cx="825.3" cy="348.7" rx="39.6" ry="37"/></svg>