<svg xmlns="http://www.w3.org/2000/svg" viewBox="0 0 1138 298"><defs/><g fill="none" fill-rule="evenodd"><path fill="#F49224" d="M703.2 68.2l-18.4 18.4a102.3 102.3 0 10.4 144.9l18 18a128.3 128.3 0 110-181.4z"/><path fill="#F49224" d="M535.1 147.4h28.6a50.6 50.6 0 0049 62.2 50.5 50.5 0 10-11.3-99.7V81.4a78.3 78.3 0 11-66.2 66z"/><path fill="#F49224" d="M601.3 217.8h26v52.6h-26zM601.3 43.5h26v52.6h-26zM552.5 147.6v26h-49.4v-26z"/><path fill="#FFF" d="M733.8 232.6h11.5V85.9h-11.5v146.7zm31-147.4v148.1c0 10.5-6.7 17-17 17h-16.7c-10.3 0-17-6.5-17-17V85.2c0-10 6.7-17 17-17h16.7c10.3 0 17 7 17 17zm24.2-17h17.5l18.5 91.6V68.2h19.5v182.1H827l-18.5-94v94H789V68.3zm75.9 0h50.3v17.7h-14.5v164.4h-21.3V86h-14.5V68.2zm70.7 0h35c9 0 16.3 7.2 16.3 16v60.5c0 5.6-.8 13.3-11 14.6 10.2 1.5 11 8.2 11 13.5v77.5H967V168h-11.8v82.3h-19.7V68.3zm19.7 81.8h11.8V86h-11.8v64zm75.4 82.6h11.5V85.9h-11.5v146.7zm31-147.4v148.1c0 10.5-6.7 17-17 17H1028c-10.3 0-17-6.5-17-17V85.2c0-10 6.7-17 17-17h16.8c10.2 0 17 7 17 17zm64.5 165.1h-40.3V68.3h19.8v164.4h20.5v17.8zM12.9 68.2h50.3v17.7H48.6v164.4H27.4V86H12.9V68.2zm70.6 0h35c9 0 16.3 7.2 16.3 16v60.5c0 5.6-.7 13.3-11 14.6 10.3 1.5 11 8.2 11 13.5v77.5H115V168h-11.7v82.3H83.5V68.3zm19.8 81.8H115V86h-11.7v64zm55.6 100.3V84.4c0-9 7.3-16.2 16.3-16.2H194c9 0 16.2 7.2 16.2 16.2v166h-19.7V168h-11.8v82.3h-19.8zM190.5 150V86h-11.8v64h11.8zM254 250.3h-19.8V68.3H276v17.7H254V150h18.3v18H254v82.3zm62 0h-19.8V68.3h41.5v17.7H316V150h18.3v18H316v82.3zm42.8 0V68.3h20v182.1h-20zm95.7-17c0 10.5-6.5 17-17 17h-16.8c-10.5 0-17-6.5-17-17V85.2c0-10 6.5-17 17-17h16.8c10.5 0 17 7 17 17v42h-19.8V86h-11.2v146.7h11.2v-41.3h19.8v42zM39 35.6l-6.2-18-6.6 18H39zM30 11.4h6.3l14.8 41h-6l-4.2-12.3H24.6l-4.4 12.3h-5.7l15.4-41zm32.3 0h18.4c3.6 0 6.6 1 8.8 3.1 2.2 2 3.4 5 3.4 8.7 0 3.2-1 6-3 8.3-2 2.4-5 3.6-9.2 3.6H67.7v17.3h-5.5v-41zm25 11.8c0-3-1.2-5-3.4-6.1a12 12 0 00-5-.9h-11v14.2h11c2.4 0 4.5-.5 6-1.6 1.6-1 2.3-3 2.3-5.6zM122 35.6l-6.2-18-6.6 18H122zM113 11.4h6.2l14.9 41h-6l-4.2-12.3h-16.2l-4.5 12.3h-5.7l15.5-41zm49-1c5.1 0 9.2 1.3 12 4 2.9 2.8 4.5 5.9 4.8 9.3h-5.4c-.6-2.6-1.8-4.7-3.7-6.2a11.6 11.6 0 00-7.7-2.3c-4 0-7.3 1.4-9.8 4.2-2.4 2.8-3.7 7.2-3.7 13a19 19 0 003.4 11.7c2.2 3 5.6 4.5 10 4.5 4 0 7.2-1.6 9.3-4.7a18 18 0 002.6-6.6h5.4c-.5 4.4-2 8-4.8 10.9a17 17 0 01-13.2 5.3c-4.7 0-8.7-1.5-12-4.4-4.2-3.8-6.3-9.7-6.3-17.6 0-6 1.6-11 4.8-14.9 3.4-4.2 8.2-6.3 14.3-6.3zm29.6 1h5.6v17h21.3v-17h5.6v41h-5.6V33.2h-21.3v19.2h-5.6v-41zm47.2 0h29.9v5h-24.5V29h22.6v4.7h-22.6v14h24.9v4.8h-30.3v-41z"/></g></svg>