<svg xmlns="http://www.w3.org/2000/svg" viewBox="0 0 100 100">
  <path d="M69.75 54.75L54.62 69.89c-4.05 4.05-10.62 4.05-14.68 0l-9.83-9.83c-4.05-4.05-4.05-10.62 0-14.68l15.14-15.14c4.05-4.05 10.62-4.05 14.68 0l9.83 9.83c4.04 4.06 4.04 10.63-.01 14.68zM68.6 38.36h16.11c2.52 0 4.56-2.04 4.56-4.56 0-2.52-2.04-4.56-4.56-4.56h-7.99l4.27-4.27a4.563 4.563 0 000-6.45 4.563 4.563 0 00-6.45 0l-3.77 3.77V15.3c0-2.52-2.04-4.56-4.56-4.56-2.52 0-4.56 2.04-4.56 4.56v16.12M31.4 61.64H15.29c-2.52 0-4.56 2.04-4.56 4.56 0 2.52 2.04 4.56 4.56 4.56h7.99l-4.27 4.27a4.563 4.563 0 000 6.45 4.563 4.563 0 006.45 0l3.77-3.77v6.99c0 2.52 2.04 4.56 4.56 4.56 2.52 0 4.56-2.04 4.56-4.56V68.58M39.39 36.11v32.58M49.89 27.57v45.02M59.62 30.42v34.05"/>
</svg>
