<svg xmlns="http://www.w3.org/2000/svg" viewBox="0 0 100 100">
  <g id="Layer_1">
    <path d="M69.37 23.38H30.63c-11.22 0-20.32 9.1-20.32 20.32V49.47c0 5.98.48 11.96 1.43 17.87.86 5.35 5.48 9.28 10.9 9.28 3.75 0 7.24-1.9 9.28-5.05l5.2-8.05a11.04 11.04 0 019.28-5.05h7.2c3.75 0 7.24 1.9 9.28 5.05l5.2 8.05a11.04 11.04 0 009.28 5.05c5.42 0 10.04-3.93 10.9-9.28.95-5.91 1.43-11.88 1.43-17.87V43.7c0-11.22-9.1-20.32-20.32-20.32z"/>
    <circle cx="73.28" cy="41.99" r="2.72"/>
    <circle cx="73.28" cy="55.85" r="2.72"/>
    <circle cx="80.21" cy="48.92" r="2.72"/>
    <circle cx="66.35" cy="48.92" r="2.72"/>
    <path d="M35.07 45.94h-5.64V40.3h-6.05v5.64h-5.64v6.05h5.64v5.64h6.05v-5.64h5.64z"/>
  </g>
</svg>
