<svg xmlns="http://www.w3.org/2000/svg" viewBox="0 0 100 100">
  <path d="M66.43 82.78H33.57a4.2 4.2 0 01-4.2-4.2V21.42a4.2 4.2 0 014.2-4.2h32.86a4.2 4.2 0 014.2 4.2v57.16a4.2 4.2 0 01-4.2 4.2z"/>
  <path d="M30.62 81.57l6.41 6.93c.45.49 1.08.76 1.74.76h22.18c.64 0 1.25-.26 1.69-.71l6.67-6.79M30.62 18.43l6.41-6.93c.45-.49 1.08-.76 1.74-.76h22.18c.64 0 1.25.26 1.69.71l6.67 6.79"/>
  <circle cx="38.87" cy="26.26" r="2.72"/>
  <circle cx="49.97" cy="26.26" r="2.72"/>
  <circle cx="61.25" cy="26.26" r="2.72"/>
  <circle cx="38.87" cy="37.4" r="2.72"/>
  <circle cx="49.97" cy="37.4" r="2.72"/>
  <circle cx="61.25" cy="37.4" r="2.72"/>
  <circle cx="38.87" cy="48.55" r="2.72"/>
  <circle cx="49.97" cy="48.55" r="2.72"/>
  <circle cx="61.25" cy="48.55" r="2.72"/>
  <circle cx="38.87" cy="59.7" r="2.72"/>
  <circle cx="49.97" cy="59.7" r="2.72"/>
  <circle cx="61.25" cy="59.7" r="2.72"/>
  <circle cx="38.87" cy="70.85" r="2.72"/>
  <circle cx="49.97" cy="70.85" r="2.72"/>
  <circle cx="61.25" cy="70.85" r="2.72"/>
</svg>
