<svg xmlns="http://www.w3.org/2000/svg" viewBox="0 0 100 100">
  <circle cx="23.11" cy="83.34" r="1.93"/>
  <path d="M33.35 89.49H12.79V46.16h20.63v43.32M33.52 88.64c1.37.56 2.84.84 4.32.84h34.45c2.77 0 5.32-1.79 6.01-4.47.75-2.94-.66-5.6-2.95-6.86h2.49c2.96 0 5.92-2.37 6.26-5.32a6.048 6.048 0 00-6.01-6.78h3.07c3.58 0 6.44-3.11 6.01-6.78-.35-2.94-3.3-5.32-6.26-5.32H80c4.27 0 7.67-2.75 7.15-7.12-.43-3.67-3.75-5.49-7.45-5.49l-19.63.17s.33-2.24 1.89-14.45c1.35-10.56-1-14.6-3.38-15.9-1.07-.58-4.17-1.53-6.13 1.16-.48.66-.77 1.43-.95 2.23l-1.83 8.36c-.83 3.79-2.01 7.49-3.6 11.02-2.61 5.8-6.98 13.46-12.63 15.89"/>
</svg>
