<svg xmlns="http://www.w3.org/2000/svg" viewBox="0 0 1920 1280"><defs/><style>.st1{fill:#ff8ae2}.st2{fill:#9c4668}.st3{fill:#93c2db}.st5{fill:#93c2d8}</style><radialGradient id="SVGID_1_" cx="1270.6" cy="414.8" r="1200" gradientUnits="userSpaceOnUse"><stop offset="0" stop-color="#183d5d"/><stop offset="1" stop-color="#072540"/></radialGradient><path fill="url(#SVGID_1_)" stroke="#000" stroke-miterlimit="10" d="M.5.5h1919v1279H.5z"/><path d="M1428.1 366.1V245.7l-12.5 12.5V366l21.5 21.7-21.5 21.7h12.5l21.7-21.7-21.7-21.6zM1750.5 236.3H1738l21.5 21.7v136.9l-14.4 14.5h12.5l14.5-14.5v-137l-21.6-21.6zM1211.5 178.5H1200l21.7 21.7V395l-14.5 14.5h11.7l14.4-14.5V200.2l-21.8-21.7zM1012.3 366.1V245.4l-12.5 12.5v108.2l21.7 21.7-21.7 21.7h12.5l21.7-21.7-21.7-21.7zM1352.8 214.6h-12.5v21.7h12.5v-21.7zM1340.3 380.5l12.5-12.5V265l28.9-28.8h-12.5l-28.9 28.8v115.5zM1354.9 366.1l7.1 7.3-21.7 21.5-14.4 14.5h12.5l14.4-14.5 21.7-21.5-7.1-7.3h-12.5zM1545.7 366.1v-166l-21.7-21.7h-12.5l21.7 21.7v166l21.5 21.7-21.5 21.7h12.5l21.7-21.7-21.7-21.7z" class="st1"/><path d="M1567.4 236.3h-12.6l28.9 28.8v93.8l-22.6 22.6 6.3 6.3 28.8-28.9V265l-28.8-28.7zM843.1 227.4v52.7l12.5-12.5v-78l-22.8-22.8h-12.5l22.8 22.8v37.8zM911.1 197.2V363.9l15.2 15.2 6.3-6.3-9-8.9V189.6l-22.8-22.8h-12.5l22.8 22.8v7.6zM880.7 275.2l-37.6 37.6v81.4l-15.2 15.2h12.5l15.2-15.2v-81.4l25.1-25.1v-12.5zM805.1 197.4L782.4 220H795l16.4-16.4-6.3-6.2zM953.9 363.9h-12.5l7.6 7.6-15.2 15.2-7.6 7.6-15.2 15.2h12.5l15.2-15.2 7.6-7.6 15.2-15.2-7.6-7.6zM1449.8 236.3h-12.6L1466 265v93.8l-22.6 22.6 6.3 6.3 28.8-28.9V265l-28.7-28.7zM1695.5 264.9l-50.3 50.3v50.9l14.4 14.4 6.3-6.2-8.2-8.2v-50.9l50.3-50.3-28.6-28.6h-12.5l28.6 28.6zM1681.2 358.8l7.3 7.3-21.7 21.7-7.3 7.1-14.4 14.5h12.5l14.4-14.5 7.3-7.1 21.7-21.7-7.3-7.3h-12.5z" class="st1"/><path d="M1645.2 300.8l12.5-12.5v-17.9l-12.5-12.5v42.9zM1062.7 373.4V265l-28.8-28.8h-12.5l28.8 28.8v108.3l14.4 14.4-21.5 21.7h12.5l21.5-21.7-14.4-14.3zM1137.2 380.5l6.2-6.2-8.1-8.2v-96l-12.3-12.2h-.2v108.2l14.4 14.4zM1171.3 358.8h-12.5l7.1 7.3-21.5 21.7-7.3 7.1-14.4 14.5h12.5l14.4-14.5 7.3-7.1 21.5-21.7-7.1-7.3zM1144.4 279.3h12.5l21.5-21.7-21.5-21.7h-12.5l21.5 21.7-21.5 21.7zM1255.8 236.3h-12.6l21.7 21.7-21.7 21.7h12.6l21.5-21.7-21.5-21.7zM1793.7 236.3h-12.5l21.7 21.7-21.7 21.7h12.5l21.7-21.7-21.7-21.7z" class="st1"/><path d="M1255.8 279.6h-12.6l21.7 21.5v93.8l-14.4 14.5h12.5l14.4-14.5v-93.8l-21.6-21.5z" class="st1"/><path d="M1369.3 236.3h-28.9v-21.7L1290 265h21.7v129.8l14.4 14.5 14.4-14.5 21.7-21.5-7.1-7.3-14.5 14.4V265l28.7-28.7zM1533.2 257.9v-57.8l-21.7-21.7-21.7 21.7 14.4 14.4v165.9l28.9 28.9 21.5-21.7-21.5-21.7v-108z" class="st2"/><path d="M1533.2 257.9l21.5 21.7v108.2l28.9-28.9V265l-28.9-28.8-21.5 21.7zM926.2 379L911 363.8V189.6l-22.8-22.8-22.6 22.8 15 15v37.8L843 280v-90.5l-22.8-22.8h-.2l-45.5 45.4 7.7 7.7 22.8-22.6 7.6 7.6v189.3l15.2 15.2 15.2-15.2v-81.4l37.6-37.6V379l30.4 30.4 15.2-15.2 7.6-7.6 15.2-15.2-7.6-7.6-15.2 15.2zM1415.6 257.9l-28.9 28.8v93.8l28.9 28.9 21.5-21.7-21.5-21.7V257.9z" class="st2"/><path d="M1415.6 257.9l21.5 21.7v108.2l28.9-28.9V265l-28.9-28.8-21.5 21.7zM1695.5 264.9l-28.6-28.6-21.7 21.7 21.5 21.3-21.5 21.5v-42.9l-28.9 28.8v93.8l28.9 28.9 14.4-14.5 7.3-7.1 21.7-21.7-7.3-7.3-21.7 21.7-14.4-14.4v-50.9l50.3-50.3zM999.8 257.9l-28.9 28.8v93.8l28.9 28.9 21.7-21.7-21.7-21.7V257.9z" class="st2"/><path d="M1050.2 265l-28.8-28.8-21.7 21.7 21.7 21.7v108.2l21.7 21.7 21.5-21.7-14.4-14.4V265zM1137.2 380.5l-14.4-14.4V257.9l-28.9 28.8v93.8l28.9 28.9 14.4-14.5 7.3-7.1 21.5-21.7-7.1-7.3-21.7 21.7zM1144.5 236l-21.7 21.7 21.7 21.7 21.7-21.7-21.7-21.7zM1243.3 236.2l-21.7 21.7 21.7 21.7 21.7-21.7-21.7-21.7zM1236 315.6v79.2l14.4 14.5 14.4-14.5V301l-21.7-21.5-21.5 21.5 14.4 14.6zM1221.6 236.3v-36.1l-21.7-21.7-21.7 21.7 14.4 14.4v180.3l14.4 14.5 14.5-14.5V236.3zM1781.3 236.1l-21.7 21.7 21.7 21.7 21.7-21.7-21.7-21.7zM1716.3 257.9l14.4 14.4v122.6l14.4 14.5 14.4-14.5v-137l-21.5-21.7-21.7 21.7zM1403.7 180.6v-8.5h3.3c3 0 5.4 2.4 5.4 5.4v23.2a8.5 8.5 0 00-5.7 8.1 8.4 8.4 0 008.6 8.5c4.7 0 8.5-3.8 8.5-8.5 0-3.5-2.2-6.5-5.2-7.9v-23.4c0-3.2-1.3-6-3.5-8.2a11.6 11.6 0 00-8.2-3.5h-3.3v-8.5l-11.5 11.5 11.6 11.8zm11.7 24.4c1.1 0 2.1.5 2.8 1.1.6.6 1.1 1.7 1.1 2.7a4 4 0 01-1.1 2.7c-.8.8-1.7 1.1-2.7 1.1a4 4 0 01-4-4c0-1.9 1.7-3.6 3.9-3.6zM1390.3 208.9c0-3.5-2.2-6.5-5.2-7.9v-24c3-1.3 5.2-4.3 5.2-7.9a8.5 8.5 0 10-17 0 8.5 8.5 0 005.6 8.1v23.7a8.5 8.5 0 00-5.7 8.1 8.4 8.4 0 008.6 8.5c4.7-.1 8.5-4 8.5-8.6zm-8.5-35.9a4 4 0 01-2.7-1.1 3.6 3.6 0 01-1.1-2.7 4 4 0 014-4c1.1 0 2.1.5 2.8 1.1.6.6 1.1 1.7 1.1 2.7-.2 2.3-1.9 4-4.1 4zm0 39.7a4 4 0 01-2.9-6.7c.8-.8 1.7-1.1 2.7-1.1 1.1 0 2.1.5 2.8 1.1.6.6 1.1 1.7 1.1 2.7.2 2.3-1.5 4-3.7 4zM1613.1 248.3a8.4 8.4 0 00.6-12c-.9-.9-1.9-1.7-3-2.2v-16.3c6 7.7 13.1 11.1 18.5 12.6a8 8 0 001.9 3.8 8.5 8.5 0 005.9 2.8c2.2.2 4.4-.6 6.2-2.2a8.4 8.4 0 00.6-12 8.5 8.5 0 00-5.9-2.8c-2.1-.2-4 .5-5.7 1.7l-.5.5c-.6.6-1.3 1.3-1.6 2.1a31 31 0 01-16.1-12.8 8.5 8.5 0 00-11.5-12.5l-.5.5a8.4 8.4 0 002.7 14.2v20.2a5 5 0 00-2.2 1.3l-.5.5a8.5 8.5 0 00-2.8 5.9c-.2 2.2.6 4.4 2.2 6.2 2.8 3.2 8.2 3.5 11.7.5zm21.8-22.8c.8-.6 1.7-1.1 2.8-.9 1.1 0 2.1.5 2.7 1.3a4 4 0 01-.3 5.5l-.3.2a4 4 0 01-2.5.8c-1.1 0-2.1-.5-2.7-1.3-.6-.8-1.1-1.7-.9-2.8-.1-1 .4-2 1.2-2.8zm-29.9-22.6a4 4 0 015.5.3 4 4 0 01-.3 5.5l-.2.2c-1.6 1.3-4 .9-5.2-.5-1.5-1.7-1.4-4.1.2-5.5zm-1.4 38.7c0-1.1.5-2.1 1.3-2.7a4 4 0 015.5.3 4 4 0 01-.3 5.5l-.2.2c-1.6 1.3-4 .9-5.2-.5-.8-.7-1.3-1.8-1.1-2.8zM995.5 160.7c0-.6.2-1.4.5-2.1h-11.4v4.9H996a4 4 0 01-.5-2.8zM1011.3 161.6c0 .6-.2 1.4-.5 2.1h11.4v-4.9H1011c.2.8.3 1.7.3 2.8z" class="st2"/><path d="M1013.7 161.2v.6a10 10 0 01-3.5 7.1 9.7 9.7 0 01-7.4 2.5 10.4 10.4 0 01-9.8-10.9 10 10 0 013.5-7.1 9.7 9.7 0 017.4-2.5 10 10 0 019.8 10.3zm-15.8 0c0 2.8 2.2 5.2 5.2 5.5 1.4.2 2.8-.5 4-1.4a6 6 0 001.9-3.8c.2-3-2.1-5.5-5.1-5.9l.2-2.4-.2 2.4c-1.4-.2-2.8.5-4 1.4a6 6 0 00-1.9 3.8l-.1.4zM1701.8 420.6c0-.6.2-1.4.5-2.1h-11.4v4.9h11.4c-.4-.7-.5-1.8-.5-2.8zM1717.6 421.6c0 .6-.2 1.4-.5 2.1h11.4v-4.9h-11.2c.3.7.5 1.7.3 2.8z" class="st2"/><path d="M1720.1 421.1v.6a10 10 0 01-3.5 7.1 10.4 10.4 0 01-17.2-8.4 10 10 0 013.5-7.1 9.7 9.7 0 017.4-2.5c5.6.3 9.8 4.8 9.8 10.3zm-15.8 0c0 2.8 2.2 5.2 5.2 5.5 1.4.2 2.8-.5 4-1.4a6 6 0 001.9-3.8c.2-3-2.1-5.5-5.1-5.9l.2-2.4-.2 2.4c-1.4-.2-2.8.5-4 1.4a6 6 0 00-1.9 3.8l-.1.4zM873 437.1c0-.6.2-1.4.5-2.1h-11.4v4.9h11.4a4 4 0 01-.5-2.8zM888.8 438c0 .6-.2 1.4-.5 2.1h11.4v-4.9h-11.2c.1.8.3 1.7.3 2.8z" class="st2"/><path d="M891.1 437.5v.6a10 10 0 01-3.5 7.1 9.7 9.7 0 01-7.4 2.5 10.4 10.4 0 01-9.8-10.9 10 10 0 013.5-7.1c2.1-1.7 4.7-2.7 7.4-2.5 5.6.2 9.8 4.8 9.8 10.3zm-15.8 0c0 2.8 2.2 5.2 5.2 5.5 1.4.2 2.8-.5 4-1.4s1.7-2.4 1.9-3.8c.2-3-2.1-5.5-5.1-5.9l.2-2.5-.2 2.5c-1.4-.2-2.8.5-4 1.4a6 6 0 00-1.9 3.8l-.1.4zM1277.4 209.2c0-.6.2-1.4.5-2.1h-11.4v4.9h11.4c-.3-.9-.5-1.8-.5-2.8zM1293.2 210.2c0 .6-.2 1.4-.5 2.1h11.4v-5.1h-11.2c.3.9.5 1.9.3 3z" class="st2"/><path d="M1295.8 209.7v.6a10 10 0 01-3.5 7.1 9.7 9.7 0 01-7.4 2.5 10.4 10.4 0 01-9.8-10.9 10 10 0 013.5-7.1 9.7 9.7 0 017.4-2.5c5.5.2 9.8 4.8 9.8 10.3zm-15.9 0c0 2.8 2.2 5.2 5.2 5.5 1.4.2 2.8-.5 4-1.4a6 6 0 001.9-3.8c.2-3-2.1-5.5-5.1-5.9l.2-2.4-.2 2.4c-1.4-.2-2.8.5-4 1.4a6 6 0 00-1.9 3.8l-.1.4zM1119.8 210.5a8.4 8.4 0 00-11.9-2.4 8.4 8.4 0 00-3.6 5.4c-.5 2.2 0 4.6 1.3 6.5a6.7 6.7 0 004 2.8v6c0 1.7-1.4 5.7-5.7 5.7h-15.5v-15.2a7.1 7.1 0 003-2.2 8.5 8.5 0 00-.6-12 8.5 8.5 0 00-12 .6 9 9 0 00-2.2 6.2 8 8 0 002.8 5.9l.5.5c.6.5 1.4.9 2.2 1.3v20.2a9.6 9.6 0 00-3.3 2.2 8.5 8.5 0 00.6 12l.5.5a8.5 8.5 0 0011.5-1.1 8.8 8.8 0 000-11.4l-1.1-1.1h13.4c8.2 0 11.9-7 11.9-11.7v-5.9a12 12 0 001.6-.8l.5-.5c1.6-1.3 2.7-3 3.2-5.1a8 8 0 00-1.1-6.4zm-38.6 1.1c0-1.1.3-2.1.9-2.8a3.8 3.8 0 015.2-.5c.2 0 .2.2.2.2a4 4 0 01.3 5.5 4 4 0 01-5.5.3 4.9 4.9 0 01-1.1-2.7zm7 38.4c-1.4 1.6-3.8 1.7-5.5.3a4 4 0 01-.3-5.5 3.8 3.8 0 015.2-.5c.2 0 .2.2.2.2a4 4 0 01.4 5.5zm28.3-34c-.2.9-.8 1.9-1.7 2.5-.8.6-1.9.8-3 .6-.9-.2-1.9-.8-2.5-1.7-.6-.8-.8-1.9-.6-3 .2-.9.6-1.7 1.4-2.2.2 0 .2-.2.3-.2 1.7-1.1 4.3-.6 5.4 1.1.7.9.8 1.8.7 2.9z" class="st2"/><path d="M829.2 199.6h-3v181h3v-181zM898.1 199.6h-3v168.6h3V199.6zM1207.1 208h-3v179.6h3V208zM1519.2 210h-3v159.1h3V210zM1037.1 272.9h-3v103.4h3V272.9zM1327.1 272.9h-3v103.4h3V272.9zM1745.6 267.9h-3v113.4h3V267.9zM1452.3 271h-3v84.8h3V271zM1568.8 272.9h-3v84.8h3v-84.8zM1630.3 291.3h-3V376h3v-84.7zM1403.1 290.3h-3v84.8h3v-84.8zM1109.7 288.1h-3v86.5h3v-86.5zM986.3 290h-3v83.8h3V290zM1250.9 306.9h-3v83.8h3v-83.8z" class="st1"/><path d="M829.2 311.2l-2.4-2.4 68.6-68.8 2.4 2.5-68.6 68.7zM1722.5 361.2a19 19 0 008.2 10v-23.6c-7.6 7.9-8.2 13.4-8.2 13.6zM1298 371.8zM1311.4 342.7c-17.1 13.4-13.4 29.1-13.4 29.1 2.7 5.7 8.4 9 13.6 10.9l-.2-40z" class="st1"/><path d="M1062.7 316.3v34.2c3.6-3.3 7.6-7.7 9.5-12.6.5-2.2 1.7-12-9.5-21.6z" class="st2"/><path d="M958.7 457.3s11.1 5.1 8.4 33.8a46 46 0 005.5 24.4s-20.4-4.9-23.2-20.2c-2.3-11.6 7.5-23.1 9.3-38zM938.3 201.3s23.7-18.3 12.6-51.1c0 0-13.6 4.7-11.2 19 2.5 15.8 2.7 25.6-1.4 32.1zM1715.1 330.7s-10.6-31.8 20.2-55.5c0 0 8.7 12-1.4 24.7-10.1 12.6-18.7 22.2-18.8 30.8zM1292.4 328.1s-11.4-29.7 10.4-42.4c0 0 2.5 5.5 1.4 14.7-1.2 9.7-7.5 11.1-11.8 27.7zM1122.1 204.6s7.7-20.4 26.1-14.9c0-.1-4.9 18.7-26.1 14.9zM1100.5 198.6s-14.1-15 .8-30c.1 0 12.9 12-.8 30zM1072.7 204.6s-20.6 3.3-27.4-12.3c-.2 0 19.3-6.8 27.4 12.3zM1398.2 445.1s7.7-20.4 26.1-14.9c0 .1-4.9 18.9-26.1 14.9zM1376.6 439.3s-14.1-15 .8-30c-.1-.1 12.9 12-.8 30zM1348.7 445.3s-20.6 3.3-27.4-12.3c-.1-.2 19.4-7 27.4 12.3zM1609 185.7s-7.7-16.4 5.5-29.6c-.1 0 10.8 13.9-5.5 29.6zM1597.4 188s-18.2-.9-23.4-19c0 .1 17.4-2.8 23.4 19zM1170.7 717.4s-17.5 9.2-29.6-5.5c0 0 16.6-10.3 29.6 5.5zM1178.9 729s-.8 20.4-19 23.4c0-.2-1.4-19.5 19-23.4zM1408.8 649.6s16.4-7.7 29.6 5.5c0-.1-13.9 10.8-29.6-5.5zM1406.4 638s.9-18.2 19-23.4c-.1 0 2.9 17.4-19 23.4zM1784.6 419.8s18.2 5.5 17.1 24.8c0-.1-20.5-2.2-17.1-24.8zM1788 410s11.7-14.2 29.9-3.2c-.1.1-10.3 14.3-29.9 3.2zM768.4 225s-9 17.2-28.6 9.2c0 0 7.9-19 28.6-9.2zM777.1 231.4s14.1 15.8 0 30c-.1 0-15-15.8 0-30zM1369.9 161.9s-17.7-3.8-20.1-22.3c-.1.1 17.6-.1 20.1 22.3zM1364.7 172.5s-11.9 13.8-29.3 7.1c.2.1 8.4-15.6 29.3-7.1zM1664.5 352.8s3.3-5.9 4.4-11.7c2.1-9.8 3-19.6 14.9-20.1.1 0 .4 26.9-19.3 31.8zM1594.3 486.7s11.4-18.2 31.3-20.2a43 43 0 0037.3-25.1s-33.7-.5-46.8 6.8c-13.4 7.4-17.2 15.8-21.8 38.5zM1233.1 389.2c.9-10.8.9-37.5-1.7-49.3-3.5-15.8-6.6-15.3-8.7-14.5-2.1.8-1.6 3-2.7 4.3-1.3 1.3-3.2 2.8-5.7-2.2-2.5-5.2-4.4-20.1-9.2-25.3-4.9-5.4-8.1 3.3-10.3 5.4-2.2 2.1-2.5 3.5-8.7-.6s-22.9-12.6-30-7.1c-7 5.5.6 12.5 2.8 13.9 4.6 3 19.3 7.6 20.4 10.1 1.9 4.6-8.1 5.1-10 8.4-1.9 3.3.6 6.8 5.2 7.9 4.6 1.1 16.9-1.3 22.1 0 5.1 1.3 4 3 2.2 4.1-.9.6-9.8 5.5-8.4 9.8 1.6 5.1 6.6 6.6 19 5.5 9.3-.8 16.3 5.9 18.3 11.2 2.3 5.4 5.4 18.4 5.4 18.4z" class="st3"/><path d="M1170.8 305.2l-2.2-1.3-1.7 1.1s.3.3 2.8 1.7c40.2 24 56.8 49.5 63.7 67.8v-4.7c-7.7-18.3-24.9-42.1-62.6-64.6z" class="st1"/><path d="M1436.5 320.5s-2.7-24.5 1.4-44.1a95.3 95.3 0 0121.7-40.2c12.6-14.1 17.1-16.4 19.9-16.4 1.3 0 .5 1.9 0 3.8-1.3 4.6-2.4 8.1-3.8 14.4-2.7 12.8 0 17.9-4 24.4-2.2 3.8-15.5 8.7-12 13.4 2.1 2.7 13-8.2 16-4.6 3 3.5-2.8 19.8-10.8 24.7-22.6 13.7-28.4 24.6-28.4 24.6zM1525.2 479v-12.5h-70.8v21.2h12.8V501H1454.1v13.1h-12.8 38.9V501h57.6v-22h-12.6zM1217.8 520.6h-13.1v-30.2h-19.8v106.7h12.8V584h20.1v-37.8h23.9v-10h18.8v-15.7h-42.7zM1395.5 568.6h-13.1v13.1h13.1v-13.1zM1269.5 571.6h-13.1v13.1h13.1v-13.1zM1282.6 584.8h-13.1v13.1h13.1v-13.1zM1369.3 608.2v-13.3h13.1v-13.1h-11.5v-28.6h-15.2v28.6h-36.8V594h-12.3v14.2h62.7zM1332.6 479.8h-13.1v13.1h13.1v-13.1zM1345.7 466.5h-13.1v13.1h13.1v-13.1zM1160.1 480.6h-18.7v10h18.7v-10zM1101 496.1h-13.1V483h-13.1v13.1h13.1v50.2h58.7v-25.5H1101v-24.7zm13.2 36.8V546h-13.1v-13.1h13.1zM1445.5 575.2v-11.1h-11.1v11.1h11.1zM1069.2 445.1h-11.9v11.4h11.9v-11.4zM1253.2 173.8v-11.5h-11.5v11.5h11.5zM1469.5 188.7v-11.5H1458v11.5h11.5zM1831.4 348.8v-11.5h-11.5v11.5h11.5zM1432.6 710h11.5v-11.5h-11.5V710zM1239.1 752.1h11.5v-11.5h-11.5v11.5zM1485.4 413.4v-11.1h-11.1v11.1h11.1zM1597.8 431.4v-11.1h-11.1v11.1h11.1zM1168.9 421.5h11.1v-11.1h-11.1v11.1zM1151.3 612.2v-11.1h-11.1v11.1h11.1z" class="st3"/><path d="M1480.1 501v13.1h-16.8v94.1h20.2v-12.3h12.3V501h-15.7zM1345.7 466.5v13.3h-13.1v13.1h-26.2v47-13h13.3v6.3h16.4V501h43.8v-10.4h11.5v-24h-45.7z" class="st2"/><path d="M1180 432.6h11.1v-11.1H1180v11.1z" class="st1"/><path d="M1256.1 478.3v-11.9h-45.5v-10H1178v33.8h26.7v30.2h13.1v-21.7h13.4v-20.6h24.9zM1087.8 559.3v-63.2h-13.1V483h13.1v-13.3h13.1v-13h-31.8V600.8h31.8v-41.6h-13.1zM1069.2 600.9h-11.9v11.4h11.9v-11.4zM1537.4 466.5H1525v12.3h12.3v-12.3zM1549.7 479h-12.3v22h12.3v-22zM1549.7 454.1h-12.3v12.3h12.3v-12.3zM1382.4 594.9h-13.1V608h13.1v-13.1zM1217.8 597.1h-20.1v11.1h20.1v-11.1z" class="st2"/><path d="M751.4 273v-11.5h-11.5V273h11.5zM1074.9 160.1v-11.5h-11.5v11.5h11.5zM1814.1 215.8v-11.5h-11.5v11.5h11.5zM1711.1 474.5h11.5V463h-11.5v11.5z" class="st1"/><path d="M1722.3 463.3h11.5v-11.5h-11.5v11.5zM1011.1 558.9h11.5v-11.5h-11.5v11.5zM1138.6 669.5h11.5V658h-11.5v11.5zM1295 619.6h11.5v-11.5H1295v11.5zM1495.4 443.1V432h-11.1v11.1h11.1zM1586.5 442.5v-11.1h-11.1v11.1h11.1zM1285.2 466.5h-29.1v11.9h-24.8V499h40.6v-13.6h13.3v-18.9z" class="st1"/><path d="M1297 455.3h-11.9v11.4h11.9v-11.4zM1662.1 169.5h-12.3v12.3h12.3v-12.3zM1508.3 608.2H1496v12.3h12.3v-12.3zM1495.9 595.8h-12.3v12.3h12.3v-12.3zM1395.5 568.6v-24.4h-8.7v-11.1h-67.2v-6.3h-13.3V540h13.1v13.1H1370.8v28.6h11.5v-13.1h13.2zM1332.6 466.5h-13.1v13.1h13.1v-13.1zM1319.5 479.8h-13.1v13.1h13.1v-13.1zM1260.3 536.2h-18.7v10h18.7v-10zM1057.3 612.3H1045v12.3h12.3v-12.3zM1114.1 532.9H1101V546h13.1v-13.1zM1101 546.2h-13.1v13.1h13.1v-13.1zM1128.3 466.5v-10H1101v13.1h-13.1V496h13.1v-5.5h40.5v-10h18.8v-14.1h-32zM1480.3 474.5h-13.1v13.1h13.1v-13.1zM1454.3 487.7v-21.2h-43.2V501h29.7v13.1h13.1V501H1467v-13.3h-12.7zM1269.5 597.9v-13.1h-13.1v-13.1h-38.6V584h-20.1v13.1h20.1v11.1h65v-10.3h-13.3z" class="st1"/><path d="M1395.5 581.8h-13.1v13.1h13.1v-13.1zM1457.8 200.3v-11.5h-11.5v11.5h11.5zM794.7 306.8v-11.5h-11.5v11.5h11.5zM1101 426.9v-11.5h-11.5v11.5h11.5zM972 423.3v-11.5h-11.5v11.5H972zM1819.8 360.4v-11.5h-11.5v11.5h11.5zM1421.1 698.4h11.5v-11.5h-11.5v11.5zM1537.8 561.3h11.5v-11.5h-11.5v11.5z" class="st2"/><path d="M1227.5 740.6h11.5v-11.5h-11.5v11.5z" class="st1"/><path d="M1434.3 586.2v-11.1h-11.1v11.1h11.1zM1255.4 433.6h-12.3v12.3h12.3v-12.3zM1140.3 623.4v-11.1h-11.1v11.1h11.1zM1334.8 706l-7.6-7.6-12.6 12.6h-7.9v-28.6l6.8-6.8 2.5-2.5 2.7-2.5 5.2-5.2v-20.9l-11.2-11.1-15.5 15.5 2.7 2.5 7.7-7.7 5.9 6v20.7l-15.8 15.8-1.3 1.3v25.9H1327.3l7.5-7.4z" class="st2"/><path d="M1323.9 657.5v7.9l-5.2 5.2-2.7 2.5-2.5 2.5-6.8 6.8V711h4.3v-28.6l6.8-6.8 2.4-2.5 2.7-2.5 5.2-5.2v-20.9l-11.2-11.1h-4.1l11.2 11.1v13zM1331.5 698.4h-4.3l7.6 7.6-7.6 7.4h4.3l7.4-7.4-7.4-7.6zM1309.7 645.9l-2.1-2.2-7.7 7.7h4.1l5.7-5.5z" class="st1"/><path d="M1376.2 679.2v16.6h-11.4v-17.3h-8.1v-23.9h-14.5V691h7.4v23.4H1384.2v-35.2h-8z" class="st3"/><path d="M1390.3 654.5v-9.8h-10.4v10h-3.6v24.5h8.1V702.4h6V691h5.1v-36.5h-5.2z" class="st1"/><path d="M1383 633.9h-24.7v6h-8.7v14.7h7.1v23.9h8.1v-23.9h15v-10h3.2v-10.7zM1224.1 706l-7.6-7.6-12.6 12.6h-7.9v-28.6l6.8-6.8 2.5-2.5 2.7-2.5 5.2-5.2v-20.9l-11.2-11.1-15.5 15.5 2.7 2.5 7.7-7.7 5.9 6v20.7l-15.8 15.8-1.3 1.3v25.9H1216.6l7.5-7.4z" class="st2"/><path d="M1213.2 657.5v7.9l-5.2 5.2-2.7 2.5-2.5 2.5-6.8 6.8V711h4.3v-28.6l6.8-6.8 2.4-2.5 2.7-2.5 5.2-5.2v-20.9l-11.2-11.1h-4.1l11.2 11.1v13zM1199 645.9l-2.1-2.2-7.7 7.7h4.1l5.7-5.5zM1220.8 698.4h-4.3l7.6 7.6-7.6 7.4h4.3l7.4-7.4-7.4-7.6z" class="st1"/><path d="M1265.6 679.2v16.6h-11.4v-17.3h-8.1v-23.9h-14.5V691h7.4v23.4H1273.6v-35.2h-8z" class="st3"/><path d="M1279.6 654.5v-9.8h-10.4v10h-3.6v24.5h8.1V702.4h6V691h5.1v-36.5h-5.2z" class="st1"/><path d="M1272.4 633.9h-24.7v6h-8.7v14.7h7.1v23.9h8.1v-23.9h15v-10h3.2v-10.7z" class="st2"/><path d="M1211.8 483.9c.4 0 .8-.4.8-.8s-.4-.8-.8-.8-.8.4-.8.8.4.8.8.8zM1210.1 504.6c.4 0 .8-.4.8-.8s-.4-.8-.8-.8-.8.4-.8.8.3.8.8.8zM1213.5 515.8c.4 0 .8-.4.8-.8s-.4-.8-.8-.8-.8.4-.8.8c0 .5.4.8.8.8zM1209.4 495.1c.4 0 .8-.4.8-.8s-.4-.8-.8-.8-.8.4-.8.8.4.8.8.8zM1216.5 476.1c.4 0 .8-.4.8-.8s-.4-.8-.8-.8-.8.4-.8.8.4.8.8.8zM1201 467.4c.4 0 .8-.4.8-.8s-.4-.8-.8-.8-.8.4-.8.8.4.8.8.8zM1223.5 494.2c.4 0 .8-.4.8-.8s-.4-.8-.8-.8-.8.4-.8.8.4.8.8.8zM1234.7 472.2c.4 0 .8-.4.8-.8s-.4-.8-.8-.8-.8.4-.8.8.4.8.8.8zM1250.1 475.2c.4 0 .8-.4.8-.8s-.4-.8-.8-.8-.8.4-.8.8.3.8.8.8zM1184.9 479.1c.4 0 .8-.4.8-.8s-.4-.8-.8-.8-.8.4-.8.8.4.8.8.8zM1197.1 486.1c.4 0 .8-.4.8-.8s-.4-.8-.8-.8-.8.4-.8.8.4.8.8.8zM1195.4 475.8c.4 0 .8-.4.8-.8s-.4-.8-.8-.8-.8.4-.8.8c0 .5.3.8.8.8zM1183.8 464.7c.4 0 .8-.4.8-.8s-.4-.8-.8-.8-.8.4-.8.8c0 .5.4.8.8.8zM1222.7 481c.4 0 .8-.4.8-.8s-.4-.8-.8-.8-.8.4-.8.8c0 .5.4.8.8.8zM1313 506.3c.4 0 .8-.4.8-.8s-.4-.8-.8-.8-.8.4-.8.8c0 .5.4.8.8.8zM1357.3 483.2c.4 0 .8-.4.8-.8s-.4-.8-.8-.8-.8.4-.8.8.3.8.8.8zM1328.5 519.6c.4 0 .8-.4.8-.8s-.4-.8-.8-.8-.8.4-.8.8c0 .5.3.8.8.8zM1322 512.8c.4 0 .8-.4.8-.8s-.4-.8-.8-.8-.8.4-.8.8c0 .5.4.8.8.8zM1330.2 529.9c.4 0 .8-.4.8-.8s-.4-.8-.8-.8-.8.4-.8.8.4.8.8.8zM1371 492.1c.4 0 .8-.4.8-.8s-.4-.8-.8-.8-.8.4-.8.8.4.8.8.8zM1313.8 522.3c.4 0 .8-.4.8-.8s-.4-.8-.8-.8-.8.4-.8.8.3.8.8.8zM1356.5 495.1c.4 0 .8-.4.8-.8s-.4-.8-.8-.8-.8.4-.8.8.3.8.8.8zM1375.6 479.3c.4 0 .8-.4.8-.8s-.4-.8-.8-.8-.8.4-.8.8.4.8.8.8zM1382.7 473.8c.4 0 .8-.4.8-.8s-.4-.8-.8-.8-.8.4-.8.8.4.8.8.8zM1343 486.1c.4 0 .8-.4.8-.8s-.4-.8-.8-.8-.8.4-.8.8.4.8.8.8zM1318.8 498.4c.4 0 .8-.4.8-.8s-.4-.8-.8-.8-.8.4-.8.8.4.8.8.8zM1364.1 475.2c.4 0 .8-.4.8-.8s-.4-.8-.8-.8-.8.4-.8.8.3.8.8.8zM1349.7 472.2c.4 0 .8-.4.8-.8s-.4-.8-.8-.8-.8.4-.8.8.3.8.8.8zM1329.3 504.3c.4 0 .8-.4.8-.8s-.4-.8-.8-.8-.8.4-.8.8.3.8.8.8zM1488.3 565c.4 0 .8-.4.8-.8s-.4-.8-.8-.8-.8.4-.8.8.4.8.8.8zM1487.2 535.9c.4 0 .8-.4.8-.8s-.4-.8-.8-.8-.8.4-.8.8.4.8.8.8zM1487.4 513.8c.4 0 .8-.4.8-.8s-.4-.8-.8-.8-.8.4-.8.8.3.8.8.8zM1484.2 550c.4 0 .8-.4.8-.8s-.4-.8-.8-.8-.8.4-.8.8.4.8.8.8zM1476.8 588.2c.4 0 .8-.4.8-.8s-.4-.8-.8-.8-.8.4-.8.8c0 .5.4.8.8.8zM1473 600.9c.4 0 .8-.4.8-.8s-.4-.8-.8-.8-.8.4-.8.8.4.8.8.8zM1476.8 525.1c.4 0 .8-.4.8-.8s-.4-.8-.8-.8-.8.4-.8.8c0 .5.4.8.8.8zM1489.8 586c.4 0 .8-.4.8-.8s-.4-.8-.8-.8-.8.4-.8.8c0 .5.3.8.8.8zM1477.7 564.5c.4 0 .8-.4.8-.8s-.4-.8-.8-.8-.8.4-.8.8c.1.5.4.8.8.8zM1471.1 577.8c.4 0 .8-.4.8-.8s-.4-.8-.8-.8-.8.4-.8.8.4.8.8.8zM1469 538.7c.4 0 .8-.4.8-.8s-.4-.8-.8-.8-.8.4-.8.8c.1.5.4.8.8.8zM1073.6 596.9c.4 0 .8-.4.8-.8s-.4-.8-.8-.8-.8.4-.8.8c0 .5.4.8.8.8zM1097.2 592.7c.4 0 .8-.4.8-.8s-.4-.8-.8-.8-.8.4-.8.8.3.8.8.8zM1074.4 507.6c.4 0 .8-.4.8-.8s-.4-.8-.8-.8-.8.4-.8.8.4.8.8.8zM1081.8 477.9c.4 0 .8-.4.8-.8s-.4-.8-.8-.8-.8.4-.8.8.4.8.8.8zM1095.3 463.8c.4 0 .8-.4.8-.8s-.4-.8-.8-.8-.8.4-.8.8.3.8.8.8zM1076.8 555.3c.4 0 .8-.4.8-.8s-.4-.8-.8-.8-.8.4-.8.8c0 .5.3.8.8.8zM1076.1 587.1c.4 0 .8-.4.8-.8s-.4-.8-.8-.8-.8.4-.8.8c0 .5.4.8.8.8zM1079.1 531.5c.4 0 .8-.4.8-.8s-.4-.8-.8-.8-.8.4-.8.8.4.8.8.8zM1088 580.2c.4 0 .8-.4.8-.8s-.4-.8-.8-.8-.8.4-.8.8.4.8.8.8zM1083.4 591.4c.4 0 .8-.4.8-.8s-.4-.8-.8-.8-.8.4-.8.8.4.8.8.8zM1087.4 462.5c.4 0 .8-.4.8-.8s-.4-.8-.8-.8-.8.4-.8.8.3.8.8.8zM1083.3 562.5c.4 0 .8-.4.8-.8s-.4-.8-.8-.8-.8.4-.8.8.3.8.8.8zM1094.3 568.3c.4 0 .8-.4.8-.8s-.4-.8-.8-.8-.8.4-.8.8c0 .5.4.8.8.8zM1074.4 465.1c.4 0 .8-.4.8-.8s-.4-.8-.8-.8-.8.4-.8.8.4.8.8.8zM1077.7 544.6c.4 0 .8-.4.8-.8s-.4-.8-.8-.8-.8.4-.8.8.4.8.8.8zM1353.5 645.6c.5 0 .9-.4.9-.9s-.4-.9-.9-.9-.9.4-.9.9c-.1.5.3.9.9.9zM1371.8 638.5c.5 0 .9-.4.9-.9s-.4-.9-.9-.9-.9.4-.9.9.4.9.9.9zM1364.7 647.2c.5 0 .9-.4.9-.9s-.4-.9-.9-.9-.9.4-.9.9c-.1.5.4.9.9.9zM1375.3 650.1c.5 0 .9-.4.9-.9s-.4-.9-.9-.9-.9.4-.9.9c-.1.4.4.9.9.9zM1361.7 653.4c.5 0 .9-.4.9-.9s-.4-.9-.9-.9-.9.4-.9.9c-.1.5.4.9.9.9zM1360.7 675.5c.5 0 .9-.4.9-.9s-.4-.9-.9-.9-.9.4-.9.9.4.9.9.9zM1359.3 663.7c.5 0 .9-.4.9-.9s-.4-.9-.9-.9-.9.4-.9.9c0 .4.4.9.9.9zM1242.8 645.6c.5 0 .9-.4.9-.9s-.4-.9-.9-.9-.9.4-.9.9c-.1.5.4.9.9.9zM1248.6 650.1c.5 0 .9-.4.9-.9s-.4-.9-.9-.9-.9.4-.9.9c0 .4.4.9.9.9zM1265.6 639.5c.5 0 .9-.4.9-.9s-.4-.9-.9-.9-.9.4-.9.9c-.1.4.3.9.9.9zM1260.2 648.2c.5 0 .9-.4.9-.9s-.4-.9-.9-.9-.9.4-.9.9c-.1.4.4.9.9.9zM1250.1 659.4c.5 0 .9-.4.9-.9s-.4-.9-.9-.9-.9.4-.9.9c-.1.5.3.9.9.9zM1251 643.6c.5 0 .9-.4.9-.9s-.4-.9-.9-.9-.9.4-.9.9c0 .4.4.9.9.9zM1249.6 672.5c.5 0 .9-.4.9-.9s-.4-.9-.9-.9-.9.4-.9.9c-.1.5.4.9.9.9z" class="st1"/><path d="M1728.5 215.5c0-2.2-4.3-3.2-5.1-4.6-.5-.8.9-1.4 2.1-1.3.8 0 7.6 1.3 12.3 1.3 16.1.5 20.4-3.5 20.2-5.7-.2-2.2-6.3-3.3-7.3-4.7-.8-1.4.3-2.8 5.9-3.8 5.7-.9 15.5-1.4 22-4.4 6.5-3 5.1-6.5-3.2-9-3-1.3-1.1-3.2 4.6-7.6 5.7-4.4 19.8-18.3 15.3-25.6-3.8-5.4-10.8-2.2-15.7 2.8-3.8 3.8-11.2 11.5-13.9 11.7-4.9.5-.5-7-3-9.6-2.5-2.7-7.9 2.1-10.1 6-2.2 4-4 10.3-6.3 14.9-2.5 5.1-5.1 3.2-5.9 1.4-.6-1.7.5-8.9-4.4-9.6-4.3-.6-9.3 10.3-13.6 16.4a30.2 30.2 0 01-5.9 6.5c-1.3.9-1.9.6-2.2 0-.6-.9 0-7-4.3-8.2-3.8-.9-7.4 5.4-12.3 11.2-4 4.7-9.5 7.3-15.5 9.2-8.2 2.5-20.7 3.2-20.7 3.2s6.2 2.7 11.4 4.3c12.6 3.8 18.7 5.9 32.9 7.3 10.9 1 22.1 2.1 22.7-2.1 0 0 0 .2 0 0zM1072.2 338.1a53.2 53.2 0 00-3-46.6 66.8 66.8 0 00-46.7-35.8s.2 8.7.5 11.2c1.4 10.6 3 21.7 9.5 28.9 6 6.8 13.8 10.1 21.8 14.5 22.3 12.5 17.9 27.8 17.9 27.8zM956.6 438.5s41.4-2.1 56.9 28.5c16.6 32.6 32.9 43.6 32.9 43.6s-33.7 4.6-49.6-14.7c-16.2-19.3-9-38.7-40.2-57.4zM1722.5 361.2s-8.1-21.3 2.2-35.4c8.1-11.2 27.2-13.9 44.3-12 11.5 1.3 26.2-6.2 26.2-6.2s0 17.1-18.7 22.5c-10.4 3-19.6-1.6-34 8.1-18.7 12.4-20 23-20 23zM1298 371.8a54 54 0 013-46.6c13.6-26.1 46.6-31.1 46.6-31.1s-2.8 21.3-13.1 33.5c-5.9 7-16.1 9.5-23.2 15.2-17 13.3-13.3 29-13.3 29zM1638.5 402.8c-1.3-.9-53.8-19.8-6.5-58.3l32.4-26.1s1.1 28.9-19.3 47.9c-20.2 18.4-6.6 36.5-6.6 36.5zM1115.8 402.8c-1.3-.9-53.8-19.8-6.5-58.3l32.4-26.1s1.1 28.9-19.3 47.9c-20 18.4-6.6 36.5-6.6 36.5zM1581.6 515.2s18.3-28.3 49.6-30.7c26.2-2.1 59 13.1 59 13.1s-25.6 21.3-58 17.9c-23.4-2.5-30.2-10.3-50.6-.3zM941.7 241.8c-4.1 0-4.4 11.4-4.9 22.1-.5 14.2.8 20.4 2.8 33.5.8 5.4 2.7 11.9 2.7 11.9s2.2-12.3 5.9-20.2a32 32 0 0111.1-14.2c6.3-4 13.1-6.8 12.8-10.6-.8-4.4-6.8-4.6-7.6-5.4-.5-.5-.8-1.1.3-2.2 2.2-1.9 4.7-3.6 7.3-4.9 6.6-3.5 18.2-7 18-11.2-.2-5.1-7.3-4.7-8.9-5.7-1.7-.9-3.2-3.6 2.2-5.5 4.9-1.7 11.4-2.5 15.7-4.3 4.3-1.6 9.6-6.2 7.4-9.2-2.4-3-10.3.5-9.2-4.4.6-2.7 9.2-9 13.6-12.2 5.7-4.1 9.8-10.8 4.9-15.2-6.6-5.4-22.3 6.6-27.5 11.7-5.2 5.1-7.3 6.6-8.2 3.6-1.4-8.4-4.7-10.3-8.5-4.3-3.8 6-5.7 15.7-7.3 21.2-1.6 5.5-3.3 6.3-4.6 5.4-1.3-.9-1.6-7.4-3.8-7.7-2.1-.5-6.5 3.2-8.4 19.3-.5 4.6-.3 11.5-.3 12.3-.2 1.3-.8 2.5-1.6 1.9-1.3-1-1.6-5.5-3.9-5.7zM1508.1 358.3c2.1-.5 2.1-4.9 3.3-5.9.8-.6 1.4.6 1.7 1.7.2.8.5 7.7 1.3 12.3 3 16 7.6 19.1 9.6 18.5 2.1-.6 1.9-7 3.2-8.1 1.3-1.1 2.8-.3 4.9 4.9 2.1 5.4 4.6 14.9 8.9 20.6 4.3 5.7 7.3 3.5 8.1-5.1.6-3.2 2.8-1.7 8.4 2.8 5.5 4.6 21.8 15.3 28 9.6 4.4-4.7-.2-11.1-6-14.7-4.4-3-13.4-8.5-14.2-11.2-1.4-4.7 6.6-1.9 8.7-5.1 2.1-3.2-3.6-7.3-7.9-8.5-4.3-1.3-10.8-1.7-15.7-3-5.4-1.4-4.1-4.3-2.5-5.4 1.4-1.1 8.5-1.3 8.4-6.3-.2-4.3-11.9-7-18.7-9.8a40 40 0 01-7.4-4.4c-1.1-.9-.9-1.7-.5-2.2.8-.8 6.6-1.6 7.1-6 0-3.8-6.8-6.2-13.3-9.6-5.5-2.8-9-7.7-12-13.3-4.1-7.4-7.1-19.1-7.1-19.1s-1.4 6-1.9 11.5c-.9 13.3-1.7 19.6-.2 33.7.6 11.1 1.7 22.4 5.8 22.1z" class="st3"/><path d="M1456.2 252.7a151 151 0 00-20.2 64.2c-.3-2.8-.3-6.8-.5-9.8a148.1 148.1 0 0119-55.5l1.7 1.1zM1019.7 498.4c-9-4.3-12.6-11.7-16.8-20.4-3-6.3-6.5-13.6-12.8-20.6-17.1-18.4-55.8-22.5-56.1-22.5l.3-2.4c1.6.2 40 4.3 57.7 23.4 6.6 7.1 10.1 14.5 13.3 21 4 8.2 7.3 15.3 15.5 19.1l-1.1 2.4zM942.2 327.5c-.9-7.4-4.6-45.5 8.5-73.7a159.6 159.6 0 0145.5-54.6l1.4 1.9c-.3.2-29.6 21.3-44.7 53.8-13 27.5-9.2 65.1-8.4 72.4l-2.3.2zM1687.2 209.2a183 183 0 01-43.6-5.7l.6-2.4c7.1 1.9 43.8 10.6 72.9 1.6 34.2-10.6 59-36.7 59.3-37l1.7 1.6c-.3.3-25.6 26.7-60.2 37.6-9.9 3.2-20.7 4.3-30.7 4.3zM1565 396.4c-.3-.2-31.1-19.3-48.9-50.9a116.5 116.5 0 01-13.1-49.9l1.4-7.4c.8 15.3 4 38.7 13.8 56.3 17.4 31 47.8 50 48.1 50.1l-1.3 1.8zM1076 316c-.2-1.9-.3-4-.6-5.9a165.3 165.3 0 00-40.5-39.7l-1.3 1.9c.2.2 30.7 21.2 42.4 43.7zM1127.4 339.2l-18.7 17.9c-11.1 10.4-15 21-12 33.4a36 36 0 003.5 3.2c-4.6-13.1-1.4-23.9 10.3-34.8l18.7-17.9-1.8-1.8zM1648.5 342.8l-18.7 17.9c-9 8.5-13.3 17.1-13 26.6.8 1.1 1.7 2.1 2.7 3-1.4-10.1 2.4-19 12-28l18.7-17.9-1.7-1.6zM1294.8 343.6c-.3 2.1-.6 4.1-.6 6.2 11.4-23.4 38.9-39.2 39.2-39.4l-1.1-2.1a117.7 117.7 0 00-37.5 35.3zM1739.3 325.6c10.9-5.4 28.1-3.5 28.3-3.5l.3-2.4a61 61 0 00-29.7 3.6 44.5 44.5 0 00-18.7 17.4 20 20 0 000 4.9 45.6 45.6 0 0119.8-20zM1569.9 527.2l-1.9-1.4c.3-.3 6.3-8.2 16.6-14.5 5.7-3.5 12-6.3 20.1-9.2 22-7.4 54.4-4.9 55.8-4.7l-.2 2.4c-.3 0-33.4-2.7-54.9 4.7a90 90 0 00-19.6 8.9c-9.7 5.9-15.7 13.8-15.9 13.8z" class="st1"/></svg>