<svg xmlns="http://www.w3.org/2000/svg" viewBox="0 0 100 100">
  <path d="M69.27 56l8.09-8.19 3.21-3.15c2.21-2.18 5.83-2.08 7.85.27.02.02.04.04.06.07 1.8 2.14 1.64 5.31-.34 7.28l-2.7 2.7L60.3 79.07c-.91.87-2.12 1.36-3.38 1.36H33.26c-.47 0-.92.18-1.27.49l-7.12 6.49c-.21.19-.54.18-.74-.02l-13.71-13.9c-.21-.21-.2-.55.01-.75L25.86 57.8a9.342 9.342 0 016.45-2.62l30.44-.09h2.88c2.54 0 4.75 1.85 5.07 4.36l.03.25c.24 2.85-2 5.31-4.86 5.45l-3.12.16H45.86M47.59 44.96c-8.98-8.98-8.98-23.53 0-32.51 8.98 8.98 8.98 23.53 0 32.51z"/>
  <path d="M54.33 28.52a22.93 22.93 0 0116.26-6.74c0 12.7-10.29 23.18-22.99 23.18"/>
</svg>
