<svg xmlns="http://www.w3.org/2000/svg" viewBox="0 0 100 100">
  <path d="M71.38 51.11V9.96H13.33V76.6l.02-2.07M19.58 16.2h21.6M19.58 26.16h45.55M19.58 36.12h45.55M19.58 46.07h45.55M19.58 56.03h33.81M19.58 65.99h27.97M71.38 51.11v-8.28"/>
  <path d="M13.33 42.83v39.61c0 1.74 1.3 3.15 2.91 3.15h38.24"/>
  <circle cx="66.95" cy="70.33" r="19.72"/>
  <path d="M62.26 75.84c.9 1.4 2.39 2.76 5 2.76 2.25 0 4.28-1.48 4.28-3.92 0-2.01-1.21-3.09-2.76-3.82-2.59-1.18-6.14-1.74-6.14-5.05 0-2.85 2.44-4.06 4.3-4.16v-2.56h.48v2.54c1.93.07 3.17.99 3.87 1.69l-.31.34c-1.09-1.14-2.42-1.6-3.79-1.6-1.69 0-4.06 1.14-4.06 3.75 0 3 3.26 3.48 5.78 4.62 1.72.77 3.12 1.93 3.12 4.28 0 2.54-2.03 4.23-4.59 4.33v2.54h-.48v-2.54c-2.2-.07-3.77-.99-5.08-2.9l.38-.3z"/>
</svg>
