<svg xmlns="http://www.w3.org/2000/svg" viewBox="0 0 100 100">
  <g id="Layer_1">
    <circle cx="50.24" cy="50" r="23.17"/>
    <path d="M50.24 76.22c-2.12 0-4.17-.28-6.15-.75l6.62 13.99 6.49-14.2c-2.21.6-4.54.96-6.96.96zM51.06 23.78c2.12 0 4.17.28 6.15.75l-6.62-13.99-6.49 14.2c2.22-.6 4.55-.96 6.96-.96zM23.55 49.71c0-2.12.28-4.17.75-6.15l-13.99 6.62 14.2 6.49c-.61-2.22-.96-4.55-.96-6.96zM76.45 50.53c0 2.12-.28 4.17-.75 6.15l13.99-6.62-14.2-6.49c.61 2.21.96 4.54.96 6.96zM69.38 31.96c1.5 1.5 2.75 3.15 3.81 4.88l5.21-14.57-14.63 5.45c2.01 1.13 3.91 2.53 5.61 4.24zM31.65 68.53c-1.5-1.5-2.75-3.15-3.81-4.88l-5.21 14.57 14.63-5.45c-2-1.13-3.9-2.53-5.61-4.24zM68.68 69.11c-1.5 1.5-3.15 2.75-4.88 3.81l14.57 5.21-5.44-14.63c-1.14 2.01-2.54 3.9-4.25 5.61zM32.17 31.44c1.5-1.5 3.15-2.75 4.88-3.81l-14.57-5.21 5.45 14.63c1.14-2 2.53-3.9 4.24-5.61z"/>
  </g>
</svg>
