<svg xmlns="http://www.w3.org/2000/svg" viewBox="0 0 100 100">
  <circle cx="49.95" cy="31.54" r="11.39"/>
  <path d="M39.45 66.03H25.93c0-13.29 9.97-20.07 23.26-20.07 4.35 0 8.52.73 12.16 2.17 5.12 2.03 9.19 5.48 11.25 10.33.95 2.23 1.47 4.76 1.47 7.57H48.18"/>
  <circle cx="26.85" cy="35.35" r="7.63"/>
  <path d="M27.21 58.45H10.75c0-8.91 6.68-13.45 15.58-13.45 4.24 0 8.22 1.03 11.22 3.07"/>
  <g>
    <circle cx="73.09" cy="35.35" r="7.63"/>
    <path d="M61.64 48.24c2.77-2.15 6.59-3.23 10.94-3.23 8.91 0 16.67 4.54 16.67 13.45H72.6"/>
  </g>
  <path d="M57.21 79.86c-1.02-.12-1.49-.4-2.08-.68-8.25-3.98-14.37-10.09-18.36-18.33-.91-1.88-.65-3.28.83-4.79 1.04-1.06 2.09-2.11 3.15-3.15.94-.91 1.69-.91 2.63 0 .95.92 1.9 1.86 2.82 2.81.87.89.86 1.64.03 2.55-.16.17-.33.33-.5.5-1.86 1.86-1.86 1.86-.47 4.08 2.27 3.62 5.3 6.42 9 8.53.8.46 1.36.56 1.97-.25.42-.56.97-1.01 1.48-1.5.78-.76 1.59-.78 2.37-.02 1.06 1.03 2.12 2.08 3.14 3.15.71.74.72 1.55 0 2.29-1.22 1.26-2.43 2.55-3.76 3.69-.63.55-1.31 1.12-2.25 1.12z"/>
</svg>
