<svg xmlns="http://www.w3.org/2000/svg" viewBox="0 0 100 100">
  <path d="M66.59 81.2H33.41c-2.34 0-4.24-1.9-4.24-4.24V23.07c0-2.34 1.9-4.24 4.24-4.24H66.6c2.34 0 4.24 1.9 4.24 4.24v53.89a4.25 4.25 0 01-4.25 4.24z"/>
  <path d="M31.75 19.17l13.94-7.77c.77-.43 1.63-.65 2.51-.65h4.19c.91 0 1.8.24 2.58.69l13.74 7.97M31.75 80.83l13.94 7.77c.77.43 1.63.65 2.51.65h4.19c.91 0 1.8-.24 2.58-.69l13.74-7.97M65.13 78.54H34.87c-1.43 0-2.6-1.16-2.6-2.6V24.08c0-1.43 1.16-2.6 2.6-2.6h30.26c1.43 0 2.6 1.16 2.6 2.6v51.86c0 1.44-1.17 2.6-2.6 2.6z"/>
</svg>
