<svg xmlns="http://www.w3.org/2000/svg" viewBox="0 0 22 21">
    <path d="M11.175 1.895c2.803 0 3.135.01 4.242.06 1.023.047 1.58.219 1.949.362.49.19.84.418 1.207.785.367.368.595.717.785 1.207.144.37.315.926.362 1.95.05 1.106.06 1.438.06 4.241s-.01 3.135-.06 4.242c-.047 1.023-.218 1.579-.362 1.949-.19.49-.418.84-.785 1.207a3.252 3.252 0 01-1.207.785c-.37.143-.926.314-1.95.361-1.106.05-1.438.061-4.24.061-2.804 0-3.136-.01-4.242-.06-1.024-.048-1.58-.219-1.95-.362-.49-.19-.839-.418-1.206-.785a3.252 3.252 0 01-.785-1.207c-.144-.37-.315-.926-.362-1.95-.05-1.106-.061-1.438-.061-4.241s.01-3.135.061-4.242c.047-1.023.218-1.579.362-1.949.19-.49.417-.84.785-1.207a3.252 3.252 0 011.207-.785c.37-.143.925-.315 1.949-.361 1.107-.05 1.439-.061 4.241-.061m0-1.892c-2.85 0-3.208.012-4.327.063C5.73.117 4.968.295 4.3.554a5.145 5.145 0 00-1.86 1.211 5.145 5.145 0 00-1.21 1.86c-.26.667-.437 1.43-.488 2.547C.69 7.292.679 7.65.679 10.5c0 2.85.012 3.208.063 4.328.05 1.117.228 1.88.488 2.548.268.69.627 1.275 1.21 1.859a5.145 5.145 0 001.86 1.21c.667.26 1.43.438 2.548.489 1.12.05 1.477.063 4.327.063 2.851 0 3.209-.012 4.328-.063 1.117-.051 1.88-.229 2.548-.488a5.145 5.145 0 001.86-1.211 5.145 5.145 0 001.21-1.86c.26-.667.437-1.43.488-2.547.051-1.12.063-1.477.063-4.328 0-2.85-.012-3.208-.063-4.328-.051-1.117-.229-1.88-.488-2.548a5.145 5.145 0 00-1.21-1.859 5.145 5.145 0 00-1.86-1.21c-.668-.26-1.43-.438-2.548-.489-1.12-.05-1.477-.063-4.328-.063M11.175 5.11a5.39 5.39 0 100 10.78 5.39 5.39 0 000-10.78zm0 8.889a3.499 3.499 0 110-6.998 3.499 3.499 0 010 6.998zM18.038 4.897a1.26 1.26 0 11-2.52 0 1.26 1.26 0 012.52 0"/>
</svg>
