<svg xmlns="http://www.w3.org/2000/svg" viewBox="0 0 21 21">
  <path fill="#fff" d="M14.06 11.92c.39 0 .72.19 1 .58.28.38.43.86.43 1.42 0 .56-.14 1.04-.43 1.42-.28.38-.62.58-1 .58-.41 0-.76-.19-1.05-.58-.28-.38-.42-.86-.42-1.42s.14-1.04.42-1.42c.29-.39.64-.58 1.05-.58zm5.03-5.2c1.1 1.19 1.65 2.63 1.65 4.32 0 1.1-.13 2.08-.38 2.96-.25.87-.57 1.59-.96 2.14s-.86 1.04-1.43 1.44c-.57.42-1.09.72-1.56.91-.47.19-1.01.34-1.63.45-.61.11-1.06.16-1.38.18-.31.01-.64.02-1 .02-.08 0-.35.01-.8.02-.44.02-.82.03-1.11.03-.29 0-.67-.01-1.11-.03-.45-.01-.72-.02-.8-.02-.36 0-.7 0-1-.02-.32-.02-.78-.07-1.38-.18-.62-.1-1.16-.25-1.63-.45-.47-.19-.99-.49-1.56-.91a6.3 6.3 0 01-1.43-1.44C1.2 15.59.88 14.88.62 14c-.25-.88-.38-1.86-.38-2.96 0-1.69.55-3.13 1.65-4.32-.1-.06-.11-.66 0-1.78.1-1.13.34-2.17.73-3.12 1.37.14 3.06.92 5.07 2.32.68-.18 1.62-.27 2.8-.27 1.25 0 2.18.09 2.81.27.92-.62 1.8-1.13 2.64-1.52.85-.38 1.47-.61 1.85-.67l.58-.13c.39.95.63 1.99.73 3.12.11 1.12.11 1.72-.01 1.78zm-8.54 11.43c2.46 0 4.32-.3 5.58-.89 1.26-.59 1.9-1.81 1.9-3.65 0-1.07-.4-1.96-1.2-2.67-.41-.39-.9-.62-1.45-.71-.54-.09-1.38-.09-2.51 0s-1.9.13-2.31.13c-.56 0-1.18-.03-1.94-.09s-1.36-.09-1.78-.11c-.44-.01-.9.04-1.4.16-.51.12-.92.32-1.25.62-.77.69-1.16 1.58-1.16 2.68 0 1.84.62 3.06 1.87 3.65 1.24.6 3.1.89 5.56.89h.09zm-3.56-6.23c.39 0 .72.19 1 .58.28.38.42.86.42 1.42 0 .56-.14 1.04-.42 1.42-.28.38-.62.58-1 .58-.42 0-.77-.19-1.05-.58-.28-.38-.42-.86-.42-1.42s.14-1.04.42-1.42c.28-.39.63-.58 1.05-.58z"/>
</svg>
