<svg xmlns="http://www.w3.org/2000/svg" viewBox="0 0 20 17">
  <path fill="#FFF" fill-rule="evenodd" d="M17.996 4.064C18.255 9.851 13.941 16.3 6.303 16.3A11.59 11.59 0 010 14.449a8.247 8.247 0 006.088-1.705 4.11 4.11 0 01-3.84-2.859c.645.12 1.282.086 1.86-.069C2.126 9.42.765 7.638.808 5.726c.551.31 1.189.49 1.86.517A4.119 4.119 0 011.395.749a11.637 11.637 0 008.473 4.305C9.265 2.48 11.22 0 13.872 0c1.18 0 2.256.5 3.005 1.3a8.047 8.047 0 002.609-.999 4.102 4.102 0 01-1.808 2.274 8.245 8.245 0 002.359-.646 8.031 8.031 0 01-2.04 2.135z"/>
</svg>
