<svg xmlns="http://www.w3.org/2000/svg" viewBox="0 0 22 16">
  <defs/>
  <path fill="#FFF" fill-rule="evenodd" d="M21.305 3.305c-.263-1.141-1.197-1.984-2.32-2.11-2.663-.297-5.358-.298-8.04-.297-2.684-.001-5.38 0-8.043.297-1.123.126-2.057.969-2.32 2.11C.209 4.932.205 6.707.205 8.382c0 1.674 0 3.448.373 5.074.264 1.142 1.197 1.984 2.32 2.11 2.664.298 5.359.3 8.041.298 2.684.001 5.38 0 8.041-.298 1.125-.126 2.059-.967 2.32-2.11.375-1.626.376-3.4.376-5.074.001-1.675.004-3.45-.37-5.077zm-13.136 8.41V4.612c2.275 1.188 4.536 2.368 6.827 3.562l-6.827 3.54z" opacity=".8"/>
</svg>
