<svg xmlns="http://www.w3.org/2000/svg" viewBox="0 0 100 100">
  <path d="M72.42 18.53c0-4.57-3.7-8.27-8.27-8.27-2.74 0-5.14 1.35-6.65 3.39-2.05-.82-4.28-1.28-6.62-1.28-2.73 0-5.31.63-7.63 1.73-1.47-2.3-4.03-3.84-6.97-3.84-4.57 0-8.27 3.7-8.27 8.27 0 3.57 2.28 6.59 5.45 7.75-.29 1.28-.46 2.6-.46 3.96 0 9.87 8 17.87 17.87 17.87s17.87-8 17.87-17.87c0-1.56-.22-3.07-.6-4.51 2.54-1.42 4.28-4.1 4.28-7.2zM61.96 69.41c4.69 0 8.5 4.55 8.5 10.17s-3.81 10.17-8.5 10.17-8.5-4.55-8.5-10.17 3.81-10.17 8.5-10.17zm4.12-24.26c1.56-.16 3.44.12 5.49.87 4.41 1.61 10.56 8.25 10.56 13.87s-3.81 10.17-8.5 10.17c-.47 0-.9-.05-1.29-.16m-33.21-.49c4.69 0 8.5 4.55 8.5 10.17s-3.81 10.17-8.5 10.17-8.5-4.55-8.5-10.17 3.81-10.17 8.5-10.17zm-4.8-24.2c-1.64-.26-3.66 0-5.89.82-4.41 1.61-10.56 8.25-10.56 13.87s3.81 10.17 8.5 10.17c.59 0 1.11-.09 1.59-.24m15.27-37.76c.56 0 1.02.46 1.02 1.02s-.46 1.02-1.02 1.02-1.02-.46-1.02-1.02.46-1.02 1.02-1.02zm14.04 0c.56 0 1.02.46 1.02 1.02s-.46 1.02-1.02 1.02-1.02-.46-1.02-1.02.46-1.02 1.02-1.02zm-9.38 6.38h4.53l-2.24 2.24-2.29-2.24zm3.04-26.03c9.84 0 17.82 7.98 17.82 17.82s-7.98 17.82-17.82 17.82-17.82-7.98-17.82-17.82 7.98-17.82 17.82-17.82z"/>
</svg>
