<svg xmlns="http://www.w3.org/2000/svg" viewBox="0 0 100 100">
  <path d="M51.11 33.54l28.04 55.54-46.88-22.99L61.13 53.4"/>
  <path d="M38.61 53.35l28.94 12.77-46.7 22.96 27.69-55.7"/>
  <circle cx="49.84" cy="30.24" r="3.43"/>
  <path d="M39.68 35.46c-.81-1.56-1.26-3.34-1.26-5.22 0-6.31 5.11-11.42 11.42-11.42s11.42 5.11 11.42 11.42c0 1.9-.47 3.7-1.29 5.27"/>
  <path d="M35.62 43.31c-3.17-3.44-5.1-8.03-5.1-13.08 0-10.67 8.65-19.32 19.32-19.32s19.32 8.65 19.32 19.32c0 5.06-1.94 9.66-5.13 13.11"/>
</svg>
