<svg xmlns="http://www.w3.org/2000/svg" viewBox="0 0 100 100">
  <path d="M22.17 10.79h55.66c6.29 0 11.38 5.1 11.38 11.38v55.66c0 6.29-5.1 11.38-11.38 11.38H22.17c-6.29 0-11.38-5.1-11.38-11.38V22.17c0-6.28 5.1-11.38 11.38-11.38zM50 89.11V60.89"/>
  <circle cx="50" cy="56.73" r="4.13"/>
  <path d="M74.69 11.02v33.43l-5.14 8.14"/>
  <circle cx="69.55" cy="56.73" r="4.13"/>
  <path d="M88.25 81.52h-6.43l-8.15-5.14"/>
  <circle cx="69.53" cy="76.38" r="4.13"/>
  <path d="M25.18 10.9v33.42l5.14 8.15"/>
  <circle cx="30.32" cy="56.6" r="4.13"/>
  <path d="M11.94 81.45h5.81l8.15-5.14"/>
  <circle cx="30.03" cy="76.31" r="4.13"/>
  <path d="M40.13 10.84v15.55"/>
  <circle cx="40.13" cy="30.54" r="4.13"/>
  <path d="M59.87 10.84v23.35"/>
  <circle cx="59.87" cy="38.34" r="4.13"/>
</svg>
