<svg xmlns="http://www.w3.org/2000/svg" viewBox="0 0 100 100">
  <path d="M36.29 89.37s-28-5.57-10.18-46.78c1.83 5.67 5.53 5.23 6.75 5.49 1.19-7.84 8.06-13.55 10.91-20.94 1.01-2.62 1.48-5.44 1.41-8.24-.07-2.82-1.55-5.44-1.49-8.26 10.01 0 19.87 14.26 18.4 23.5-.46 2.89-2.07 5.23-3.52 7.69-1.42 2.41-3.03 4.92-2.61 7.86.46 3.16 3.45 5.68 6.64 5.83 6.05.3 10.65-6.75 7.16-11.94 13.55 11.99 12.98 32.73 1.01 45.78"/>
  <path d="M42.76 89.13c-2.82-3.4-5.45-7.43-5.22-11.84.15-2.8 1.44-5.39 2.49-7.99 1.29-3.2 1.61-6.07.95-9.44 3.93 1.33 6.51 4.86 8.49 8.31 1.68 2.92 2.43 7.44 5.14 9.54 2.02 1.57 5.07 1.32 7.17-.14 2.12-1.47 2.94-3.69 3.99-5.9 3.89 5.64.95 13.81-4.27 17.42"/>
</svg>
