<svg xmlns="http://www.w3.org/2000/svg" viewBox="0 0 100 100">
  <path d="M14.65 25.51h11.37V52.2H14.65z" transform="rotate(19.999 20.33 38.86)"/>
  <circle cx="17.89" cy="47.65" r="1.3"/>
  <path d="M72.8 25.99h11.37v26.69H72.8z" transform="rotate(-26.824 78.484 39.326)"/>
  <circle cx="83.23" cy="47.13" r="1.3"/>
  <path d="M30.23 28.26s5.1 1.75 8.76-.54c.86-.54 1.92-.66 2.88-.32l21.96 7.62s-.98 5.9-5.7 4.62l-9.5-3.39s-4.06 12.12-15.87 7.81M79.43 53.8s-8.26 8.03-13.53 10.56c-5.27 2.53-20.04 10.75-20.04 10.75M42.76 69.04c-.92.6-2.07 2.03-2.07 3.21 0 1.87 1.51 3.38 3.38 3.38a3.4 3.4 0 001.79-.51M34.58 66.18a3.2 3.2 0 00-1.47 2.68c0 1.76 1.43 3.18 3.18 3.18.47 0 1.2-.3 1.6-.48"/>
  <path d="M30.96 60.83c-.86.58-1.79 1.43-2 2.74-.28 1.76 1.36 3.35 3.14 3.35.8 0 1.83-.41 2.49-.74M29.75 54.27a3.237 3.237 0 00-2.02 2.99c0 1.78 1.45 3.23 3.23 3.23.56 0 1.69-.49 2.15-.74M29.38 54.44l7.46-3.49M37.89 71.56l14.92-7.73M34.58 66.18l16.36-8.28M30.96 60.83l15.78-7.89"/>
</svg>
