<svg xmlns="http://www.w3.org/2000/svg" viewBox="0 0 100 100">
  <path d="M22.65 69.03c-2.88 0-5.21-2.33-5.21-5.21v-18.3c0-2.88 2.33-5.21 5.21-5.21s5.21 2.33 5.21 5.21v18.3c0 2.88-2.33 5.21-5.21 5.21z"/>
  <path d="M17.44 45.28c-3.85 1.4-6.62 5.06-6.62 9.4s2.77 7.99 6.62 9.4M77.35 40.32c2.88 0 5.21 2.33 5.21 5.21v18.3c0 2.88-2.33 5.21-5.21 5.21s-5.21-2.33-5.21-5.21v-18.3c0-2.88 2.33-5.21 5.21-5.21zM82.56 64.07c3.85-1.4 6.62-5.06 6.62-9.4s-2.77-7.99-6.62-9.4"/>
  <path d="M76.79 40.32c0-14.91-12.08-26.79-26.99-26.79S22.65 25.41 22.65 40.32M22.65 69.54c0 7.45 6.2 12.76 13.65 12.76"/>
  <circle cx="40.47" cy="82.3" r="4.17"/>
</svg>
