<svg xmlns="http://www.w3.org/2000/svg" viewBox="0 0 100 100">
  <path d="M49.86 23.39c1.5-1.79 2.85-3.77 4.55-5.37 4.5-4.22 10.02-5.61 16.06-5.1 10.56.88 17.06 8.53 18.85 18.08 1.27 6.8-.25 13.07-3.4 19.07-3.67 6.99-8.67 12.97-14.15 18.58-6.5 6.66-13.61 12.63-21.14 18.09-.18.13-.37.24-.67.43-2.14-1.63-4.33-3.23-6.45-4.92-7.77-6.16-15.08-12.81-21.42-20.48-4.28-5.18-8.07-10.68-10.29-17.1-2.51-7.28-2.04-14.41 1.58-21.18 3.72-6.95 9.75-10.45 17.57-10.64 8.3-.2 14.75 3.14 18.9 10.52.04.09.12.14.01.02z"/>
</svg>
