<svg xmlns="http://www.w3.org/2000/svg" viewBox="0 0 100 100">
  <circle cx="24.51" cy="43.37" r="6.54"/>
  <path d="M24.07 51.65c7.63 0 14.28 3.89 14.28 11.52H10.72c0-7.63 5.72-11.52 13.35-11.52z"/>
  <circle cx="75.44" cy="43.37" r="6.54"/>
  <path d="M75 51.65c7.63 0 14.28 3.89 14.28 11.52H61.65c0-7.63 5.72-11.52 13.35-11.52zM74.87 29.98c-5.48-7.85-14.57-13-24.87-13s-19.39 5.15-24.87 13M25.13 70.02c5.48 7.85 14.57 13 24.87 13s19.39-5.15 24.87-13"/>
  <path d="M75.24 74.95l-.28-5.13-4.92 1.48M24.76 24.93l.29 5.12 4.91-1.47"/>
</svg>
