<svg xmlns="http://www.w3.org/2000/svg" viewBox="0 0 100 100">
  <g id="Layer_1">
    <path d="M55.13 42.62l-2.88-2.88c-.59-.59-1.55-.59-2.14 0L39.77 50.08c-.59.59-.59 1.55 0 2.14l2.88 2.88 2.12-2.12 3.27 3.27-2.12 2.12 30 30c.59.59 1.55.59 2.14 0L88.4 78.03c.59-.59.59-1.55 0-2.14l-30-30-2.12 2.12-1.62-1.62-1.65-1.65 2.12-2.12zM20.65 17.75l25.73 25.72-2.88 2.88-25.7-25.7"/>
    <path d="M20.92 16.17l-.69 4.03-4.09.75-4.58-4.58a1.43 1.43 0 010-2.01l2.77-2.77a1.43 1.43 0 012.01 0l4.58 4.58zM56.23 56.2l22.46 22.46M39.21 51.66L26.83 64.05c-4.28-1.12-9.01-.06-12.37 3.29-3.52 3.52-4.52 8.55-3.11 12.99l7.97-7.97 7.21 1.01 1.11 7.31-7.97 7.97c4.44 1.41 9.47.41 12.99-3.11 3.35-3.35 4.42-8.09 3.29-12.37l12.38-12.38M61.04 48.09l12.14-12.14c4.28 1.12 9.01.06 12.37-3.29 3.52-3.52 4.52-8.55 3.11-12.99l-7.97 7.97-7.21-1.01-1.11-7.31 7.97-7.97c-4.44-1.41-9.47-.41-12.99 3.11-3.35 3.35-4.42 8.09-3.29 12.37L51.52 39.36"/>
  </g>
</svg>
