<svg xmlns="http://www.w3.org/2000/svg" viewBox="0 0 100 100">
  <g id="Layer_1">
    <circle cx="34.02" cy="67.96" r="5.86"/>
    <circle cx="75.04" cy="67.96" r="5.86"/>
    <path d="M36.29 26.17h53.32v31.2H36.29z"/>
    <path d="M36.29 33.12H26.11c-2.24 0-4.31 1.2-5.43 3.14l-9.7 16.87c-.39.68-.6 1.45-.6 2.23v9.38c0 1.78 1.45 3.23 3.23 3.23h14.55c0-3.24 2.62-5.86 5.86-5.86s5.86 2.62 5.86 5.86h29.29c0-3.24 2.62-5.86 5.86-5.86s5.86 2.62 5.86 5.86h8.72v-10.6H36.29V33.12z"/>
    <path d="M30.01 33.12v15.56H13.54"/>
  </g>
</svg>
