<svg xmlns="http://www.w3.org/2000/svg" viewBox="0 0 300 300"><circle cx="150.1" cy="150.4" r="142.5" fill="#369"/><path fill="#fff" d="M114 104.5l1-2.3c2.5-7.1 6-13.7 9.8-20.2A64 64 0 01165 53.2a134 134 0 0125.1-4.8c5.9-.5 11.8-.1 17.8-.2h.3c1.3.3 2-.1 2.6-1.4a9.9 9.9 0 0111.1-5.4c4.3.9 7.8 4.8 8 9.2a10.2 10.2 0 01-18.5 6.5c-.6-.9-1.1-1.1-2.2-.9a86.3 86.3 0 00-22.7 7.4A40.8 40.8 0 00171.9 75a78.3 78.3 0 00-7.4 12.1 60.3 60.3 0 00-6.4 17.5l-.2 1.4v2.5l6.2-1c7.4-1.3 14.9-2.3 22.4-2.1 7.9.3 14.7 3.2 20.2 9 3 3.1 5.9 6.4 8.7 9.7 1.6 1.9 3 4.1 4.4 6.2l.6 1c.8 1.3 1.6 2 3.5 1.8 5.7-.7 9.9 4.1 10 9a9.4 9.4 0 01-18.7.7v-.9c.1-1.5.7-3 1.2-5-1.1-1-2.3-2.5-3.9-3.7a73.4 73.4 0 00-14.9-9.1c-.7-.3-1.5-.5-2.2-.5-6.5-.2-12.7.7-18.4 4-.9.5-1.6 1.1-1.7 2.2l-.2 3.3V144c0 .9-.3 1.2-1.1 1.3l-2.8.1-22.6-.2c-1.7 0-2 .3-2.1 2-.2 6-.5 12.1-.5 18.1-.1 11.2 0 22.4.1 33.7 0 7.2 1.1 14.3 3.6 21.2 1.7 4.7 4.6 8.5 9.1 10.6 2.6 1.2 5.5 1.8 8.3 2.3 5.5 1.1 11-.1 16.4-1l5.5-1.2-.3 2.9-2.1 23.2c-.1.9-.5 1.4-1.3 1.7a51.1 51.1 0 01-11.6 3.2 93 93 0 01-17.5 1.2 64 64 0 01-19.3-3.6 36.5 36.5 0 01-17.7-13.5 48 48 0 01-6.9-16.7c-1.5-5.9-1.9-12-2.5-18-.9-10.5-.6-21-.6-31.4l.3-31.8c0-2.6 0-2.6-2.6-2.6H91c-1.6 0-1.9-.1-1.9-1.8 0-2.9.1-5.8 0-8.7-.1-4.1-.2-8.2-.6-12.2a8.8 8.8 0 00-1.4-3.8c-3.8-5.7-8.8-10-15.3-12.2-4-1.4-8.4-1.6-12.5-.6a23 23 0 00-15.8 13.9l-.6 1.5a9 9 0 013.5 5.6 8.8 8.8 0 01-17.2 3.8 8.8 8.8 0 016.4-10.7c1-.2 1.2-.7 1.3-1.5.8-4.8 1.8-9.5 4-13.8 3.8-7.6 9.4-13 17.3-16.4A44 44 0 0175 85c3.2-.1 6.4.7 9.6 1.1 7.7 1 13.8 5.2 19.4 10.3 3.5 2.4 6.7 5.2 10 8.1z"/></svg>