<svg xmlns="http://www.w3.org/2000/svg" viewBox="-13.5 -22.5 1466 1481"><defs><style>.cls-1{fill:#369}</style></defs><circle cx="720" cy="546.3" r="540" class="cls-1"/><path fill="#fff" d="M583.3 372.3c1.6-3.5 2.9-6 3.8-8.5a407 407 0 0137.2-76.4 241 241 0 0187.2-83.8 285.2 285.2 0 0165.2-25.4 501.6 501.6 0 0195.2-18.3c22.3-2 44.9-.6 67.3-.7a6 6 0 011.3.1c4.8 1 7.5-.5 9.7-5.4a37.8 37.8 0 0142.2-20.5 38.7 38.7 0 0130.5 35 38.5 38.5 0 01-25.7 39 38 38 0 01-44.3-14.6c-2.3-3.5-4.2-4.3-8.3-3.5a330.7 330.7 0 00-86 27.8 156 156 0 00-55.5 43A310.2 310.2 0 00775 306a238 238 0 00-24.4 66.3 38 38 0 00-.8 5.4v9.4c8.1-1.3 15.8-2.5 23.4-4 28-5 56.4-8.7 85-7.8 29.8 1 55.8 12.3 76.6 34a722.2 722.2 0 0132.9 36.7c6.2 7.3 11.2 15.6 16.7 23.5l2.5 3.8c3 5 6 7.6 13.2 6.8 21.7-2.5 37.4 15.6 38 34a35.5 35.5 0 11-71-1c.4-5.7 2.8-11.4 4.7-19-4-3.9-8.9-9.5-14.6-14a269 269 0 00-56.6-34.4 23.3 23.3 0 00-8.5-1.9c-24.5-.7-48.1 2.8-69.9 15.2-3.5 2-6.1 4.2-6.3 8.4-.2 4.2-.6 8.4-.7 12.5l.1 41.4c0 3.3-1.2 4.7-4.2 4.9-3.5.2-7 .4-10.5.4l-85.4-.9c-6.3 0-7.7 1.2-8 7.4-.7 22.9-1.8 45.7-2 68.6-.2 42.5 0 85 .3 127.5.2 27.4 4.3 54.3 13.5 80.2a68 68 0 0034.5 40.3c9.7 4.6 20.8 6.7 31.5 8.8 21 4.2 41.6-.4 62.3-3.7 6.9-1.1 13.7-3 21-4.5l-1.1 11.2c-2.7 29.2-5.5 58.5-8 87.8-.3 3.5-2 5.2-5 6.4a195.8 195.8 0 01-43.8 12 343 343 0 01-66.3 4.6 251.5 251.5 0 01-73-13.6c-27.9-9.7-49.6-27.3-67-51.2-13.8-19-20.1-41-26-63.2-5.8-22.4-7.3-45.3-9.3-68.2-3.5-39.7-2.4-79.4-2.3-119.1 0-40.2.6-80.3 1-120.5 0-10 .1-10-9.7-10h-60.4c-6.2 0-7-.5-7.1-6.8-.2-11 .3-22 0-33-.3-15.5-.8-31-2-46.4-.4-4.9-2.6-10-5.4-14.2a113 113 0 00-58-46.4 82.7 82.7 0 00-47.5-2.3c-29.2 7-47.7 26.2-59.7 52.7l-2.5 5.5a34.7 34.7 0 0113.4 21 33.4 33.4 0 11-41.3-25.9c3.7-.9 4.6-2.6 5.1-5.7 3-18 6.9-35.8 15.1-52.4a127.2 127.2 0 0165.5-62.2 168.1 168.1 0 0163.8-13.5c12.1-.3 24.3 2.6 36.4 4.1 29.3 3.8 52.1 19.8 73.3 38.9 12 10.7 24 21.2 36.8 32.4z"/><path d="M140.3 1389.6l-3.3 34.1q-13.4 5.8-33.6 5.8-31 0-46.7-16.9-15.7-16.8-15.7-65 0-28.9.4-65.5-9.8 0-26.4 1.2l1.3-37.8q14.8 1.2 27.4 1.2l1.5-53.5 45.3-5.5q-2.8 38.1-2.8 59 16 0 48-1.5l-1.5 38q-29.1-1-47.3-1-.4 25.4-.4 53.4 0 34 7 45.7 6.8 11.6 24.2 11.6a86.7 86.7 0 0022.6-3.3zm154.9-146.2l-11 44.9a75.7 75.7 0 00-28.8-5.8q-28.1 0-37 25.3 0 76.5 1 117.6h-50.8q3.2-57.6 3.2-94.2a377.8 377.8 0 00-9.5-86.4l48.7-5.4q3.3 21 3.3 24.7h3q17.7-27 47-27 13.7 0 30.9 6.3zm79 182h-51.5q2.7-39.6 2.7-91 0-51-6.5-89.2l55.1-5.6q-2.5 37.2-2.5 94.8 0 49.3 2.7 91zm8.8-239.8a32.8 32.8 0 01-8.9 22.8q-8.9 9.7-24.8 9.7-13.4 0-21-8.4a29.4 29.4 0 01-7.5-20.3 32.1 32.1 0 019-22.6q8.8-9.6 24.9-9.6 13.6 0 21 8.3a29.2 29.2 0 017.3 20zm179.2 199.6l-3.2 36.6q-17.5 9.2-47.3 9.2-49.3 0-75.8-27.6t-26.5-66.3q0-40.2 27.7-70.2t76-30q23.5 0 41.8 5.4l-6.5 39q-17.6-7.2-39.4-7.2-23.1 0-36.5 16.4-13.4 16.3-13.4 40.3 0 26 15.9 44t45 18q17 0 42.2-7.6zm205.2 40.2H709q0-7-29-48-29.1-40.9-37.2-40.9h-2.5q0 39.3 2.3 89H592Q594 1336 594 1283q0-73.2-5.9-127l54.3-3.1q-2.6 72.8-2.6 130l.2 28.4h2.6q5.4 0 30.4-30.9 25-31 25.1-37h57q0 5.9-26 33-26 27.3-42.1 37.6v2.9q17.8 12.5 49 56.6 31.3 44.2 31.3 51.8zm154.4-52.3q0 57.5-85 57.5-31 0-54-6.7l6.4-37.7a139.6 139.6 0 0047.7 8.6q23 0 31.8-3.8 8.9-3.9 8.9-12.9 0-14-32.1-26.6-28.1-11.1-41-21.9-17.6-14.9-17.6-36.5 0-25.5 19-41 19-15.6 55-15.6 34 0 53.2 6l-6.5 38a127.3 127.3 0 00-46.6-8.5q-30.6 0-30.6 15.7a15.4 15.4 0 006.5 13q6.5 4.8 26.5 12.3 27.8 10.1 40.4 20.9 18 15.3 18 39.2zm147.6 16.5l-3.2 34.1q-13.4 5.8-33.7 5.8-31 0-46.6-16.9-15.7-16.8-15.7-65 0-28.9.4-65.5-9.8 0-26.4 1.2l1.3-37.8q14.7 1.2 27.4 1.2.1-10.2 1.5-53.5l45.3-5.5q-2.9 38.1-2.9 59 16.1 0 48-1.5l-1.5 38q-29-1-47.2-1-.4 25.4-.4 53.4 0 34 6.9 45.7 6.9 11.6 24.3 11.6a86.7 86.7 0 0022.5-3.3zm195-74.7q0 9.8-1.2 25.5l-123.2 2a56.3 56.3 0 0018.6 36.1q15.8 14.4 41.7 14.4 28.7 0 61-8.6l-3.8 37.1q-26.4 9.6-65.5 9.6-49.3 0-75.6-27.8-26.3-27.8-26.3-66.8 0-40.9 25-70.8 25-30 69.3-30 40.5 0 60.2 22 19.7 22 19.7 57.3zm-44.8-1.7q0-44-37.5-44-35.8-.1-42.5 45.5zm205.4-69.8l-11 44.9a75.7 75.7 0 00-28.8-5.8q-28.1 0-37 25.3 0 76.5 1 117.6h-50.8q3.2-57.6 3.2-94.2a377.8 377.8 0 00-9.5-86.4l48.7-5.4q3.3 21 3.3 24.7h3q17.6-27 47-27 13.7 0 30.9 6.3z" class="cls-1"/></svg>