<?xml version="1.0" encoding="utf-8"?>
<!-- Generator: Adobe Illustrator 25.0.0, SVG Export Plug-In . SVG Version: 6.00 Build 0)  -->
<svg version="1.1" id="Layer_1" xmlns="http://www.w3.org/2000/svg" xmlns:xlink="http://www.w3.org/1999/xlink" x="0px" y="0px"
	 viewBox="0 0 250 300" style="enable-background:new 0 0 250 300;" xml:space="preserve">
<g id="_x34_4UvEK.tif">
	<g>
		<path d="M234.8,87c0.7,10.5-4.3,23.8-9.3,33.4c-22.9,44.8-46.5,87.7-70.7,131.7c-31.1,58.9-123.9,43.4-137-19.9
			c-4.7-18.6-2.2-36.4,6.6-53.2c22.4-42.5,44.8-84.9,67.6-127.2C129.1-19.1,237.9,9.5,234.8,87z M207.3,87
			c1.5-46.9-65-67.6-89.4-27.2c-6,9.7-11.5,19.8-16,30.2c-22.4,48.5,47.5,92.9,80.6,50.9C192.8,124.7,205,106.7,207.3,87z
			 M89.9,263.2c64.6-0.7,64.9-95.8,0.9-97.6C26.8,166.5,26.5,261.8,89.9,263.2z"/>
	</g>
</g>
</svg>
