<svg xmlns="http://www.w3.org/2000/svg" viewBox="0 0 300 300"><style>.st1{fill:#003764}</style><path id="path40" fill="#0096d6" d="M47.3 173.5v-31H31.8V189h46.5v-15.5h-31z"/><path d="M128.7 129h1.6v-15.8h6v-1.4h-13.6v1.4h6zM149.8 119.3h-10.2v-7.5H138V129h1.6v-8.3h10.2v8.3h1.7v-17.2h-1.7zM156.6 120.8h9.6v-1.4h-9.6v-6.2h10.2v-1.4h-11.9V129h12v-1.4h-10.3zM122.7 189h1.6v-8.2h8.3v-1.4h-8.3v-6.2h9.3v-1.4h-10.9zM142.8 171.4c-5.4 0-8.1 4.2-8.1 9 0 4.7 2.7 9 8.1 9 5.4 0 8.1-4.2 8.1-9s-2.7-9-8.1-9zm0 16.5c-4.6 0-6.5-3.8-6.5-7.6s1.9-7.6 6.5-7.6c4.5 0 6.5 3.8 6.5 7.6s-1.9 7.6-6.5 7.6zM165.1 182.4c0 4-1.9 5.5-5.1 5.5-3.2 0-5-1.5-5-5.5v-10.7h-1.6v11c0 3.5 1.9 6.6 6.7 6.6 4.8 0 6.7-3 6.7-6.6v-11h-1.6v10.7zM181.9 186.3l-10.1-14.5H170V189h1.6v-14.6h.1l10 14.6h1.9v-17.2h-1.7zM193 171.7h-6V189h6c5.2-.1 7.9-2.9 7.9-8.6 0-5.7-2.7-8.5-7.9-8.7zm-.9 15.9h-3.5v-14.4h3.5c4.9 0 7.1 2 7.1 7.2 0 5.1-2.1 7.2-7.1 7.2zM208.6 171.8l-6.9 17.2h1.8l2.1-5.4h7.8l2.1 5.4h1.8l-6.8-17.2h-1.9zm-2.6 10.4l3.4-8.8 3.3 8.8H206zM215.2 173.1h6V189h1.7v-15.9h6v-1.4h-13.7zM230.6 171.8h1.6V189h-1.6zM243 171.4c-5.4 0-8.1 4.2-8.1 9 0 4.7 2.7 9 8.1 9 5.4 0 8.1-4.2 8.1-9 .1-4.8-2.6-9-8.1-9zm0 16.5c-4.6 0-6.5-3.8-6.5-7.6s1.9-7.6 6.5-7.6c4.5 0 6.5 3.8 6.5 7.6s-1.9 7.6-6.5 7.6zM265.6 186.3l-10.1-14.5h-1.8V189h1.6v-14.6h.1l10 14.6h1.8v-17.2h-1.6zM122.7 134.2V165h23.1v-7.9h-13.6v-22.9zM152 134.2h9.5V165H152zM177.6 148.1l9.5 16.9h9.2v-30.8h-8.9v16.4h-.1l-9-16.4h-9.7V165h9zM217.4 165.7c9.5 0 14-4.1 14-12.6v-18.9h-9.5V151c0 3.1 0 7.1-4.5 7.1-4.7 0-4.6-4-4.6-7.1v-16.8h-9.5V153c0 8.6 4.6 12.7 14.1 12.7zM268.4 165l-11-16.4 9.8-14.4h-10.5l-4.6 8.3-4.6-8.3h-11.1l10.1 14.4-11.1 16.4h10.8l5.5-9.2 5.2 9.2zM31.8 134.8h15.5v-7.7h46.5v46.4H86V189h23.2v-77.5H31.8z" class="st1"/></svg>