<svg xmlns="http://www.w3.org/2000/svg" viewBox="0 0 300 300"><style>.st0{fill:#00b0da}</style><path d="M141.6 165.8l-24.4-15.4v15.4H108v-42.3h32.7c2.9 0 5.4.2 7.5.6 2.1.4 3.8 1 5.1 2 1.3 1 2.3 2.3 2.9 3.9.6 1.7.9 3.7.9 6.3v2.9c0 2.4-.3 4.5-1 6a8.8 8.8 0 01-3 3.8c-1.4.9-3.1 1.6-5.2 2-2.1.4-4.5.6-7.4.6h-7.3l24.5 14.3h-16.1zm6.2-29.1a7 7 0 00-.4-2.7c-.2-.7-.7-1.2-1.2-1.6-.6-.4-1.4-.6-2.4-.7a38 38 0 00-3.8-.2h-22.8v12.9H140a38 38 0 003.8-.2c1-.1 1.8-.4 2.4-.7.6-.4 1-.9 1.3-1.6.2-.7.4-1.6.4-2.8v-2.4zM163.6 165.8v-42.4h33c3.1 0 5.7.3 7.7.8a10 10 0 014.9 2.5 9.1 9.1 0 012.6 4.5c.5 1.9.8 4.1.8 6.8v13.3c0 2.7-.3 5-.8 6.8-.5 1.8-1.4 3.3-2.6 4.5-1.2 1.1-2.9 2-4.9 2.5a33 33 0 01-7.7.8h-33zm39.8-27.4c0-1.3-.1-2.4-.3-3.3-.2-.9-.6-1.6-1.2-2.1a5 5 0 00-2.2-1.1c-.9-.2-2-.3-3.4-.3h-23.4v26.1h23.4c1.3 0 2.3-.1 3.2-.3a5 5 0 002.2-1.1c.6-.5 1-1.2 1.3-2.1.3-.9.4-2 .4-3.3v-12.5zM252 165.8l-23.2-20.7v20.7h-9.2v-42.4h9.2v20.2l22.8-20.2h12.5L240.2 144l24.5 21.8H252zM108.3 170.5l1.9-.1c1 0 1.7.2 2.1.6.4.3.6.8.6 1.4 0 .9-.6 1.5-1.2 1.7.5.2.8.7 1 1.3l.5 1.9h-1.3l-.5-1.6c-.2-.9-.5-1.2-1.2-1.2h-.6v2.8h-1.2v-6.8zm1.3 3h.7c.8 0 1.4-.4 1.4-1.1 0-.8-.5-1.1-1.3-1.1l-.8.1v2.1zM120.8 174.2h-2.6v2h2.9v1H117v-6.9h4v1h-2.7v1.8h2.6v1.1zM125.1 170.4h4v1h-2.7v1.9h2.5v1h-2.5v2.9h-1.3v-6.8zM137 174.2h-2.6v2h2.9v1h-4.2v-6.9h4v1h-2.7v1.8h2.6v1.1zM141.3 170.5l1.9-.1c1 0 1.7.2 2.1.6.4.3.6.8.6 1.4 0 .9-.6 1.5-1.2 1.7.5.2.8.7 1 1.3l.5 1.9h-1.3l-.5-1.6c-.2-.9-.5-1.2-1.2-1.2h-.6v2.8h-1.2v-6.8zm1.2 3h.7c.8 0 1.4-.4 1.4-1.1 0-.8-.5-1.1-1.3-1.1l-.8.1v2.1zM153.8 174.2h-2.6v2h2.9v1h-4.2v-6.9h4v1h-2.7v1.8h2.6v1.1zM158 177.3v-6.9h1.4l1.8 2.9 1.2 2.3-.1-2.9v-2.4h1.2v6.9h-1.3l-1.8-3-1.2-2.4.1 2.9v2.5H158zM172.7 177.1c-.3.2-.9.3-1.8.3-2.2 0-3.5-1.4-3.5-3.5 0-2.3 1.6-3.6 3.7-3.6.8 0 1.4.2 1.7.3l-.3 1c-.3-.1-.8-.3-1.3-.3-1.4 0-2.4.9-2.4 2.5 0 1.5.9 2.5 2.4 2.5.5 0 1-.1 1.4-.3l.1 1.1zM180.5 174.2h-2.6v2h2.9v1h-4.2v-6.9h4v1h-2.7v1.8h2.6v1.1zM189.7 170.5l2-.1c1.3 0 2.2.3 2.8.8.7.5 1.1 1.4 1.1 2.5 0 1.2-.4 2.1-1.1 2.7-.7.6-1.8.9-3.1.9l-1.7-.1v-6.7zm1.3 5.8h.7c1.6 0 2.6-.9 2.6-2.6 0-1.5-.9-2.4-2.4-2.4l-.9.1v4.9zM203.4 174.2h-2.6v2h2.9v1h-4.2v-6.9h4v1h-2.7v1.8h2.6v1.1zM207.6 175.9c.4.2 1 .4 1.7.4.8 0 1.3-.4 1.3-.9s-.3-.8-1.2-1.1c-1.1-.4-1.9-1-1.9-2 0-1.1.9-2 2.4-2 .7 0 1.3.2 1.7.3l-.3 1c-.2-.1-.7-.3-1.4-.3-.8 0-1.1.4-1.1.8 0 .5.4.8 1.3 1.1 1.2.4 1.8 1.1 1.8 2 0 1.1-.8 2.1-2.6 2.1-.7 0-1.5-.2-1.9-.4l.2-1zM217.1 170.4v6.9h-1.3v-6.9h1.3zM226.9 177c-.4.2-1.3.4-2.2.4-1.2 0-2-.3-2.7-.9-.6-.6-1-1.5-1-2.5 0-2.2 1.6-3.6 3.8-3.6a6 6 0 011.8.3l-.3 1c-.4-.2-.8-.3-1.6-.3-1.5 0-2.5.9-2.5 2.5s1 2.5 2.4 2.5l.9-.1v-1.7h-1.2v-1h2.4v3.4zM231 177.3v-6.9h1.4l1.8 2.9 1.2 2.3-.1-2.9v-2.4h1.2v6.9h-1.3l-1.8-3-1.2-2.4.1 2.9v2.5H231zM245.8 170.4h1.2v3.2l.5-.7 1.8-2.4h1.6l-2.4 2.9 2.5 4h-1.5l-1.9-3.2-.6.7v2.4h-1.2v-6.9zM255.8 170.4v6.9h-1.3v-6.9h1.3zM261.4 171.5h-2v-1.1h5.2v1.1h-2v5.8h-1.3v-5.8zM35.4 124.7h63v9.8h-63z" class="st0"/><path fill="#fcbb31" d="M35.4 138.9h63v9.8h-63z"/><path fill="#94c73d" d="M35.4 153h63v9.8h-63z"/><path fill="#f37d31" d="M35.4 167.1h63v9.8h-63z"/></svg>