<svg xmlns="http://www.w3.org/2000/svg" viewBox="0 0 300 300"><path fill="#4597d9" d="M267.7 140.4a4.5 4.5 0 11-9 0 4.5 4.5 0 019 0"/><path d="M75.8 120.8l-6.5-3.7L56 143.9 41.9 117l-6.6 3.7 16.8 31.5a79.6 79.6 0 01-3.2 6.4c-1.3 2.3-2.5 4-3.8 5.5a17.5 17.5 0 01-8.2 5.6l-4.5 1.2 3 6.3a26.1 26.1 0 009.3-3.3c2-1.2 4-2.9 6-5 2-2.3 4-5.2 5.7-8.8l19.4-39.4M111.7 140.4a15.4 15.4 0 01-4 10.4 12.9 12.9 0 01-9.5 4 13.4 13.4 0 01-9.6-4 15.1 15.1 0 01-4-10.4 15.4 15.4 0 014-10.4 13 13 0 014.3-3 12.4 12.4 0 0110.6 0c1.6.7 3 1.7 4.2 3a15.3 15.3 0 014 10.4m8.3 0a22 22 0 00-6.2-15.5c-2-2-4.3-3.5-7-4.5a22 22 0 00-8.5-1.7A22 22 0 0078 131.8a22 22 0 00-1.7 8.6 22 22 0 006.3 15.5 21.4 21.4 0 0015.6 6.2 21.5 21.5 0 0020-13c1.1-2.7 1.7-5.6 1.7-8.7M228.5 140.4a15.4 15.4 0 01-4 10.4 12.9 12.9 0 01-9.5 4 13.5 13.5 0 01-9.7-4 15.2 15.2 0 01-3.9-10.4 15.4 15.4 0 014-10.4 13 13 0 014.3-3 12.4 12.4 0 0110.5 0c1.7.7 3.1 1.7 4.3 3a15.4 15.4 0 014 10.4m8.2 0a22 22 0 00-6.2-15.5 22 22 0 00-15.5-6.2 21.9 21.9 0 00-20.2 13.1 22 22 0 00-1.6 8.6 22 22 0 006.3 15.5A21.4 21.4 0 00215 162a21.5 21.5 0 0020-13c1.2-2.7 1.7-5.6 1.7-8.7M178.2 105.3l-7.9 4.4v9.7H149c-15.4 0-24.7 7.5-24.7 21.2 0 21.3 22.2 25.3 38 17.7l-3.4-6.5c-12.5 5.5-26.3 3.2-26.3-11.3 0-9.4 5-14.5 16.3-14.5h21.5v25.8c0 11.5 13.1 11.7 21.2 7l-3-6.1c-5.3 2.6-10.3 3-10.3-2.1V126H189v-6.6h-10.8v-14.1M89 181.8h2c1 0 2 .7 2 1.7 0 1.7-2 2-2 2h-2v-3.7zm-2.9-2.4v15H89V188c5 .3 7-1.4 7-4.6 0-2.8-2.5-4-5-4h-4.9M140.6 186.9a5.2 5.2 0 01-3 4.7 5.2 5.2 0 01-4 0l-1.7-1a5.4 5.4 0 01-1.4-3.7 5.3 5.3 0 011.5-3.7 5 5 0 013.6-1.5 5 5 0 015 5.2m3 0c0-1.1-.3-2.1-.7-3a7.7 7.7 0 00-4.2-4 8.2 8.2 0 00-8.8 1.6c-.8.6-1.3 1.4-1.7 2.4a7.4 7.4 0 001.7 8.4c.7.7 1.5 1.2 2.5 1.6a8.4 8.4 0 006.3 0 7.7 7.7 0 004.8-7M155.2 179.4v11.3c0 .5-.3 1-.9 1h-.9v2.8h.9c2.8 0 3.7-2.6 3.7-3.8v-11.3h-2.8zM179.5 179.4H170v14.9h9.5v-2.4h-6.7v-4h5.6v-2.3h-5.6v-3.8h6.6v-2.4M201.4 183c-4.8-2.7-9.6-1.1-9.6 3.8 0 4 3.8 7 10 3.7l.9 2.5c-6 3.3-13.9 1-13.9-6.2 0-6.4 7-9.8 13.8-6.3l-1.2 2.4M224.3 179.4v2.4h-4.8v12.5h-2.8v-12.5H212v-2.4h12.2M110.1 181.8h2c1 0 2 .7 2 1.7 0 1.7-2 2-2 2h-2v-3.7zm-2.8-2.4v15h2.8v-6.5h2l3.2 6.4h3.3l-4-7.2c1.6-.7 2.4-1.9 2.4-3.7 0-2.9-2.6-4-5.4-4h-4.3"/></svg>