<svg xmlns="http://www.w3.org/2000/svg" fill="none" viewBox="0 0 770 434"><defs/><path fill="#FF8AE2" d="M485.5 160.6V75.7l-8.8 8.8v76.1l15.2 15.3-15.2 15.3h8.8l15.3-15.3-15.3-15.3zM713 69H704l15.2 15.3V181l-10.2 10.2h8.9l10.2-10.3V84.3L713 69zM332.7 28.3h-8.1l15.3 15.3v137.3l-10.3 10.3h8.2l10.2-10.3V43.6l-15.3-15.3zM192.2 160.6V75.5l-8.8 8.8v76.3l15.2 15.3-15.2 15.3h8.8l15.3-15.3-15.3-15.3zM432.4 53.8h-8.8V69h8.8V53.8zM423.6 170.8l8.8-8.9V89.3L452.8 69H444l-20.4 20.3v81.5zM433.9 160.6l5 5.1-15.3 15.2-10.1 10.3h8.8l10.1-10.3 15.3-15.2-5-5h-8.8zM568.5 160.6v-117l-15.3-15.3h-8.8l15.3 15.3v117l15.2 15.3-15.2 15.3h8.8l15.3-15.3-15.3-15.3z"/><path fill="#FF8AE2" d="M583.8 69h-9l20.5 20.3v66.2l-16 16 4.5 4.4 20.3-20.4V89.3L583.8 69zM72.8 62.8v37.1l8.8-8.8v-55l-16-16H56.8l16 16v26.7zM120.8 41.5V159l10.7 10.8 4.5-4.5-6.4-6.3V36.1l-16-16h-8.9l16 16v5.4zM99.4 96.5L72.8 123v57.5l-10.7 10.7H71l10.7-10.7V123l17.8-17.7v-8.8zM46 41.6l-16 16h9l11.5-11.7-4.4-4.3zM151 159h-8.8l5.4 5.4-10.7 10.7-5.4 5.4-10.7 10.7h8.8l10.7-10.7 5.4-5.4 10.7-10.7-5.4-5.4zM500.8 69h-9l20.5 20.3v66.2l-16 16 4.5 4.4 20.3-20.4V89.3L500.8 69zM674.1 89.2l-35.4 35.5v36l10.1 10 4.5-4.3-5.8-5.8v-36l35.4-35.4L662.7 69H654l20.2 20.2zM664 155.5l5.2 5.1L654 176l-5 5-10.2 10.3h8.8l10.1-10.3 5.1-5 15.3-15.3-5.1-5.1h-8.8z"/><path fill="#FF8AE2" d="M638.7 114.5l8.8-8.8V93.1l-8.8-8.8v30.2zM227.8 165.7V89.3L207.5 69h-8.9L219 89.3v76.4l10.2 10.2-15.2 15.3h8.8l15.2-15.3-10.1-10.2zM280.3 170.8l4.3-4.4-5.6-5.8V93l-8.7-8.6h-.2v76.3l10.2 10.2zM304.4 155.5h-8.8l5 5.1-15.2 15.3-5.1 5-10.2 10.3h8.9l10.1-10.3 5.1-5 15.2-15.3-5-5.1zM285.4 99.4h8.8L309.4 84l-15.2-15.3h-8.8l15.2 15.3-15.2 15.3zM364 69h-9l15.3 15.3L355 99.6h9L379 84.3 364 69zM743.4 69h-8.8l15.3 15.3-15.3 15.3h8.8l15.3-15.3L743.4 69zM364 99.6h-9l15.3 15.2v66.1l-10.2 10.3h8.9l10.1-10.3v-66.1L364 99.6z"/><path fill="#9C4668" d="M444 69h-20.4V53.8L388 89.3h15.3V181l10.2 10.3 10.1-10.3 15.3-15.2-5-5-10.3 10V89.4L444 69zM559.7 84.3V43.6l-15.3-15.3-15.3 15.3 10.2 10.2v117l20.4 20.4 15.2-15.3-15.2-15.3V84.3z"/><path fill="#9C4668" d="M559.7 84.3l15.2 15.3v76.3l20.4-20.4V89.3L574.9 69l-15.2 15.3zM131.5 169.8L120.8 159V36.1l-16-16-16 16 10.6 10.6v26.7L72.8 99.9V36.1l-16-16h-.1L24.5 52l5.5 5.4 16-15.9 5.4 5.4v133.5l10.7 10.7 10.7-10.7V123l26.6-26.5v73.3l21.4 21.4 10.7-10.7 5.4-5.4 10.7-10.7-5.4-5.4-10.7 10.8zM476.7 84.3l-20.4 20.3v66.2l20.4 20.4 15.2-15.3-15.2-15.3V84.3zM476.7 84.3L492 99.6v76.3l20.4-20.4V89.3L491.9 69l-15.2 15.3zM674.1 89.2L654 69l-15.2 15.3 15.1 15-15.1 15.2V84.3l-20.5 20.3v66.2l20.5 20.4 10.1-10.3 5.1-5 15.3-15.3-5.1-5.1-15.3 15.3-10.1-10.2v-36L674 89.3zM183.4 84.3L163 104.6v66.2l20.4 20.4 15.2-15.3-15.2-15.3V84.3z"/><path fill="#9C4668" d="M219 89.3L198.5 69l-15.2 15.3 15.2 15.3v76.3l15.3 15.3 15.2-15.3-10.2-10.2V89.3zM280.3 170.8L270 160.6V84.3l-20.4 20.3v66.2l20.4 20.4 10.2-10.3 5.1-5 15.2-15.3-5-5.1-15.3 15.3zM285.5 68.8l-15.3 15.3 15.3 15.3 15.3-15.3-15.3-15.3zM355.1 69l-15.3 15.3 15.3 15.3 15.3-15.3L355.1 69zM350 125v56l10.1 10.2 10.2-10.3v-66.1L355 99.6 340 114.8 350 125z"/><path fill="#9C4668" d="M339.9 69V43.6l-15.3-15.3-15.3 15.3 10.1 10.2v127.1l10.2 10.3 10.3-10.3V69zM734.7 69l-15.3 15.3 15.3 15.3L750 84.3 734.7 69zM688.8 84.3L699 94.5V181l10.1 10.2 10.2-10.3V84.3L704.1 69l-15.3 15.3zM468.3 29.8v-6h2.4c2.1 0 3.8 1.6 3.8 3.7V44a6 6 0 00-4 5.7c0 1.7.6 3.2 1.6 4.3a6 6 0 004.4 1.8 6 6 0 006-6c0-2.5-1.6-4.6-3.7-5.6V27.5c0-2.2-.9-4.2-2.4-5.8a8.1 8.1 0 00-5.8-2.4h-2.4v-6l-8.1 8.1 8.2 8.4zm8.3 17.2c.8 0 1.4.3 2 .7.4.5.8 1.3.8 2s-.4 1.4-.8 1.8c-.6.6-1.2.8-1.9.8a2.8 2.8 0 01-2.8-2.8c0-1.3 1.1-2.5 2.7-2.5zM458.9 49.7c0-2.4-1.6-4.5-3.7-5.5v-17a6 6 0 10-4.5.1v16.8a6 6 0 00-4 5.6c0 1.7.7 3.2 1.7 4.3a6 6 0 004.3 1.8 6 6 0 006.2-6zm-6-25.3c-.8 0-1.5-.3-2-.8s-.7-1.2-.7-1.9c0-1.5 1.2-2.7 2.7-2.7.8 0 1.5.3 2 .7.5.5.8 1.3.8 2a3 3 0 01-2.9 2.7zm0 28a2.8 2.8 0 01-2-4.7c.5-.5 1.2-.7 1.8-.7.8 0 1.5.3 2 .7.5.5.8 1.3.8 2a2.6 2.6 0 01-2.7 2.7zM616 77.5a6 6 0 00.5-8.5 7 7 0 00-2.2-1.5V56c4.3 5.5 9.3 7.8 13 9a6 6 0 001.4 2.6 6 6 0 004.2 2c1.5.1 3-.5 4.3-1.6a6 6 0 00.5-8.4 6 6 0 00-4.2-2 6 6 0 00-4 1.2l-.3.3c-.5.5-1 .9-1.1 1.5a21.7 21.7 0 01-11.4-9 6 6 0 00-8.1-8.8l-.4.2a6 6 0 00-.4 8.5c.6.8 1.4 1.3 2.3 1.6v14.3c-.6.2-1.1.4-1.6.9l-.3.3a6 6 0 00-2 4.1c-.1 1.6.4 3.1 1.6 4.4a6 6 0 008.2.4zm15.4-16c.6-.5 1.2-.8 2-.7.8 0 1.5.3 2 .9 1 1 .8 2.9-.3 3.9h-.2c-.6.5-1.2.6-1.8.6-.8 0-1.5-.3-2-.8-.4-.6-.7-1.3-.6-2 0-.7.3-1.4 1-2zm-21-16c1-1 2.8-.9 3.8.2s1 3-.2 4h-.1c-1.1 1-2.8.7-3.7-.3-1.1-1.2-1-2.9.1-3.9zm-1 27.3c0-.8.3-1.4.8-1.9 1.1-1 3-.9 4 .3 1 1 .8 2.9-.3 3.9h-.1c-1.1 1-2.8.7-3.7-.3-.6-.5-.9-1.3-.8-2zM180.4 15.7c0-.4 0-1 .3-1.4h-8v3.4h8c-.3-.5-.5-1.3-.3-2zM191.5 16.4c0 .4-.1 1-.3 1.4h8v-3.4h-8c.2.5.3 1.2.3 2z"/><path fill="#9C4668" d="M193.2 16v.5a7 7 0 01-2.5 5 7.3 7.3 0 01-12.2-6 7 7 0 012.5-5 7 7 0 015.3-1.7 7 7 0 016.9 7.3zM182 16a4 4 0 003.7 4c1 0 2-.4 2.8-1 .8-.7 1.2-1.7 1.3-2.7a4 4 0 00-3.5-4.1v-1.7 1.7c-1-.2-2 .3-2.8 1-.8.6-1.2 1.6-1.4 2.6v.3zM678.6 199c0-.4.1-1 .3-1.4h-8v3.5h8c-.2-.6-.3-1.3-.3-2zM689.7 199.8c0 .4 0 1-.3 1.4h8v-3.4h-7.9c.2.5.4 1.2.2 2z"/><path fill="#9C4668" d="M691.5 199.4v.5a7 7 0 01-2.4 5 7.3 7.3 0 01-12.2-6 7 7 0 012.5-5 7 7 0 015.2-1.7c4 .2 7 3.3 7 7.2zm-11.1 0a4 4 0 003.7 4c1 0 2-.4 2.7-1 .8-.7 1.3-1.7 1.4-2.8a4 4 0 00-3.6-4l.1-1.8v1.7c-1.1 0-2.1.4-2.9 1-.8.7-1.2 1.7-1.3 2.7l-.1.2zM94 210.7c0-.5 0-1 .2-1.5h-8v3.5h8c-.3-.6-.4-1.3-.3-2zM105 211.4c0 .4 0 1-.3 1.4h8v-3.4h-7.9c.2.5.3 1.2.3 2z"/><path fill="#9C4668" d="M106.7 211v.5a7 7 0 01-2.4 5 7.3 7.3 0 01-12.2-6 7 7 0 012.5-5 7.5 7.5 0 015.2-1.7c4 0 7 3.3 7 7.2zm-11.1 0a4 4 0 003.7 4c1 0 2-.4 2.8-1 .7-.7 1.2-1.7 1.3-2.8a4 4 0 00-3.6-4l.1-1.9v1.8c-1 0-2 .4-2.9 1-.7.7-1.2 1.7-1.3 2.7l-.1.2zM379.2 50c0-.5.1-1 .4-1.5h-8V52h8c-.3-.7-.4-1.4-.4-2zM390.4 50.6c0 .5-.1 1-.4 1.5h8v-3.6h-7.8c.2.7.3 1.4.2 2.1z"/><path fill="#9C4668" d="M392.2 50.3v.4a7 7 0 01-2.5 5 7.3 7.3 0 01-12.2-6A7 7 0 01380 45a7 7 0 015.2-1.8c4 .2 7 3.4 7 7.3zm-11.2 0a4 4 0 003.7 3.9c1 .1 2-.3 2.8-1 .8-.7 1.2-1.7 1.3-2.7a4 4 0 00-3.6-4.1l.2-1.7-.2 1.7c-1-.1-2 .3-2.7 1-.8.7-1.3 1.7-1.4 2.7v.2zM268 50.9a6 6 0 00-8.3-1.7 6 6 0 00-1.7 8.3 5 5 0 002.8 2v4.3c0 1.2-1 4-4 4h-11V57.1c.8-.3 1.6-.8 2.1-1.6a6 6 0 10-8.9-8 6.3 6.3 0 00-1.5 4.4c0 1.5.7 3 2 4 0 .2.2.3.3.4.4.4 1 .7 1.6 1v14.2a6 6 0 00-1.9 10l.3.4a6 6 0 008.1-.8 6.1 6.1 0 00-.7-8.8h9.4c5.8 0 8.4-5 8.4-8.3V60c.3-.1.8-.3 1.1-.6l.4-.3a6.3 6.3 0 002.2-3.6 5 5 0 00-.7-4.5zm-27.2.7c0-.7.2-1.4.7-2 1-1 2.5-1.2 3.7-.3v.1c1.2 1 1.3 2.8.3 4a2.8 2.8 0 01-4 .1c-.4-.5-.7-1.2-.7-1.9zm5 27.1a2.8 2.8 0 01-4 .3 2.8 2.8 0 01-.2-4c1-1 2.6-1.2 3.7-.3v.1c1.3 1 1.4 2.8.4 4zm19.9-24c-.1.7-.6 1.4-1.2 1.8-.6.5-1.4.6-2.2.5-.6-.1-1.3-.6-1.8-1.2-.4-.6-.5-1.4-.4-2.2.1-.6.4-1.2 1-1.5l.2-.1c1.3-.8 3-.5 3.8.8.6.5.7 1.2.6 2z"/><path fill="#FF8AE2" d="M63 43.2H61v127.7H63V43.2zM111.6 43.2h-2V162h2V43zM329.6 49h-2.1v126.8h2V49zM549.8 50.5h-2.2v112.2h2.2V50.5zM209.7 95h-2.1v72.9h2v-73zM414.2 95h-2v72.9h2v-73zM709.5 91.3h-2.1v80h2v-80zM502.6 93.6h-2.1v59.8h2V93.6zM584.8 95h-2.1v59.7h2V94.9zM628.2 107.9H626v59.7h2V108zM467.9 107.2h-2.1V167h2v-59.8zM260.9 105.6h-2.1v61h2v-61zM173.9 107h-2.1v59h2v-59zM360.5 118.9h-2.1V178h2V119z"/><path fill="#FF8AE2" d="M63 122l-1.7-1.8 48.5-48.5 1.6 1.8L63 121.9zM693.2 157.2c1.1 3.3 3.6 5.8 5.8 7v-16.6c-5.4 5.5-5.8 9.4-5.8 9.6zM393.7 164.6l-.4-1c0 .4.2.7.4 1zM403.2 144.1c-12 9.5-9.5 20.5-9.5 20.5 2 4 6 6.4 9.6 7.7l-.1-28.2z"/><path fill="#9C4668" d="M227.8 125.5v24c2.5-2.3 5.3-5.4 6.6-8.9.4-1.4 1.3-8.3-6.6-15.1z"/><path fill="#93C2DB" d="M154.4 225s7.8 3.5 5.9 23.8c-1 9 3.9 17.2 3.9 17.2s-14.4-3.4-16.4-14.3c-1.6-8.1 5.3-16.2 6.6-26.7zM140 44.4s16.7-13 8.9-36c0 0-9.6 3.3-8 13.3 1.9 11.2 2 18.1-1 22.7zM688 135.6s-7.5-22.4 14.2-39.1c0 0 6.2 8.5-1 17.4-7.1 8.9-13.1 15.7-13.2 21.7zM389.8 133.8s-8-21 7.4-29.9c0 0 1.8 4 1 10.4-1 6.8-5.4 7.8-8.4 19.5zM269.7 46.7s5.5-14.4 18.4-10.5c0 0-3.5 13.2-18.4 10.5zM254.4 42.5s-10-10.6.6-21.2c0 0 9.1 8.5-.6 21.2zM234.8 46.7s-14.5 2.4-19.3-8.7c-.1 0 13.6-4.8 19.3 8.7zM464.4 216.4s5.5-14.4 18.4-10.5c0 0-3.4 13.3-18.4 10.5zM449.2 212.3s-10-10.6.5-21.2c0 0 9.2 8.4-.5 21.2zM429.5 216.5s-14.5 2.3-19.3-8.7c0-.1 13.6-5 19.3 8.7zM613.1 33.3s-5.5-11.6 4-20.8c-.2 0 7.5 9.8-4 20.8zM605 35s-12.9-.7-16.5-13.4c0 0 12.2-2 16.5 13.4zM304 408.5s-12.4 6.4-21-4c0 0 11.8-7.2 21 4zM309.7 416.6s-.5 14.4-13.3 16.5c0-.1-1-13.7 13.3-16.5zM472 360.6s11.5-5.5 20.8 3.9c0-.1-9.8 7.6-20.9-3.9zM470.2 352.5s.7-12.9 13.4-16.6c0 0 2 12.3-13.4 16.6zM737 198.5s12.9 4 12 17.5c0 0-14.4-1.5-12-17.5zM739.4 191.6s8.2-10 21-2.2c0 0-7.2 10-21 2.2zM20.2 61.1S13.8 73.3 0 67.6c0 0 5.6-13.4 20.2-6.5zM26.3 65.6s10 11.1 0 21.2c0 0-10.6-11.2 0-21.2zM444.5 16.6S432 14 430.3 1c-.1 0 12.4-.1 14.2 15.7zM440.8 24s-8.4 9.8-20.6 5.1c0 0 5.9-11 20.6-5zM652.3 151.2s2.3-4 3-8.2c1.5-7 2.2-13.8 10.6-14.2 0 0 .3 19-13.6 22.4zM602.7 245.7s8-12.8 22.1-14.3a30.3 30.3 0 0026.3-17.7s-23.7-.3-33 4.8c-9.4 5.2-12.1 11.2-15.4 27.2zM348 176.9c.7-7.6.7-26.4-1.2-34.8-2.5-11.2-4.7-10.8-6.2-10.3-1.4.6-1 2.2-1.9 3-.9 1-2.2 2-4-1.5-1.8-3.7-3.1-14.2-6.4-17.9-3.5-3.8-5.7 2.4-7.3 3.8-1.6 1.5-1.8 2.5-6.1-.4-4.4-3-16.2-9-21.2-5-5 3.9.4 8.8 2 9.8 3.2 2.1 13.6 5.3 14.4 7.1 1.3 3.3-5.7 3.6-7 6-1.4 2.3.4 4.7 3.6 5.5 3.3.8 12-.9 15.6 0 3.6.9 2.8 2.1 1.6 3-.7.4-7 3.8-6 6.8 1.2 3.6 4.8 4.7 13.5 4 6.6-.6 11.5 4 13 7.8 1.4 4 3.6 13 3.6 13z"/><path fill="#FF8AE2" d="M304 117.7l-1.5-1-1.2.9 2 1.2c28.3 17 40 34.9 45 47.8v-3.3c-5.6-13-17.7-29.8-44.3-45.6z"/><path fill="#93C2DB" d="M491.4 128.5s-1.9-17.3 1-31.1A67.8 67.8 0 01507.7 69c9-9.9 12-11.6 14-11.6 1 0 .4 1.4 0 2.7-.8 3.2-1.6 5.7-2.6 10.2-2 9 0 12.6-2.8 17.1-1.6 2.7-11 6.2-8.5 9.5 1.5 2 9.2-5.8 11.3-3.2 2.1 2.4-2 14-7.6 17.4-16 9.7-20 17.4-20 17.4zM554 240.2v-8.8h-50v15h9v9.4h-9.2v9.2h-9 27.4v-9.2h40.6v-15.6H554zM337.2 269.6h-9.3v-21.3h-14v75.3h9.1v-9.3h14.2v-26.7H354v-7h13.3v-11h-30.1zM462.5 303.5h-9.2v9.3h9.2v-9.3zM373.6 305.6h-9.2v9.3h9.2v-9.3z"/><path fill="#93C2DB" d="M382.9 314.9h-9.3v9.2h9.3V315zM444 331.4V322h9.3v-9.3H445v-20.1h-10.7v20.1h-26v8.6h-8.7v10h44.4zM418.1 240.8H409v9.3h9.2v-9.3zM427.4 231.4h-9.3v9.3h9.3v-9.3zM296.5 241.4h-13.2v7h13.2v-7zM254.7 252.3h-9.2V243h-9.3v9.3h9.3v35.4h41.4v-18h-32.2v-17.4zm9.4 26v9.2H255v-9.2h9.2zM497.8 308.1v-7.8H490v7.8h7.8zM232.3 216.4H224v8h8.3v-8zM362.2 25v-8.2H354V25h8.2zM514.7 35.5v-8.2h-8.1v8.2h8.1zM770 148.4v-8.1h-8.1v8.1h8.1zM488.7 403.2h8.1v-8.1h-8.1v8.1zM352.2 433h8.1v-8.2h-8.1v8.1zM526 194v-7.8H518v7.8h7.8zM605.2 206.7v-7.8h-7.8v7.8h7.8zM302.7 199.7h7.8v-7.8h-7.8v7.8zM290.3 334.3v-7.9h-7.8v7.9h7.8z"/><path fill="#9C4668" d="M522.2 255.8v9.2h-11.8v66.4h14.3v-8.7h8.7v-67h-11.2zM427.4 231.4v9.4h-9.3v9.3h-18.5v33-9h9.4v4.4h11.6v-22.7h30.9v-7.4h8.1v-17h-32.2z"/><path fill="#FF8AE2" d="M310.5 207.5h7.8v-7.8h-7.8v7.8z"/><path fill="#9C4668" d="M364.2 239.8v-8.4H332v-7h-23v23.9h19v21.3h9.2v-15.3h9.5v-14.5h17.5zM245.5 297v-44.7h-9.3V243h9.3v-9.3h9.2v-9.2h-22.4v101.7h22.4V297h-9.2zM232.3 326.2H224v8h8.3v-8zM562.6 231.4h-8.7v8.7h8.7v-8.7zM571.3 240.2h-8.7v15.6h8.7v-15.6zM571.3 222.7h-8.7v8.7h8.7v-8.7zM453.3 322H444v9.3h9.3V322zM337.2 323.6H323v7.8h14.2v-7.8z"/><path fill="#FF8AE2" d="M8.1 95v-8.2H0V95h8.1zM236.4 15.3V7h-8.1v8.2h8.1zM757.8 54.6v-8.2h-8.1v8.2h8.1zM685.1 237h8.2v-8H685v8z"/><path fill="#FF8AE2" d="M693 229.2h8.2v-8.1h-8.1v8.1zM191.3 296.6h8.2v-8.1h-8.2v8.1zM281.3 374.7h8.1v-8.2h-8.1v8.2zM391.6 339.5h8.1v-8.2h-8.1v8.2zM533 215V207h-7.8v7.8h7.8zM597.3 214.5v-7.8h-7.8v7.8h7.8zM384.7 231.4h-20.5v8.4h-17.5v14.5h28.6v-9.6h9.4v-13.3zM393 223.5h-8.3v8h8.4v-8zM650.6 22h-8.7v8.7h8.7V22zM542 331.4h-8.6v8.7h8.7v-8.7zM533.4 322.7h-8.7v8.7h8.7v-8.7zM462.5 303.5v-17.2h-6v-7.8H409V274h-9.4v9.3h9.3v9.3H445v20.1h8.2v-9.2h9.2zM418.1 231.4H409v9.3h9.2v-9.3zM408.9 240.8h-9.3v9.3h9.3v-9.3zM367.2 280.6H354v7h13.2v-7zM224 334.3h-8.7v8.7h8.7v-8.7zM264 278.3h-9.3v9.2h9.3v-9.2zM254.7 287.7h-9.2v9.2h9.2v-9.2zM274 231.4v-7h-19.3v9.3h-9.2v18.6h9.2v-4h28.6v-7h13.3v-9.9H274zM522.3 237.1h-9.2v9.3h9.2V237zM504 246.4v-15h-30.4v24.4h21v9.2h9.2v-9.2h9.2v-9.4h-9zM373.6 324.1V315h-9.2v-9.3h-27.2v8.7H323v9.3h14.2V331.4H383V324h-9.4z"/><path fill="#9C4668" d="M462.5 312.8h-9.2v9.2h9.2v-9.3zM506.5 43.7v-8.2h-8.2v8.2h8.2zM38.7 118.8v-8.1h-8.1v8.1h8.1zM254.8 203.5v-8.1h-8.1v8.1h8.1zM163.8 201v-8.2h-8.1v8.2h8.1zM761.9 156.6v-8.1h-8.2v8.1h8.2zM480.6 395h8.1V387h-8.1v8.1zM562.9 298.3h8.1v-8.1H563v8.1z"/><path fill="#FF8AE2" d="M344 424.8h8.1v-8.1H344v8.1z"/><path fill="#9C4668" d="M489.9 315.9V308H482v7.8h7.8zM363.7 208.2H355v8.7h8.7v-8.7zM282.5 342.1v-7.8h-7.8v7.8h7.8zM419.7 400.4l-5.3-5.3-9 8.9H400v-20.2l4.8-4.8 1.7-1.8 2-1.8 3.6-3.6V357l-7.9-7.8-11 11 2 1.7 5.4-5.4 4.2 4.2v14.6l-11.2 11.2-.9.9v18.3h21.8l5.3-5.3z"/><path fill="#FF8AE2" d="M412 366.2v5.6l-3.7 3.6-1.9 1.8-1.7 1.8-4.8 4.8V404h3v-20.2l4.8-4.8 1.6-1.8 2-1.8 3.6-3.6V357l-7.9-7.8h-2.9l8 7.8v9.2zM417.4 395h-3l5.3 5.4-5.3 5.3h3l5.2-5.3-5.2-5.3zM402 358l-1.5-1.5-5.4 5.4h2.9l4-3.9z"/><path fill="#93C2DB" d="M449 381.5v11.7h-8.1V381h-5.7v-16.8H425v25.6h5.2v16.5h24.4v-24.8H449z"/><path fill="#FF8AE2" d="M458.9 364v-6.9h-7.4v7h-2.6v17.4h5.7v16.4h4.3v-8h3.5V364H459z"/><path fill="#9C4668" d="M453.7 349.6h-17.4v4.2h-6.1v10.4h5V381h5.7v-16.8h10.6v-7h2.2v-7.6zM341.6 400.4l-5.3-5.3-9 8.9h-5.5v-20.2l4.8-4.8 1.8-1.8 1.9-1.8 3.6-3.6V357l-7.9-7.8-11 11 2 1.7 5.5-5.4 4 4.2v14.6l-11 11.2-1 .9v18.3h21.8l5.3-5.3z"/><path fill="#FF8AE2" d="M334 366.2v5.6l-3.7 3.6-2 1.8-1.7 1.8-4.8 4.8V404h3v-20.2l4.8-4.8 1.7-1.8 1.9-1.8 3.6-3.6V357l-7.9-7.8H326l8 7.8v9.2zM323.9 358l-1.4-1.5-5.5 5.4h2.9l4-3.9zM339.3 395h-3l5.3 5.4-5.3 5.3h3l5.2-5.3-5.2-5.3z"/><path fill="#93C2DB" d="M370.9 381.5v11.7h-8V381H357v-16.8H347v25.6h5.2v16.5h24.4v-24.8H371z"/><path fill="#FF8AE2" d="M380.8 364v-6.9h-7.4v7H371v17.4h5.6v16.4h4.3v-8h3.6V364h-3.6z"/><path fill="#9C4668" d="M375.7 349.6h-17.4v4.2H352v10.4h5V381h5.7v-16.8h10.6v-7h2.3v-7.6z"/><path fill="#FF8AE2" d="M333 243.7a.6.6 0 100-1.1.6.6 0 000 1.1zM331.7 258.3a.6.6 0 100-1.1.6.6 0 000 1.1zM334.2 266.2a.6.6 0 100-1 .6.6 0 000 1zM331.3 251.6a.6.6 0 100-1 .6.6 0 000 1zM336.3 238.2a.6.6 0 100-1 .6.6 0 000 1zM325.4 232.1a.6.6 0 100-1.1.6.6 0 000 1.1zM341.2 251a.6.6 0 100-1.2.6.6 0 000 1.2zM349.1 235.5a.6.6 0 100-1.2.6.6 0 000 1.2zM360 237.6a.6.6 0 100-1.1.6.6 0 000 1zM314 240.4a.6.6 0 100-1.2.6.6 0 000 1.2zM322.6 245.3a.6.6 0 100-1.1.6.6 0 000 1zM321.3 238a.6.6 0 100-1.1.6.6 0 000 1.1zM313.2 230.2a.6.6 0 100-1.1.6.6 0 000 1.1zM340.6 241.7a.6.6 0 100-1.1.6.6 0 000 1.1zM404.3 259.5a.6.6 0 100-1 .6.6 0 000 1zM435.5 243.3a.6.6 0 100-1.2.6.6 0 000 1.2zM415.2 269a.6.6 0 100-1.2.6.6 0 000 1.1zM410.7 264.1a.6.6 0 100-1.1.6.6 0 000 1.1zM416.5 276.2a.6.6 0 100-1.1.6.6 0 000 1zM445.3 249.5a.6.6 0 100-1.1.6.6 0 000 1.1zM404.9 270.8a.6.6 0 100-1.1.6.6 0 000 1.1zM435 251.6a.6.6 0 100-1 .6.6 0 000 1zM448.5 240.5a.6.6 0 100-1.1.6.6 0 000 1zM453.5 236.6a.6.6 0 100-1.1.6.6 0 000 1zM425.5 245.3a.6.6 0 100-1.1.6.6 0 000 1zM408.4 254a.6.6 0 100-1.1.6.6 0 000 1zM440.3 237.6a.6.6 0 100-1.1.6.6 0 000 1zM430.2 235.5a.6.6 0 100-1.2.6.6 0 000 1.2zM415.8 258.1a.6.6 0 100-1.1.6.6 0 000 1.1zM528 301a.6.6 0 100-1.2.6.6 0 000 1.1zM527.2 280.4a.6.6 0 100-1.1.6.6 0 000 1.1zM527.3 264.8a.6.6 0 100-1.1.6.6 0 000 1zM525.1 290.3a.6.6 0 100-1 .6.6 0 000 1zM519.9 317.3a.6.6 0 100-1 .6.6 0 000 1zM517.2 326.2a.6.6 0 100-1 .6.6 0 000 1zM519.9 272.8a.6.6 0 100-1.1.6.6 0 000 1.1zM529 315.8a.6.6 0 100-1.2.6.6 0 000 1.2zM520.5 300.6a.6.6 0 100-1.1.6.6 0 000 1zM515.9 310a.6.6 0 100-1.2.6.6 0 000 1.2zM514.4 282.4a.6.6 0 100-1.1.6.6 0 000 1.1zM235.5 323.5a.6.6 0 100-1.2.6.6 0 000 1.2zM252 320.4a.6.6 0 100-1 .6.6 0 000 1zM236 260.4a.6.6 0 100-1 .6.6 0 000 1zM241.3 239.5a.6.6 0 100-1.1.6.6 0 000 1zM250.7 229.5a.6.6 0 100-1 .6.6 0 000 1zM237.7 294.1a.6.6 0 100-1 .6.6 0 000 1zM237.2 316.5a.6.6 0 100-1 .6.6 0 000 1zM239.4 277.3a.6.6 0 100-1.1.6.6 0 000 1zM245.6 311.6a.6.6 0 100-1 .6.6 0 000 1zM242.4 319.6a.6.6 0 100-1.2.6.6 0 000 1.2zM245.2 228.6a.6.6 0 100-1 .6.6 0 000 1zM242.3 299.1a.6.6 0 100-1 .6.6 0 000 1zM250 303.3a.6.6 0 100-1.1.6.6 0 000 1zM236 230.4a.6.6 0 100-1 .6.6 0 000 1zM238.4 286.5a.6.6 0 100-1 .6.6 0 000 1zM432.9 357.8a.7.7 0 100-1.3.7.7 0 000 1.3zM445.8 352.8a.7.7 0 100-1.3.7.7 0 000 1.3zM440.8 359a.7.7 0 100-1.4.7.7 0 000 1.3zM448.3 361a.7.7 0 100-1.4.7.7 0 000 1.3zM438.7 363.3a.7.7 0 100-1.4.7.7 0 000 1.4zM438 378.9a.7.7 0 100-1.3.7.7 0 000 1.3zM437 370.5a.7.7 0 100-1.3.7.7 0 000 1.3zM354.8 357.8a.7.7 0 100-1.3.7.7 0 000 1.3zM359 361a.7.7 0 100-1.4.7.7 0 000 1.3zM370.9 353.5a.7.7 0 100-1.4.7.7 0 000 1.4zM367 359.6a.7.7 0 100-1.3.7.7 0 000 1.3zM360 367.5a.7.7 0 100-1.3.7.7 0 000 1.3zM360.6 356.4a.7.7 0 100-1.4.7.7 0 000 1.4zM359.6 376.8a.7.7 0 100-1.4.7.7 0 000 1.4z"/><path fill="#93C2DB" d="M697.4 54.4c0-1.5-3-2.2-3.5-3.2-.4-.6.6-1 1.4-.9.6 0 5.4.9 8.7.9 11.4.3 14.4-2.5 14.3-4-.1-1.6-4.5-2.4-5.1-3.4-.6-1 .2-2 4-2.6 4.1-.7 11-1 15.6-3.2 4.6-2 3.6-4.5-2.2-6.3-2.2-1-.8-2.3 3.2-5.4 4-3.1 14-13 10.8-18-2.7-3.8-7.6-1.6-11 2-2.7 2.6-8 8.1-9.8 8.2-3.5.3-.4-4.9-2.2-6.8-1.7-1.9-5.5 1.5-7.1 4.2-1.6 2.8-2.8 7.3-4.5 10.5-1.7 3.6-3.5 2.3-4 1-.5-1.2.2-6.2-3.2-6.8-3-.4-6.6 7.3-9.6 11.6a22.9 22.9 0 01-4.1 4.6c-1 .7-1.4.4-1.6 0-.4-.7 0-5-3-5.8-2.7-.7-5.2 3.8-8.7 8a22.3 22.3 0 01-11 6.4c-5.7 1.8-14.5 2.2-14.5 2.2s4.3 2 8 3c9 2.7 13.1 4.2 23.2 5.2 7.6.7 15.5 1.5 16-1.4 0 0 0 .1 0 0zM234.4 140.9a37.6 37.6 0 00-2-33 47.4 47.4 0 00-33-25.3s.1 6.2.4 8c1 7.4 2 15.2 6.7 20.4 4.2 4.8 9.7 7.1 15.3 10.2 15.8 8.8 12.6 19.7 12.6 19.7zM153 211.7s29.1-1.5 40 20c11.8 23 23.3 30.9 23.3 30.9s-23.8 3.2-35-10.4c-11.4-13.6-6.4-27.3-28.4-40.5zM693.2 157.2s-5.7-15.1 1.6-25c5.6-8 19.1-9.8 31.2-8.5 8.1.9 18.5-4.4 18.5-4.4s0 12-13.2 15.9c-7.3 2.1-13.8-1.1-24 5.7-13.2 8.8-14.1 16.3-14.1 16.3zM393.7 164.6a38 38 0 012.1-32.9c9.6-18.4 33-22 33-22s-2 15.1-9.3 23.7c-4.1 4.9-11.4 6.7-16.4 10.7-12 9.5-9.4 20.5-9.4 20.5zM634 186.5c-1-.7-38-14-4.6-41.2l22.9-18.4s.7 20.4-13.6 33.8c-14.3 13-4.7 25.8-4.7 25.8zM265.2 186.5c-.9-.7-37.9-14-4.5-41.2l22.8-18.4s.8 20.4-13.6 33.8c-14.1 13-4.7 25.8-4.7 25.8zM593.8 265.8s13-20 35-21.6c18.6-1.5 41.6 9.2 41.6 9.2s-18 15-40.9 12.6c-16.5-1.8-21.3-7.2-35.7-.2zM142.4 73c-2.9 0-3 8-3.4 15.6-.4 10 .5 14.3 2 23.6.5 3.8 1.9 8.4 1.9 8.4s1.5-8.7 4.1-14.3c1.9-4 4.1-7.7 7.8-10 4.5-2.8 9.3-4.8 9-7.5-.5-3.1-4.7-3.3-5.3-3.8-.3-.3-.6-.8.2-1.6a26 26 0 015.1-3.4c4.7-2.5 12.9-5 12.8-8-.1-3.5-5.2-3.3-6.3-4-1.2-.6-2.2-2.5 1.6-3.9 3.4-1.2 8-1.8 11-3 3-1.1 6.8-4.3 5.3-6.5-1.7-2-7.3.4-6.5-3 .4-2 6.5-6.4 9.6-8.7 4-2.9 6.9-7.5 3.4-10.7-4.6-3.8-15.7 4.7-19.4 8.3-3.6 3.6-5 4.7-5.8 2.5-1-5.9-3.3-7.2-6-3-2.7 4.3-4 11-5.1 15-1.1 3.9-2.4 4.4-3.3 3.8-.8-.7-1-5.3-2.6-5.5-1.5-.3-4.6 2.2-6 13.6-.3 3.3-.2 8.2-.2 8.7 0 1-.5 1.8-1 1.4-1-.7-1.3-4-2.9-4zM542 155.1c1.4-.3 1.4-3.4 2.3-4 .6-.5 1 .4 1.2 1.1.1.6.4 5.5 1 8.7 2 11.3 5.3 13.5 6.7 13 1.5-.4 1.4-4.8 2.3-5.6.8-.8 2-.2 3.4 3.5 1.5 3.8 3.2 10.4 6.3 14.5 3 4 5 2.4 5.6-3.6.5-2.2 2-1.2 6 2 3.9 3.2 15.3 10.8 19.7 6.8 3.1-3.3-.1-7.8-4.2-10.4-3.2-2-9.5-6-10-7.9-1-3.3 4.6-1.3 6-3.6 1.5-2.2-2.5-5-5.5-6-3-.9-7.6-1.2-11-2.1-3.9-1-3-3-1.8-3.8 1-.8 6-.9 5.9-4.5-.1-3-8.4-4.9-13.2-6.9-1.8-.7-3.6-1.9-5.2-3-.8-.8-.7-1.3-.4-1.7.6-.5 4.7-1 5-4.2 0-2.7-4.8-4.3-9.3-6.8a21 21 0 01-8.5-9.4c-2.9-5.2-5-13.5-5-13.5s-1 4.3-1.4 8.2c-.6 9.4-1.2 13.8 0 23.7.4 7.7 1.2 15.8 4 15.5z"/><path fill="#FF8AE2" d="M505.4 80.6c-.1.3-11.7 17.9-14.3 45.3-.2-2-.2-4.8-.3-6.9C494.3 95 504 80 504 80l1.3.7zM197.4 254c-6.3-3-8.9-8.3-11.8-14.4a55.6 55.6 0 00-9-14.5c-12-13-39.4-16-39.6-16l.2-1.6c1.1 0 28.2 3 40.7 16.5 4.7 5 7.1 10.2 9.4 14.8 2.8 5.8 5.1 10.8 10.9 13.5l-.8 1.7zM142.8 133.4c-.7-5.2-3.3-32.1 6-52 11-23.2 31.9-38.4 32.1-38.5l1 1.4c-.2 0-20.8 15-31.6 37.9-9.1 19.4-6.4 46-5.9 51l-1.6.2zM668.3 50c-14.4 0-27.3-3.2-30.8-4l.5-1.7c5 1.3 30.9 7.4 51.4 1 24.1-7.4 41.6-25.8 41.8-26l1.3 1.1c-.3.2-18.1 18.9-42.5 26.6-7 2.2-14.6 3-21.7 3zM582.1 182a111 111 0 01-34.5-35.9 82.9 82.9 0 01-9.2-35.2l1-5.3a96.7 96.7 0 009.7 39.7 110.3 110.3 0 0033.9 35.4l-.9 1.3zM237.1 125.3c0-1.4-.2-2.8-.4-4.2a117 117 0 00-28.6-28l-.9 1.4c.1 0 21.7 15 30 30.8zM273.4 141.6l-13.2 12.7c-7.8 7.3-10.6 14.8-8.5 23.5l2.5 2.2c-3.2-9.2-1-16.8 7.2-24.5l13.2-12.6-1.2-1.3zM641 144.2l-13.2 12.6c-6.3 6-9.3 12-9.1 18.8.5.7 1.2 1.4 1.9 2-1-7 1.7-13.3 8.5-19.7l13.1-12.6-1.2-1zM391.5 144.8c-.2 1.4-.5 2.9-.5 4.3a77.1 77.1 0 0127.7-27.8l-.8-1.4a85.6 85.6 0 00-26.4 24.9zM705 132c7.7-3.7 19.9-2.4 20-2.4l.2-1.7c-.6 0-12.8-1.4-21 2.6a31.5 31.5 0 00-13.1 12.3v3.4a32.3 32.3 0 0114-14.1zM585.6 274.3l-1.4-1c.2-.3 4.5-5.8 11.7-10.3 4-2.5 8.5-4.5 14.2-6.5 15.5-5.2 38.4-3.4 39.4-3.3l-.1 1.7c-.3 0-23.6-2-38.7 3.3-5.7 1.9-10 4-13.9 6.3-6.9 4.2-11.1 9.8-11.2 9.8z"/></svg>