<svg xmlns="http://www.w3.org/2000/svg" viewBox="0 0 100 100">
  <path d="M74.68 35.67c0-13.88-11.46-25.09-25.44-24.67-12.84.38-23.49 10.99-23.92 23.83-.22 6.6 2.16 12.65 6.19 17.19 5.53 6.24 9.05 14 9.05 22.33v4.51c0 1.16.94 2.1 2.1 2.1h14.65a2.1 2.1 0 002.1-2.1V75.1c0-8.28 2.8-16.47 8.49-22.48a24.42 24.42 0 006.78-16.95z"/>
  <path d="M47.32 47.73h5.36v33.25h-5.36zM56.67 40.29h-.41c-1.97 0-3.58 1.6-3.58 3.58v3.98h3.98c1.97 0 3.58-1.6 3.58-3.58v-.41c0-1.97-1.6-3.57-3.57-3.57zM39.76 43.86v.41c0 1.97 1.6 3.58 3.58 3.58h3.98v-3.98c0-1.97-1.6-3.58-3.58-3.58h-.41c-1.97 0-3.57 1.6-3.57 3.57zM57.12 83.13H42.88c-.7 0-1.27.64-1.27 1.42v1.08c0 .79.57 1.42 1.27 1.42h.57c.25 1.12 1.11 1.96 2.18 1.96h8.75c1.07 0 1.93-.84 2.18-1.96h.57c.7 0 1.27-.64 1.27-1.42v-1.08c-.02-.79-.58-1.42-1.28-1.42z"/>
</svg>
