<svg xmlns="http://www.w3.org/2000/svg" viewBox="0 0 100 100">
  <path d="M74.54 53.67H25.46c-3.02 0-5.47-2.45-5.47-5.47V32.75c0-3.02 2.45-5.47 5.47-5.47h49.09c3.02 0 5.47 2.45 5.47 5.47V48.2c0 3.02-2.45 5.47-5.48 5.47zM37.15 70.54h25.71v13.2H37.15z"/>
  <path d="M81.95 89.35h-63.9v-2.32l19.1-3.29h25.7l19.1 3.29zM21.81 52.22l14.26 17.02c.69.82 1.71 1.3 2.78 1.3h22.7c1.08 0 2.1-.48 2.79-1.31l13.78-16.55M21.66 28.97l14.26-17.02c.69-.82 1.71-1.3 2.78-1.3h22.7c1.08 0 2.1.48 2.79 1.31l13.78 16.55"/>
  <circle cx="50" cy="40.47" r="6.66"/>
  <circle cx="37.15" cy="40.47" r="2.12"/>
</svg>
