<svg xmlns="http://www.w3.org/2000/svg" viewBox="0 0 100 100">
  <path d="M10.36 52.09c6.33-13.72 21.55-23.41 39.61-23.41 18.04 0 33.24 9.76 39.59 23.45"/>
  <path d="M10.87 52.02c10.69-3.11 24.55-5.01 39.34-5.01 15 0 28.67 1.92 39.43 5.12M25.03 42.11c6.85-2.8 15.72-4.51 25.19-4.51 9.61 0 18.36 1.73 25.26 4.61"/>
  <path d="M10.36 52.16c6.33 11.23 21.55 19.16 39.61 19.16 18.04 0 33.24-7.99 39.59-19.2M49.96 35.9v3.41M56.49 36.13v3.41M63.03 36.99v3.41M69.58 38.47v3.41M30.81 38.47v3.41M37.32 36.99v3.41M43.85 36.13v3.41"/>
</svg>
