<svg xmlns="http://www.w3.org/2000/svg" viewBox="0 0 100 100">
  <path d="M27.29 24.17V85.1c0 .8.36 1.56 1 2.03.47.35 1.09.71 1.83.89.34.08.7.13 1.07.12H68.8c1.2.03 2.21-.49 2.9-1 .64-.48 1-1.24 1-2.04V24.17"/>
  <path d="M67.16 26.91c3.52-.02 4.86-1.03 5.32-2.04.46-1.01.04-2.01.04-2.01l-4.4-9.37c-1.45-3.04-5.65-2.8-5.65-2.8H37.52s-4.2-.23-5.65 2.8l-4.4 9.37s-.42 1 .04 2.01c.46 1.01 1.8 2.02 5.32 2.04H67.1M33.21 88.16l-.58.94c-.08.13-.23.21-.39.21h-2.11l-.02-1.27M35.6 88.28v1.04h2.09c.17 0 .32-.09.4-.24l.48-.89M66.71 88.16l.58.94c.08.13.23.21.39.21h2.11l.02-1.27M64.33 88.28v1.04h-2.09c-.17 0-.32-.09-.4-.24l-.48-.89"/>
  <ellipse cx="31.85" cy="24.01" rx="1.6" ry=".91"/>
  <ellipse cx="68.14" cy="24.01" rx="1.6" ry=".91"/>
</svg>
