<svg xmlns="http://www.w3.org/2000/svg" viewBox="0 0 100 100">
  <circle cx="50" cy="50" r="38.31"/>
  <path d="M39.67 13.21c.24 2.54 1.67 4.78 2.66 7.13.99 2.35 1.49 5.23.01 7.31-1.59 2.23-4.69 2.56-7.37 3.15-2.68.59-5.74 2.3-5.62 5.04 3.95.58 7.6 2.95 9.74 6.33 1.09 1.72 1.82 3.7 3.24 5.15 1.42 1.46 3.92 2.19 5.47.88.51-.43.86-1.04 1.37-1.46 2.21-1.84 5.72 1.06 5.54 3.93-.19 2.87-2.46 5.09-4.53 7.08-2.07 1.99-4.25 4.38-4.14 7.25.04 1.05.38 2.17-.08 3.11-.46.93-1.52 1.35-2.35 1.97-1.84 1.39-2.49 3.8-3.57 5.84-1.08 2.03-3.34 3.96-5.48 3.11-1.71-.68-2.36-2.8-2.24-4.64s.8-3.6.83-5.44c.06-3.64-2.36-6.77-3.81-10.11-2.05-4.73-2.17-10.06-3.62-15-1.45-4.94-5.02-9.97-10.15-10.4M63.8 15.41c-.71 2.41-3.21 3.78-4.65 5.85a7.486 7.486 0 00-1.24 5.38c.06.38.16.78.41 1.08.39.47 1.04.59 1.64.69 2.01.32 4.52.42 5.58-1.32.29-.47.42-1.03.73-1.49.72-1.07 2.23-1.31 3.49-1.03 1.26.27 2.4.94 3.63 1.32 2.19.69 3.13.57 5.42.34M85.87 39.31c-2.51 1.56-5.72 1.36-8.6.71-2.88-.65-5.71-1.71-8.67-1.69-.59 0-1.22.06-1.71.4-.44.3-.72.79-.98 1.26-.86 1.57-1.73 3.17-2.01 4.94-.29 1.76.12 3.74 1.47 4.91 2.75 2.38 8.1.6 9.88 3.77.48.86.54 1.89.58 2.88.08 1.91.13 3.94-.84 5.58-.72 1.22-2.01 2.55-1.35 3.8.32.61 1.02.91 1.55 1.36 2.22 1.87 1.61 6.25 4.33 7.24"/>
</svg>
