<svg xmlns="http://www.w3.org/2000/svg" viewBox="0 0 100 100">
  <path d="M82.22 31.5H17.78c-2.36 0-4.27 1.91-4.27 4.27v32.77c0 2.36 1.91 4.27 4.27 4.27h64.44c2.36 0 4.27-1.91 4.27-4.27V35.77c0-2.36-1.91-4.27-4.27-4.27z"/>
  <path d="M85.6 28.18H64.66l-2.09-2.75a2.62 2.62 0 00-2.1-1.04H39.56c-.82 0-1.6.39-2.1 1.04l-2.09 2.75H14.4a4.11 4.11 0 00-4.11 4.11v37.56c0 .81.26 1.6.75 2.26l1.49 2a3.77 3.77 0 003.03 1.52H84.3c1.17 0 2.27-.54 2.99-1.46l1.63-2.11c.51-.66.79-1.48.79-2.31V32.29a4.11 4.11 0 00-4.11-4.11z"/>
  <path d="M59.35 51.2c0 8.89-9.35 13.53-9.35 13.53s-9.35-5.03-9.35-13.53v-8.96L50 39.57l9.35 2.67v8.96z"/>
</svg>
