<svg xmlns="http://www.w3.org/2000/svg" viewBox="0 0 100 100">
  <path d="M87.17 47.16c-1.43 5.76-5.03 9.33-10.8 10.74-.28.07-52.44.04-52.7-.02-6.02-1.34-10.19-5.97-10.95-12.21-.68-5.5 2.45-11.12 7.69-13.77.47-.24.59-.5.58-.99-.06-1.8.12-3.58.62-5.31 2.19-7.55 7.1-12.44 14.78-14.07 7.54-1.6 13.93.8 18.98 6.65.42.49.67.63 1.3.29 9.77-5.31 21.7 1.27 22.46 12.37.04.56.2.84.71 1.1 9.33 2.76 7.39 14.96 7.33 15.22zM43.74 66.26L30.13 79.87M54.15 66.89L32.72 88.31M56.74 75.33L43.13 88.94M87.17 47.16c-1.43 5.76-5.03 9.33-10.8 10.74-.28.07-52.44.04-52.7-.02-6.02-1.34-10.19-5.97-10.95-12.21-.68-5.5 2.45-11.12 7.69-13.77.47-.24.59-.5.58-.99-.06-1.8.12-3.58.62-5.31 2.19-7.55 7.1-12.44 14.78-14.07 7.54-1.6 13.93.8 18.98 6.65.42.49.67.63 1.3.29 9.77-5.31 21.7 1.27 22.46 12.37.04.56.2.84.71 1.1 9.33 2.76 7.39 14.96 7.33 15.22zM30.13 79.87l13.61-13.61M54.15 66.89L32.72 88.31M43.13 88.94l13.61-13.61"/>
</svg>
