<svg xmlns="http://www.w3.org/2000/svg" viewBox="0 0 21 21">
  <defs/>
  <path fill="#FFF" fill-rule="evenodd" d="M10.39.204C4.773.204.204 4.774.204 10.39s4.57 10.186 10.186 10.186 10.185-4.57 10.186-10.186c0-5.617-4.57-10.186-10.186-10.186zm6.701 4.808a8.562 8.562 0 011.902 5.246 21.35 21.35 0 00-3.981-.385c-.632 0-1.296.032-1.962.114a26.168 26.168 0 00-.723-1.619c3.01-1.242 4.464-2.966 4.764-3.356zM10.39 1.798c2.17 0 4.154.808 5.67 2.138-.241.328-1.542 1.955-4.445 3.055a46.457 46.457 0 00-3.166-4.97 8.566 8.566 0 011.94-.223zm-3.697.836c.297.409 1.77 2.467 3.148 4.909-3.699.973-6.984 1.037-7.777 1.037H1.98a8.636 8.636 0 014.713-5.946zm-4.908 7.77c0-.072.001-.143.003-.213l.226.001c1.067 0 4.774-.089 8.594-1.224.232.454.453.915.657 1.376-.095.027-.19.056-.285.086-4.3 1.391-6.665 5.073-7.029 5.675a8.569 8.569 0 01-2.166-5.702zm8.605 8.604a8.563 8.563 0 01-5.249-1.791c.246-.483 2.03-3.7 6.743-5.343a.136.136 0 00.01-.003c1.181 3.081 1.682 5.667 1.82 6.468a8.55 8.55 0 01-3.324.67zm4.873-1.517c-.115-.663-.579-3.086-1.65-6.042.601-.093 1.186-.13 1.733-.13 1.799 0 3.206.394 3.532.494a8.62 8.62 0 01-3.615 5.678z" opacity=".8"/>
</svg>
