<svg xmlns="http://www.w3.org/2000/svg" viewBox="0 0 748 748"><defs><mask id="mask"><circle cx="374" cy="374" r="371.8" class="st0"/></mask><filter id="blur" width="150%" height="150%"><feGaussianBlur in="Source" stdDeviation="60"/></filter></defs><style>.st0{fill:#fff}.st1{fill:#0db14b}.st2{fill:#fdb913}.st3{fill:#f36f21}.st4{fill:#c9234a}.st5{fill:#645faa}.st6{fill:#0089cf}</style><g mask="url(#mask)"><g filter="url(#blur)"><path d="M374 374L914.8 61.8a624.4 624.4 0 010 624.4L374 374z" class="st1"/><path d="M374 374l540.8 312.2A625 625 0 01374 998.5V374z" class="st2"/><path d="M374 374v624.4a624.4 624.4 0 01-540.8-312.2L374 374z" class="st3"/><path d="M374 374l-540.8 312.2a624.4 624.4 0 010-624.4L374 374z" class="st4"/><path d="M374 374L-166.8 61.8A625 625 0 01374-250.5V374z" class="st5"/><path d="M374 374v-624.4A624.3 624.3 0 01914.8 61.8L374 374z" class="st6"/></g></g><circle cx="374" cy="374" r="358.7" class="st0"/><path d="M374 255.6c2-3.2 5.3-6.6 8.8-8 6.1-2.8 14.2-1.6 19.2 2.8 4.8 4.3 7.2 10.3 6.1 17 1.2-.2 2.4-1 3.6-1.4 7.5-2.1 15.3.2 20.1 6.6 3.6 4.6 4.5 11.6 2.4 17.2-1.1 2.8-2.9 5.3-5.3 7.4l.2.2c6.9.3 13.7 5.7 15.8 12.3 2.3 6.7.3 13.8-4.6 18.6-4 3.9-9.1 5.3-14.8 5.2H322.3c-8.5.2-15-3.6-18.6-11.1-2.8-6.5-1.4-14.7 3.8-19.7 3.3-3.4 7.3-4.8 11.7-5.5-5-4.6-7.4-11-6-17.7 1-5.5 5.7-11.1 11.1-13 4.7-1.9 11.2-1.6 15.5 1l.2-.2c-1.3-7.5 2-14.2 8.2-18.4 5.5-3.7 14.4-3.6 19.8.3 2.5 1.5 4.5 4.1 6 6.4" class="st0"/><path d="M403.2 258.4c2.2 4.5.9 10.3-1.4 14.4l-17.9 40.3-.2.2-6.5-40.9c-.5-3.9 3.7-5.6 6.1-7.5-.1-.6-.8-.5-1.2-.8l-6.1-.1-.2-.2c0-5.1 2.8-9.8 7.4-12.2 4.8-2.8 11.6-2 15.8 1.5 1.9 1.6 3.4 3.4 4.2 5.3" class="st5"/><path d="M370.2 257c1.5 2.7 2.3 5.8 1.8 9.2l-7.3 46.8c0 .1 0 .1-.1.1l-1.9-3.8-18.3-40.9c-1.7-5.3-.1-10.8 3.7-14.5 3.9-3.9 10.2-5 15.3-2.9 2.6 1.3 5.2 3.4 6.8 6" class="st4"/><path d="M429.7 276.7c2.5 4.2 1.9 10.6-.8 14.5-1.7 2.7-4.5 4.1-6.9 5.9l-37.9 26h-.1l.4-1.2 20.1-45.4c3-5.3 8.8-8.1 14.8-7.2 4.2.7 8.4 3.4 10.4 7.4" class="st6"/><path d="M343.5 276.5l20.9 46.6h-.3L321.9 294c-4.3-3.6-6.1-9-4.6-14.5 1.1-4.1 4.5-7.9 8.6-9.5 6.6-2.3 14.1.2 17.6 6.5" class="st3"/><path d="M440.7 309.7c2.1 4.4 1.3 10.5-1.7 14.3-3 3.6-7 5.6-11.7 5.5h-45l37.7-26.2c3.7-2.4 9.3-2.8 13.3-.9 3.1 1.2 6 4.2 7.4 7.3" class="st1"/><path d="M307.5 309.7c-2.1 4.4-1.3 10.5 1.7 14.3 3 3.6 7 5.6 11.6 5.5h45l-37.7-26.2c-3.7-2.4-9.3-2.8-13.3-.9-3 1.2-5.9 4.2-7.3 7.3" class="st2"/><g><path d="M226.7 356.4c-21.9 0-39.6 17.8-39.6 39.6a39.7 39.7 0 0039.6 39.6c21.9 0 39.6-17.8 39.6-39.6.1-21.8-17.7-39.6-39.6-39.6zm0 71.4c-17.6 0-31.8-14.3-31.8-31.8s14.3-31.8 31.8-31.8c17.6 0 31.8 14.3 31.8 31.8.1 17.6-14.2 31.8-31.8 31.8zM568.4 396.5c-2.1-1.1-15.1-7.8-16.9-8.7-6.8-3.5-9.2-6.5-9.2-11.7 0-7.2 5.9-11.9 15.1-11.9 5.4 0 10.6 2.4 13.7 4.1.6.3 1.2.5 1.9.5 2.1 0 3.9-1.8 3.9-3.9 0-1.4-.8-2.7-1.9-3.4-3.9-2.1-10.4-5.1-17.5-5.1-13.5 0-22.9 8.1-22.9 19.7 0 10.4 6.8 15.3 13.5 18.7 1.9 1 15 7.7 16.9 8.7 5.2 2.7 8 6.8 8 11.4 0 6.3-5.3 12.9-15.1 12.9-9.5 0-17-6.4-19-8.4l-.6-.6-5.8 5.3.7.7c2.6 2.5 11.9 10.8 24.7 10.8 14.3 0 22.9-10.5 22.9-20.7-.1-7.6-4.5-14.3-12.4-18.4zM145.5 364.2c8.5 0 16.5 3.3 22.5 9.3 1.4 1.4 4.1 1.4 5.5 0a3.86 3.86 0 000-5.4l-.5-.5a39.22 39.22 0 00-27.5-11.1 39.7 39.7 0 00-39.6 39.6 39.63 39.63 0 0068.8 26.8l-5.5-5.5a31.67 31.67 0 01-23.6 10.6c-17.5 0-31.8-14.3-31.8-31.8-.2-17.7 14.1-32 31.7-32zM414.1 364.2c8.5 0 16.5 3.3 22.5 9.3 1.4 1.4 4.1 1.4 5.5 0 .7-.7 1.2-1.7 1.2-2.7 0-1-.4-2-1.2-2.7l-.5-.5a39.22 39.22 0 00-27.5-11.1 39.7 39.7 0 00-39.6 39.6 39.63 39.63 0 0068.8 26.8l-5.5-5.5a31.67 31.67 0 01-23.6 10.6c-17.6 0-31.8-14.3-31.8-31.8-.1-17.7 14.2-32 31.7-32zM347 356.4c-1.5 0-2.6.9-3.2 2.2-.6 1.2-23.3 57.3-23.3 57.3s-22.7-56.1-23.3-57.3c-.6-1.2-1.8-2.2-3.3-2.2-1.7 0-3 1.3-3.4 2.8-.5 1.6-13.2 72.2-13.2 72.2 0 .2-.1.5-.1.7 0 1.9 1.6 3.5 3.5 3.5 1.7 0 3.1-1.2 3.5-2.8l11.1-60.4s21.4 52.8 22 54.1c.6 1.3 1.8 2.2 3.3 2.2 1.5 0 2.6-1 3.3-2.2.6-1.3 22-54.1 22-54.1l11.5 62.8h7.2s-13.5-74.4-13.9-76c-.7-1.6-2-2.8-3.7-2.8zM487.9 356.4c-1.5 0-2.6 1-3.3 2.2-.6 1.3-29.3 72.2-29.3 72.2-.2.4-.3.9-.3 1.4 0 1.9 1.6 3.5 3.5 3.5 1.5 0 2.7-.9 3.3-2.2l11.1-27.4h29.9l11.9 29.2h7.6s-30.6-75.4-31.2-76.6c-.6-1.3-1.7-2.3-3.2-2.3zm-11.8 41.8l11.8-29 11.8 29h-23.6zM638.2 356.8h-44.1a3.9 3.9 0 000 7.8h18.5v70.6h7.1v-70.6h18.5a3.9 3.9 0 000-7.8z"/></g><path d="M187.6 485c0 12.9-10.5 23.5-23.4 23.5-12.8 0-23.3-10.6-23.3-23.5 0-12.8 10.5-23.4 23.3-23.4a23.5 23.5 0 0123.4 23.4zm-4.6 0c0-10.3-8.4-18.8-18.8-18.8-10.3 0-18.7 8.5-18.7 18.8 0 10.4 8.4 18.9 18.7 18.9 10.4 0 18.8-8.5 18.8-18.9zm21 3.7v17.7c0 1.2-.9 2.1-2.1 2.1-1.2 0-2.1-.9-2.1-2.1V464c0-1.2 1-2.1 2.1-2.1h13.3a13.4 13.4 0 010 26.8H204zm11.2-4.6c4.9 0 8.8-4 8.8-8.8 0-4.9-3.9-8.8-8.8-8.8H204V484h11.2zm29-17.5v14.8h20.2c1.3 0 2.3 1 2.3 2.3 0 1.2-1 2.3-2.3 2.3h-20.2v17.5h24.1v4.6H242c-1.2 0-2.1-.9-2.1-2.1v-42c0-1.2.9-2.2 2.1-2.2h24.3c1.3 0 2.3 1 2.3 2.3 0 1.3-1 2.3-2.3 2.3h-22.1v.2zm68.1-4.6h4.2v44.4c0 1.2-.9 2.1-2.1 2.1-.6 0-1.2-.3-1.6-.8-.4-.4-29.1-37.9-29.1-37.9v36.6c0 1.2-1 2.1-2.1 2.1-1.2 0-2.1-.9-2.1-2.1v-42.7c0-1.2.9-2.1 2.1-2.1.6 0 1.2.3 1.6.8.4.4 29.1 37.9 29.1 37.9V462zm59 34.3c0 6-5.1 12.2-13.5 12.2-7.5 0-13-4.9-14.6-6.3l-.4-.4 3.4-3 .3.3c1.2 1.2 5.6 4.9 11.2 4.9 5.8 0 8.9-3.9 8.9-7.6 0-2.8-1.7-5.3-4.7-6.9-1.2-.6-8.9-4.6-10-5.2-4-2-8-4.9-8-11 0-6.9 5.6-11.6 13.5-11.6 4.2 0 8.1 1.7 10.3 3 .7.4 1.2 1.2 1.2 2 0 1.2-1 2.3-2.3 2.3-.4 0-.8-.1-1.1-.3-1.8-1-4.9-2.4-8.1-2.4-5.4 0-8.9 2.7-8.9 7 0 3 1.4 4.9 5.4 6.9 1.1.6 8.8 4.5 10 5.2 4.7 2.3 7.4 6.4 7.4 10.9zm54.9-11.3c0 12.9-10.5 23.5-23.4 23.5-12.8 0-23.3-10.6-23.3-23.5 0-12.8 10.5-23.4 23.3-23.4a23.5 23.5 0 0123.4 23.4zm-4.6 0c0-10.3-8.4-18.8-18.8-18.8-10.3 0-18.7 8.5-18.7 18.8 0 10.4 8.4 18.9 18.7 18.9 10.4 0 18.8-8.5 18.8-18.9zm48.9-23h4.2v28c0 10.2-8.3 18.6-18.6 18.6-10.2 0-18.5-8.3-18.5-18.6v-26.3c0-1.2.9-2.1 2.1-2.1 1.1 0 2.2.9 2.2 2.1V490c0 7.7 6.6 14 14.3 14 7.7 0 14.3-6.2 14.3-14v-28zm39.4 25.7l8.4 20.5h-4.5l-8-19.5h-12.1v17.8c0 1.2-1 2.1-2.1 2.1s-2.1-.9-2.1-2.1v-42.3c0-1.2.9-2.1 2.1-2.1H505c7.4 0 13.4 6 13.4 13.4-.1 5.4-3.6 10.2-8.5 12.2zm3.8-12.4c0-4.9-4-8.8-8.8-8.8h-11.2V484h11.2c4.8 0 8.8-3.8 8.8-8.7zm17.4 9.7c0 10.3 8.4 18.9 18.8 18.9 5.5 0 10.5-2.4 14-6.2l3.3 3.2c-4.3 4.7-10.4 7.6-17.3 7.6-12.9 0-23.3-10.6-23.3-23.5a23.34 23.34 0 0139.6-16.8l.3.3c.4.4.7 1 .7 1.6 0 .6-.3 1.2-.7 1.6-.9.9-2.4.9-3.2 0-3.6-3.6-8.2-5.5-13.3-5.5a18.8 18.8 0 00-18.9 18.8zm50.4-18.4v14.8h20.2c1.3 0 2.3 1 2.3 2.3 0 1.2-1 2.3-2.3 2.3h-20.2v17.5h24.1v4.6h-26.3c-1.2 0-2.1-.9-2.1-2.1v-42c0-1.2.9-2.2 2.1-2.2h24.3c1.3 0 2.3 1 2.3 2.3 0 1.3-1 2.3-2.3 2.3h-22.1v.2z" class="st6"/></svg>