<svg xmlns="http://www.w3.org/2000/svg" viewBox="0 0 1468 353.5" fill="#0089cf">
  <path d="M148.2 279.4c0 40.7-33.1 74-73.8 74-40.5 0-73.6-33.3-73.6-74 0-40.5 33.1-73.8 73.6-73.8 40.7 0 73.8 33.3 73.8 73.8zm-14.5 0c0-32.5-26.6-59.3-59.3-59.3-32.5 0-59.1 26.8-59.1 59.3 0 32.7 26.6 59.5 59.1 59.5 32.7 0 59.3-26.8 59.3-59.5zM199.8 291.1v55.8c0 3.7-2.9 6.5-6.5 6.5-3.7 0-6.7-2.9-6.7-6.5V213.3c0-3.7 3.1-6.5 6.7-6.5h41.9c23.3 0 42.1 18.8 42.1 42.1S258.5 291 235.2 291h-35.4zm35.3-14.6c15.3 0 27.6-12.5 27.6-27.6 0-15.3-12.3-27.6-27.6-27.6h-35.4v55.2h35.4zM326.8 221.3v46.8h63.6c4.1 0 7.4 3.3 7.4 7.4 0 3.9-3.3 7.2-7.4 7.2h-63.6v55.2h76.1v14.5H320c-3.7 0-6.5-2.9-6.5-6.5V213.5c0-3.7 2.9-6.8 6.5-6.8h76.5c4.1 0 7.2 3.3 7.2 7.2 0 4.1-3.1 7.4-7.2 7.4h-69.7zM541.3 206.8h13.3v140.1c0 3.7-2.9 6.5-6.5 6.5-2 0-3.7-1-5.1-2.5-1.2-1.4-91.8-119.4-91.8-119.4v115.4c0 3.7-3.1 6.5-6.7 6.5-3.7 0-6.5-2.9-6.5-6.5V212.1c0-3.7 2.9-6.5 6.5-6.5 2 0 3.7 1 5.1 2.5 1.2 1.4 91.8 119.4 91.8 119.4V206.8zM727.3 315c0 18.8-16 38.5-42.7 38.5-23.7 0-41.1-15.3-46-20l-1.2-1.4 10.8-9.6 1 1c3.9 3.7 17.6 15.5 35.4 15.5 18.4 0 28.2-12.3 28.2-23.9 0-8.8-5.3-16.8-14.9-21.7-3.7-2-28-14.5-31.5-16.4-12.5-6.3-25.2-15.5-25.2-34.8 0-21.7 17.6-36.6 42.5-36.6 13.3 0 25.4 5.5 32.5 9.4 2.2 1.2 3.7 3.7 3.7 6.3 0 3.9-3.3 7.2-7.2 7.2-1.2 0-2.5-.2-3.5-.8-5.7-3.3-15.5-7.6-25.6-7.6-17 0-28 8.6-28 22.1 0 9.6 4.5 15.3 17 21.7 3.5 1.8 27.6 14.3 31.5 16.4 14.8 7.5 23.2 20.4 23.2 34.7zM900.7 279.4c0 40.7-33.1 74-73.8 74-40.5 0-73.6-33.3-73.6-74 0-40.5 33.1-73.8 73.6-73.8 40.7 0 73.8 33.3 73.8 73.8zm-14.5 0c0-32.5-26.6-59.3-59.3-59.3-32.5 0-59.1 26.8-59.1 59.3 0 32.7 26.6 59.5 59.1 59.5 32.7 0 59.3-26.8 59.3-59.5zM1040.4 206.8h13.3V295c0 32.3-26.2 58.5-58.5 58.5-32.1 0-58.3-26.2-58.3-58.5v-82.8c0-3.7 2.9-6.5 6.5-6.5s6.8 2.9 6.8 6.5V295c0 24.3 20.9 44 45 44 24.3 0 45.2-19.6 45.2-44v-88.2zM1164.5 287.8l26.4 64.6h-14.1l-25.2-61.6h-38.2v56c0 3.7-3.1 6.5-6.7 6.5s-6.5-2.9-6.5-6.5V213.3c0-3.7 2.9-6.5 6.5-6.5h42.1c23.3 0 42.1 18.8 42.1 42.1 0 17.6-10.8 32.5-26.4 38.9zm11.9-38.9c0-15.3-12.5-27.6-27.6-27.6h-35.4v55h35.4c15.1 0 27.6-12 27.6-27.4zM1231.2 279.4c0 32.5 26.6 59.5 59.3 59.5 17.4 0 33.1-7.6 44-19.6l10.4 10.2c-13.5 14.7-32.9 23.9-54.4 23.9-40.7 0-73.6-33.5-73.6-74 0-40.7 32.9-73.8 73.6-73.8 19.2 0 37.4 7.4 51.3 20.7l.8 1c1.4 1.2 2.2 3.1 2.2 5.1 0 1.8-.8 3.7-2.2 5.1-2.7 2.7-7.6 2.7-10.2 0-11.2-11.2-26-17.4-41.9-17.4-32.7 0-59.3 26.6-59.3 59.3zM1390.3 221.3v46.8h63.6c4.1 0 7.4 3.3 7.4 7.4 0 3.9-3.3 7.2-7.4 7.2h-63.6v55.2h76.1v14.5h-82.8c-3.7 0-6.5-2.9-6.5-6.5V213.5c0-3.7 2.9-6.8 6.5-6.8h76.5c4.1 0 7.2 3.3 7.2 7.2 0 4.1-3.1 7.4-7.2 7.4h-69.8z"/>
</svg>
