<svg xmlns="http://www.w3.org/2000/svg" viewBox="0 0 300 300"><style>.st0{fill:#6d6e71}.st1{fill:#d22128}.st9{fill:#b0afb0}</style><path d="M77.2 113.2h2.3v6.2h.8v-6.2h2.2v-.8h-5.3zM91.4 115.6h-4.2v-3.2h-.8v7h.8v-3.1h4.2v3.1h.8v-7h-.8zM97.7 118.7v-2.4h3.5v-.8h-3.5v-2.3h3.9v-.7h-4.7v6.9h4.8v-.7z" class="st0"/><path d="M87.8 127.3L71.2 167h4.1l5.1-12.4h17.9l5.2 12.4h4.2L91 127.3h-3.2zm-6.6 24.2l8.2-19.6 8 19.6H81.2zM128.3 127.3h-16.4V167h3.9v-14.7h12.9c6.8 0 11.4-6.1 11.4-12.6-.1-6.1-5-12.4-11.8-12.4zm.1 21.6h-12.7v-18.1h12.4c4.4 0 8.1 4 8.1 9-.1 4.8-3.1 9.1-7.8 9.1zM154.4 127.3L137.8 167h4.1l5.1-12.4h17.8L170 167h4.2l-16.6-39.7h-3.2zm-6.5 24.2l8.2-19.6 8 19.6h-16.2zM193 163.8c-8.4 0-14.9-8-14.9-16.7 0-8 5.2-16.5 14.7-16.5 4.3 0 9.2 1.8 11.7 7l3.1-1.9c-2.5-5.1-7.6-8.7-14.7-8.7-12 0-18.8 10.2-18.8 19.8 0 10 7.7 20.5 18.6 20.5 6.1 0 13.1-3.3 15.7-9.2l-3.2-1.7c-2.5 5.2-7.8 7.4-12.2 7.4zM241.3 145h-23.5v-17.7h-3.9V167h3.9v-18.5h23.5V167h3.9v-39.7h-3.9zM258 163.6v-15.2h19.4v-3.3H258v-14.3h22.3v-3.5h-26.1V167h26.6v-3.4z" class="st1"/><path d="M75.1 179.4c-.3-.1-.8-.3-1.4-.5-.5-.1-.8-.3-1.1-.4-.3-.1-.5-.3-.7-.5a.9.9 0 01-.3-.7c0-.3.1-.6.5-.8.3-.2.7-.3 1.3-.3.3 0 .7.1 1.1.2.4.1.8.3 1.1.5l.4-.9-1.2-.6c-.5-.1-.9-.2-1.3-.2-.6 0-1.1.1-1.5.3-.4.2-.8.4-1 .8-.2.3-.4.7-.4 1.1 0 .5.1.9.4 1.2.3.3.6.5.9.7.4.1.8.3 1.4.5.5.1.8.3 1.1.4.3.1.5.3.7.5.2.2.3.5.3.8 0 .4-.2.7-.5.9-.4.2-.8.3-1.4.3a3.8 3.8 0 01-2.7-1.2l-.4.8c.4.4.9.7 1.4.9.6.2 1.1.3 1.8.3.6 0 1.1-.1 1.6-.3.5-.2.8-.5 1.1-.8.2-.3.4-.7.4-1.2s-.1-.9-.4-1.2c-.6-.2-.9-.4-1.2-.6zM87.3 175.8c-.7-.4-1.4-.6-2.2-.6-.8 0-1.6.2-2.2.6s-1.2.9-1.6 1.5c-.4.6-.6 1.3-.6 2.1s.2 1.5.6 2.1c.4.7.9 1.2 1.6 1.5s1.4.6 2.2.6a4.63 4.63 0 003.8-2.1c.4-.6.6-1.3.6-2.1s-.2-1.5-.6-2.1c-.4-.6-.9-1.1-1.6-1.5zm.7 5.3c-.3.5-.7.9-1.2 1.2-.5.3-1.1.4-1.7.4-.6 0-1.2-.1-1.7-.4-.5-.3-.9-.7-1.2-1.2-.3-.5-.5-1.1-.5-1.7a3.45 3.45 0 011.7-2.9c.5-.3 1.1-.4 1.7-.4.6 0 1.2.1 1.7.4.5.3.9.7 1.2 1.2a3.1 3.1 0 010 3.4zM94.5 183.6h1V180h3.9v-.9h-3.9v-3h4.4v-.9h-5.4zM104 176.2h2.7v7.4h.9v-7.4h2.8v-1H104zM123.3 182.5l-2.3-7.3h-1l-2.2 7.3-2.3-7.3h-1l2.7 8.4h1l2.3-7 2.3 7h.9l2.8-8.4h-1zM133.1 175.2l-3.7 8.4h1l.9-2.1h4.5l.9 2.1h1l-3.7-8.4h-.9zm-1.3 5.4l1.9-4.2 1.9 4.2h-3.8zM148.4 179.8c.3-.5.5-1 .5-1.7 0-.9-.3-1.6-.9-2.1-.6-.5-1.4-.7-2.4-.7h-3.2v8.4h.9V181H146.1l1.8 2.7h1.1l-2-2.8c.7-.3 1.1-.6 1.4-1.1zm-2.7.3h-2.2v-3.9h2.2c.7 0 1.3.1 1.8.5.4.3.6.8.6 1.4 0 .6-.2 1.1-.6 1.5s-1.1.5-1.8.5zM155.3 179.8h4.2v-.9h-4.2V176.1h4.7v-.9h-5.7v8.4h5.8v-.9h-4.8zM172.5 183.6h1V180h3.9v-.9h-3.9v-3h4.4v-.9h-5.4zM188.4 175.8c-.6-.4-1.4-.6-2.2-.6-.8 0-1.6.2-2.2.6-.7.4-1.2.9-1.6 1.5-.4.6-.6 1.3-.6 2.1s.2 1.5.6 2.1c.4.7.9 1.2 1.6 1.5a4.28 4.28 0 004.4 0c.7-.4 1.2-.9 1.6-1.5.4-.6.6-1.3.6-2.1s-.2-1.5-.6-2.1c-.3-.6-.9-1.1-1.6-1.5zm.8 5.3c-.3.5-.7.9-1.2 1.2-.5.3-1.1.4-1.7.4-.6 0-1.2-.1-1.7-.4-.5-.3-.9-.7-1.2-1.2-.3-.5-.5-1.1-.5-1.7a3.45 3.45 0 011.7-2.9c.5-.3 1.1-.4 1.7-.4.6 0 1.2.1 1.7.4.5.3.9.7 1.2 1.2a3.1 3.1 0 010 3.4zM201.6 180.2c0 .8-.2 1.4-.7 1.9-.5.4-1.1.7-1.9.7s-1.4-.2-1.9-.7c-.4-.4-.7-1.1-.7-1.9v-4.9h-.9v4.9c0 1.1.3 2 .9 2.6.6.6 1.5.9 2.6.9s2-.3 2.6-.9c.6-.6.9-1.4.9-2.6v-4.9h-.9v4.9zM214.2 182l-5-6.8h-1v8.4h.9v-6.7l5.1 6.7h.9v-8.4h-.9zM226.5 175.8c-.6-.4-1.4-.5-2.2-.6h-3.4v8.4h3.4c.8 0 1.6-.2 2.2-.5.6-.4 1.2-.9 1.5-1.5.4-.6.6-1.3.6-2.1s-.2-1.5-.6-2.1c-.4-.7-.9-1.2-1.5-1.6zm.7 5.3c-.3.5-.7.9-1.2 1.2-.5.3-1.1.4-1.7.4h-2.4v-6.6h2.4c.6 0 1.2.1 1.7.4.5.3.9.7 1.2 1.2.3.5.4 1 .4 1.7 0 .6-.1 1.2-.4 1.7zM235.8 175.2l-3.7 8.4h1l.9-2.1h4.5l.9 2.1h1l-3.7-8.4h-.9zm-1.4 5.4l1.9-4.2 1.9 4.2h-3.8zM243.2 176.2h2.7v7.4h.9v-7.4h2.8v-1h-6.4zM254.2 175.2h.9v8.4h-.9zM266.9 175.8c-.7-.4-1.4-.6-2.2-.6-.8 0-1.6.2-2.2.6-.7.4-1.2.9-1.6 1.5-.4.6-.6 1.3-.6 2.1s.2 1.5.6 2.1c.4.7.9 1.2 1.6 1.5a4.28 4.28 0 004.4 0c.7-.4 1.2-.9 1.6-1.5.4-.6.6-1.3.6-2.1s-.2-1.5-.6-2.1c-.4-.6-1-1.1-1.6-1.5zm.7 5.3c-.3.5-.7.9-1.2 1.2-.5.3-1.1.4-1.7.4-.6 0-1.2-.1-1.7-.4-.5-.3-.9-.7-1.2-1.2-.3-.5-.5-1.1-.5-1.7a3.45 3.45 0 011.7-2.9c.5-.3 1.1-.4 1.7-.4.6 0 1.2.1 1.7.4.5.3.9.7 1.2 1.2a3.1 3.1 0 010 3.4zM280.1 175.2v6.8l-5-6.8h-1v8.4h.9v-6.7l5.1 6.7h.9v-8.4z" class="st0"/><linearGradient id="SVGID_1_" x1="-7723.31" x2="-7707.1" y1="1545.03" y2="1526.08" gradientTransform="scale(1 -1) rotate(65 -2542.16 6823.2)" gradientUnits="userSpaceOnUse"><stop offset="0" stop-color="#f69923"/><stop offset=".31" stop-color="#f79a23"/><stop offset=".84" stop-color="#e97826"/></linearGradient><path fill="url(#SVGID_1_)" d="M57.5 93.9c-1.8 1.1-4.8 4.1-8.4 8.5l3.3 6.2c2.4-3.4 4.8-6.4 7.3-9.1-1.2 1.3-3.1 3.5-6.8 9.2 3.4-.2 8.6-.8 12.8-1.6 1.4-8.2-2.4-15.4-8.2-13.2z"/><linearGradient id="SVGID_2_" x1="-7843.43" x2="-7727.58" y1="1547.19" y2="1547.19" gradientTransform="scale(1 -1) rotate(65 -2542.16 6823.2)" gradientUnits="userSpaceOnUse"><stop offset=".32" stop-color="#9e2064"/><stop offset=".63" stop-color="#c92037"/><stop offset=".75" stop-color="#cd2335"/><stop offset="1" stop-color="#e97826"/></linearGradient><path fill="url(#SVGID_2_)" d="M42.7 124.5c3-5.5 6.2-10.9 9.7-16l-3.3-6.2c-4.8 6-9.4 12.5-13.4 19.1l4.3 8.5c.8-1.8 1.7-3.6 2.7-5.4z"/><linearGradient id="SVGID_3_" x1="-7829.44" x2="-7760.41" y1="1535.63" y2="1535.63" gradientTransform="scale(1 -1) rotate(65 -2542.16 6823.2)" gradientUnits="userSpaceOnUse"><stop offset="0" stop-color="#282662"/><stop offset=".1" stop-color="#662e8d"/><stop offset=".79" stop-color="#9f2064"/><stop offset=".95" stop-color="#cd2032"/></linearGradient><path fill="url(#SVGID_3_)" d="M23.2 172.1c-1.4 3.7-2 5.5-3.5 9.8 1.2.6 2.3 2.1 3.2 3.8-.1-1.8-.8-3.4-2.2-4.8 6.8.3 12.5-1.6 15-7.1-1.2 1.6-2.8 2.3-5.8 2.1 5.4-2.3 7.5-4.9 9.8-9.3-4.7 5.4-10.4 4-16.2 4.5-.1.4-.2.7-.3 1z"/><linearGradient id="SVGID_4_" x1="-7836.92" x2="-7721.07" y1="1548.3" y2="1548.3" gradientTransform="scale(1 -1) rotate(65 -2542.16 6823.2)" gradientUnits="userSpaceOnUse"><stop offset=".32" stop-color="#9e2064"/><stop offset=".63" stop-color="#c92037"/><stop offset=".75" stop-color="#cd2335"/><stop offset="1" stop-color="#e97826"/></linearGradient><path fill="url(#SVGID_4_)" d="M24.8 164.4c4.5-11.7 9.4-23.3 15.1-34.5l-4.3-8.5c-7.7 12.5-14.4 26-17.4 40.3l4.3 8.5c.8-1.9 1.5-3.8 2.3-5.8z"/><linearGradient id="SVGID_5_" x1="-7828.47" x2="-7767.59" y1="1546.84" y2="1546.84" gradientTransform="scale(1 -1) rotate(65 -2542.16 6823.2)" gradientUnits="userSpaceOnUse"><stop offset="0" stop-color="#282662"/><stop offset=".1" stop-color="#662e8d"/><stop offset=".79" stop-color="#9f2064"/><stop offset=".95" stop-color="#cd2032"/></linearGradient><path fill="url(#SVGID_5_)" d="M18.2 162.1c-.6 2.8-.9 5.6-1.1 8.4-1.3-2.2-4.9-4.2-4.9-4.2 2.6 3.7 4.5 7.4 4.8 11.1-1.4.3-3.3-.1-5.4-.9 2.3 2.1 4 2.7 4.7 2.8-2.1.1-4.2 1.6-6.4 3.2 3.2-1.3 5.8-1.8 7.6-1.4-2.9 8.3-5.9 17.5-8.8 27.3 2.9-.7 8.5-25.5 14.1-38l-4.3-8.5c-.3 0-.3.1-.3.2z"/><linearGradient id="SVGID_6_" x1="-7836.92" x2="-7721.07" y1="1536.24" y2="1536.24" gradientTransform="scale(1 -1) rotate(65 -2542.16 6823.2)" gradientUnits="userSpaceOnUse"><stop offset=".32" stop-color="#9e2064"/><stop offset=".63" stop-color="#c92037"/><stop offset=".75" stop-color="#cd2335"/><stop offset="1" stop-color="#e97826"/></linearGradient><path fill="url(#SVGID_6_)" d="M40.6 130.6c-6.4 13.2-12 26.8-17 40.7l3.5-.4h-.2c12-1.8 19.6-14.8 22.8-26-1.3.7-3 1.1-4.5 1.3 3.8-1.5 6.3-4.3 8.1-7.9-1.1.8-3.6 2-5.7 2.2 5.7-2 8.4-7.9 9.6-13.2-1.3 1-3.4 1.5-5.2 1.9l3.2-.3c-.4 0-3.4.4-3.7.4h.1l-10.9 1.2c-.1 0-.1.1-.1.1z"/><linearGradient id="SVGID_7_" x1="-7844.11" x2="-7728.26" y1="1536.82" y2="1536.82" gradientTransform="scale(1 -1) rotate(65 -2542.16 6823.2)" gradientUnits="userSpaceOnUse"><stop offset=".32" stop-color="#9e2064"/><stop offset=".63" stop-color="#c92037"/><stop offset=".75" stop-color="#cd2335"/><stop offset="1" stop-color="#e97826"/></linearGradient><path fill="url(#SVGID_7_)" d="M52.8 108.6c-4.4 6.8-8.4 14.3-12.2 21.9l10.9-1.2c8.5-4.4 11.7-13.9 14.1-22.2-4.3.7-9.4 1.4-12.8 1.5z"/><g><path d="M284.2 128h1v2.8h.8V128h1v-.7h-2.8zM290.4 127.3l-.9 1.9-.9-1.9h-1.1v3.5h.8v-2.2l.9 1.9h.5l.9-1.9v2.2h.8v-3.5z" class="st9"/></g></svg>