<svg xmlns="http://www.w3.org/2000/svg" viewBox="0 0 300 300"><style>.st1{fill:#000}</style><path fill="#231f20" d="M160.8 114.6c3.2-2.6 5.1-6.2 5.1-10.3-.1-7.7-7.3-13.9-16.3-13.9-8.9 0-16.2 6.2-16.3 13.9 0 4 1.9 7.7 5.1 10.3 3.9 3.2 7.1 9.6 7.3 16.7.2 7.8-.3 16.9-.7 21.5-4.2.6-7.1 2-7.1 3.6 0 2.2 5.2 4.7 11.6 4.7 6.4 0 11.6-2.5 11.6-4.7 0-1.6-2.9-3-7.1-3.6-.3-4.6-.9-13.6-.7-21.5.4-7 3.6-13.5 7.5-16.7z"/><path d="M180.6 160.1c.6-.2 1.2-.4 1.9-.6l2.2-.3s0-.3-.1-.6c0-.4-.2-.9-.4-1.3-.1-.2-.2-.5-.2-.7l-.3-.6c-.2-.3-.3-.6-.3-.6-.8-.1-1.6-.3-2.3-.5-.7-.2-1.5-.5-2.1-.7-1.2-.5-2.3-1.1-2.9-1.7-.7-.6-.8-1.2-.8-1.8 0-.3.2-.5.4-.8.2-.2.5-.5.8-.7 0 0-.3-.2-.7-.4-.2-.1-.4-.2-.7-.4-.3-.1-.6-.3-.9-.4-.6-.3-1.2-.6-1.7-.7-.5-.2-.8-.3-.8-.3-.6.1-1.2.1-1.8.1-.6 0-1.3 0-1.9-.1-1.3-.1-2.5-.3-3.7-.6-.6-.1-1.1-.3-1.5-.5-.4-.2-.8-.4-1.1-.6-.6-.4-1-.9-1-1.3 0 0-.4-.1-.9-.1-.5-.1-1.7-.2-2.5-.3 0 .1-.1.2-.1.4l-.2.9c-.4 1.8.7 3.7 2.4 4.2 4.4 1.3 7.7 3.4 8.6 5.9 1.9 5.2-6.2 10.3-18.5 10.3s-20.4-5.1-18.5-10.3c.9-2.5 4.1-4.6 8.3-5.8 1.9-.6 3-2.5 2.6-4.4l-.3-1.2c-.5.1-1.1.1-1.6.2l-2 .3c-.5.1-.9.1-.9.1 0 .4-.3.9-.8 1.3-.3.2-.6.4-1 .6-.4.2-.9.4-1.4.5-.5.2-1.1.3-1.8.4-.6.1-1.2.2-1.9.3-1.3.1-2.6.1-3.8 0 0 0-.1 0-.2.1s-.3.1-.6.2l-1.6.8c-.6.3-1.1.6-1.5.8-.2.1-.4.2-.5.3-.1.1-.2.1-.2.1.8.4 1.3.9 1.4 1.4.2.6-.1 1.2-.6 1.8-.3.3-.7.6-1.2 1-.5.3-1 .6-1.7.9-1.2.6-2.7 1.1-4.4 1.4l-.3.6c-.1.4-.3.8-.5 1.3-.1.5-.1 1-.2 1.4-.1.4 0 .6 0 .6 1.7 0 3.2.3 4.3.8 1.3.4 2.1 1.1 2.7 1.9.5.9.7 1.8.2 2.8-.3 1-1.1 2.1-2.5 3.2l.2.2c.1.1.4.3.6.4.5.4 1.2.9 2 1.4.8.5 1.7.9 2.3 1.3.3.2.6.3.8.4.2.1.3.1.3.1 1.9-.8 3.9-1.2 6-1.4 1-.1 2-.1 3-.1s2 .1 2.9.3c.9.2 1.8.5 2.6.8.8.3 1.5.8 2.2 1.2a7 7 0 012.8 3.6s.7 0 1.7.1c1 0 2.4.1 3.8 0 1.4 0 2.8-.1 3.8-.1 1-.1 1.7-.2 1.7-.2.1-.7.5-1.4.9-2 .2-.3.5-.6.7-.8.3-.3.5-.6.8-.8.6-.5 1.3-.9 2.1-1.3s1.6-.7 2.5-.9c1-.2 1.8-.4 2.8-.4 1-.1 2 0 3 0 2 .1 4.2.6 6.1 1.3 0 0 .4-.2 1.1-.6.6-.4 1.5-.8 2.1-1.3.7-.5 1.4-1 1.8-1.4l.7-.7c-1.4-1-2.2-2-2.7-3.1-.2-.5-.3-1-.3-1.4 0-.5.1-.9.3-1.3 1-.8 1.9-1.4 3-1.9M139 134.6s1.8-6.9-6.1-15.9l-.3-.3c-3.3-4-5.2-9-5.2-14.2 0-12.1 9.9-22 22-22h.5c12.1 0 22 9.9 22 22 0 5.2-1.8 10.2-5.2 14.2l-.3.3c-7 7.1-6.1 15.9-6.1 15.9a31.85 31.85 0 0021.6-30.1c.1-17-13.6-31.4-30.5-32.2H149.6 147.8c-16.9.8-30.6 15.3-30.5 32.2.1 13.5 8.8 25.6 21.7 30.1z" class="st1"/><linearGradient id="SVGID_1_" x1="154.88" x2="140.08" y1="77.05" y2="180.63" gradientUnits="userSpaceOnUse"><stop offset="0" stop-color="#00b2e3"/><stop offset=".13" stop-color="#00b2e3"/><stop offset="1" stop-color="#00b2e3" stop-opacity="0"/></linearGradient><path fill="url(#SVGID_1_)" d="M160.8 114.6c3.2-2.6 5.1-6.2 5.1-10.3-.1-7.7-7.3-13.9-16.3-13.9-8.9 0-16.2 6.2-16.3 13.9 0 4 1.9 7.7 5.1 10.3 3.9 3.2 7.1 9.6 7.3 16.7.2 7.8-.3 16.9-.7 21.5-4.2.6-7.1 2-7.1 3.6 0 2.2 5.2 4.7 11.6 4.7 6.4 0 11.6-2.5 11.6-4.7 0-1.6-2.9-3-7.1-3.6-.3-4.6-.9-13.6-.7-21.5.4-7 3.6-13.5 7.5-16.7z"/><linearGradient id="SVGID_2_" x1="154.88" x2="140.08" y1="77.05" y2="180.63" gradientUnits="userSpaceOnUse"><stop offset="0" stop-color="#385cad" stop-opacity="0"/><stop offset=".13" stop-color="#385cad" stop-opacity="0"/><stop offset="1" stop-color="#385cad"/></linearGradient><path fill="url(#SVGID_2_)" d="M160.8 114.6c3.2-2.6 5.1-6.2 5.1-10.3-.1-7.7-7.3-13.9-16.3-13.9-8.9 0-16.2 6.2-16.3 13.9 0 4 1.9 7.7 5.1 10.3 3.9 3.2 7.1 9.6 7.3 16.7.2 7.8-.3 16.9-.7 21.5-4.2.6-7.1 2-7.1 3.6 0 2.2 5.2 4.7 11.6 4.7 6.4 0 11.6-2.5 11.6-4.7 0-1.6-2.9-3-7.1-3.6-.3-4.6-.9-13.6-.7-21.5.4-7 3.6-13.5 7.5-16.7z"/><path d="M41.6 223.5c-1.9 1.9-4.5 2.8-7.2 2.8-7 0-10-4.8-10-9.7 0-4.9 3.2-10 10-10 2.6 0 5 1 6.9 2.9l-2.4 2.3a6.5 6.5 0 00-4.6-1.8c-4.6 0-6.5 3.4-6.5 6.6 0 3.1 1.8 6.4 6.5 6.4 1.6 0 3.5-.7 4.7-1.9l2.6 2.4zM49.6 207v15.6h9.7v3.3H46.1V207h3.5zM82.5 216.5c-.1 4.9-3 9.8-9.7 9.8-6.6 0-9.7-4.8-9.7-9.7 0-5 3.2-10 9.7-10 6.6 0 9.8 5 9.7 9.9zm-15.9.1c.1 3.1 1.8 6.4 6.2 6.4 4.5 0 6.1-3.3 6.2-6.4.1-3.2-1.7-6.7-6.2-6.7-4.4-.1-6.2 3.5-6.2 6.7zM104.4 207v10.8c0 5.6-3.4 8.4-8.2 8.4-4.5 0-8.4-2.8-8.4-8.4V207h3.5v10.8c0 3.4 1.9 5.2 4.9 5.2 2.9 0 4.6-2 4.6-5.2V207h3.6zM127.2 216.3c.1 4.8-2.8 9.6-9.4 9.6h-7.4V207h7.4c6.5 0 9.4 4.6 9.4 9.3zm-13.3 6.1h3.9c4.3 0 6-3.1 5.9-6.2-.1-2.9-1.8-5.9-5.9-5.9h-3.9v12.1z" class="st1"/><g><path d="M137.3 216.1h10.9v1.4h-10.9v8.6h-1.5v-18.9h12.7v1.5h-11.3v7.4zM193.3 207.1v11.7c0 9.9-14.4 9.9-14.4 0v-11.7h1.4v11.7c0 8.1 11.6 8.1 11.6 0v-11.7h1.4zM199.9 207.1l12.7 15.6v-15.6h1.4v18.8h-.6l-12.7-15.6v15.6h-1.5v-18.8h.7zM236 216.3c.1 4.8-3 9.6-9.6 9.6H220v-18.8h6.4c6.4 0 9.5 4.5 9.6 9.2zm-14.5-7.9v16.1h4.9c5.6 0 8.2-4.2 8.1-8.2-.1-3.9-2.7-7.8-8.1-7.8h-4.9zM256.4 225.9h-1.9l-6.5-7.1h-5.1v7.1h-1.5v-18.8h8.3c4.1 0 6.2 2.9 6.2 5.9 0 3.1-2 5.8-6.1 5.8l6.6 7.1zm-13.6-8.5h6.7c3.3 0 4.7-1.9 4.8-4.5 0-2.2-1.5-4.5-4.6-4.5h-6.8v9zM266.6 218.4l-7.4-11.3h1.7l6.4 9.9 6.4-9.9h1.7l-7.4 11.3v7.5h-1.5v-7.5z" class="st1"/><g><path d="M173 216.4c0 4.9-3.2 9.7-9.4 9.7-6.3 0-9.4-4.8-9.4-9.7 0-5 3.1-9.6 9.4-9.6 6.3 0 9.4 4.6 9.4 9.6zm-17.5 0c0 4.2 2.7 8.4 8 8.4 5.4 0 8.1-4.1 8.1-8.4 0-4.3-2.7-8.3-8.1-8.3-5.3 0-8 3.9-8 8.3z" class="st1"/></g></g></svg>