<svg xmlns="http://www.w3.org/2000/svg" viewBox="-50 -50 400 400"><style>.st0{fill:#231f20}.st1{fill:#446ca9}.st2{fill:#76c4d5}</style><g id="svg_43"><path id="svg_5" d="M21.3 222c2.8.1 5.4-1.2 7.1-3.4l3.8 3.9c-3 3.4-6.5 5-10.6 5s-7.4-1.3-10-3.8a13.1 13.1 0 01-3.9-9.7c-.1-3.7 1.4-7.2 4-9.8 2.6-2.6 6.1-4 9.8-3.9 4.2-.1 8.2 1.7 10.8 4.9l-3.7 4.1a8.7 8.7 0 00-6.9-3.5c-2.1 0-4.1.7-5.7 2.2a7.4 7.4 0 00-2.4 5.8 8 8 0 002.2 5.9 7.2 7.2 0 005.5 2.3z" class="st0"/><path id="svg_6" d="M36.8 227.2v-26.3h5.9V222h11.2v5.2H36.8z" class="st0"/><path id="svg_7" d="M79.6 223.6a14.4 14.4 0 01-19.7 0c-5.3-5.4-5.3-14 0-19.4a14.4 14.4 0 0119.7 0c5.4 5.4 5.4 14 0 19.4zm-2-9.7c0-2.2-.8-4.4-2.3-6a7.4 7.4 0 00-10.5-.6l-.6.6c-3 3.4-3 8.6 0 12a7.5 7.5 0 0010.6.5l.5-.5a8 8 0 002.3-6z" class="st0"/><path id="svg_8" d="M95.6 220.4c1 1.2 2.4 1.9 4 1.8 1.5.1 3-.6 3.9-1.8 1-1.2 1.4-2.9 1.5-5v-14.5h5.9v14.7c0 3.8-1.1 6.7-3.2 8.8-2.1 2-4.8 3.1-8.1 3.1s-6-1-8.1-3.1c-2.1-2.1-3.2-5-3.2-8.8v-14.7h5.9v14.5a7 7 0 001.4 5z" class="st0"/><path id="svg_9" d="M137 204.4c2.5 2.3 3.8 5.5 3.8 9.6s-1.2 7.3-3.7 9.7c-2.4 2.4-6.2 3.6-11.2 3.6h-9V201h9.3a15 15 0 0110.8 3.4zm-4.3 15.6a8 8 0 002.2-5.9c0-2.6-.7-4.6-2.2-6-1.4-1.4-3.7-2.1-6.6-2.1h-3.3v16h3.7c2.7 0 4.7-.6 6.2-2z" class="st0"/><path id="svg_10" d="M174.2 200.9h5.9v26.3h-5.9l-12.5-16.5v16.5h-5.9v-26.3h5.5l12.9 16.9v-16.9z" class="st0"/><path id="svg_11" d="M205.3 227.2l-2.4-5.7h-11l-2.4 5.7h-6.3l11.4-26.3h5.7l11.4 26.3h-6.4zm-7.9-18.4l-3.3 7.6h6.6l-3.3-7.6z" class="st0"/><path id="svg_12" d="M223.8 206v21.2h-5.9V206h-7.5v-5.1h20.8v5.1h-7.4z" class="st0"/><path id="svg_13" d="M235.6 200.9h5.9v26.3h-5.9v-26.3z" class="st0"/><path id="svg_14" d="M257.6 217.7l6.7-16.8h6.4l-10.6 26.3h-5l-10.6-26.3h6.4l6.7 16.8z" class="st0"/><path id="svg_15" d="M292.8 200.9v5.2h-13.1v5.4h11.8v5h-11.8v5.5h13.5v5.2h-19.4v-26.3h19z" class="st0"/><path id="svg_16" d="M14.6 249.7c1.6 0 3-.7 4-1.9l2.1 2.2a7.6 7.6 0 01-5.9 2.8c-2.1.1-4.1-.7-5.6-2.2-3-3-2.9-7.9 0-10.9a8 8 0 0111.6.6l-2 2.3c-.9-1.2-2.4-2-3.9-1.9-1.2 0-2.3.4-3.2 1.2a4 4 0 00-1.3 3.3c-.1 1.2.4 2.4 1.2 3.3.8.7 1.9 1.2 3 1.2z" class="st0"/><path id="svg_17" d="M35.4 250.5a8 8 0 01-11 0c-3-3-3-7.9 0-10.9a8 8 0 0111 0c3 3.1 3 7.9 0 10.9zm-1.1-5.4a5 5 0 00-1.3-3.4 4.1 4.1 0 00-5.9-.3l-.3.3a5 5 0 000 6.7 4.1 4.1 0 005.9.3l.3-.3c.8-.8 1.3-2 1.3-3.3z" class="st0"/><path id="svg_18" d="M53.6 243.3l-4 8.1h-2l-4-8.1v9.3h-3.3v-14.8h4.5l3.8 8.1 3.8-8.1h4.4v14.8h-3.3l.1-9.3z" class="st0"/><path id="svg_19" d="M70.7 239.1c1 .9 1.6 2.2 1.6 4.1s-.5 3.2-1.6 4a8.2 8.2 0 01-4.9 1.3h-2v4.1h-3.3v-14.8h5.2c2.3 0 4 .5 5 1.3zm-2.4 5.8c.4-.6.6-1.2.6-1.9 0-.9-.3-1.5-.8-1.8-.5-.4-1.3-.5-2.4-.5h-1.9v5H66c1.1-.1 1.9-.3 2.3-.8z" class="st0"/><path id="svg_20" d="M78.7 248.8c.5.7 1.4 1.1 2.2 1 .9 0 1.7-.3 2.2-1 .6-.8.9-1.8.9-2.8v-8.1h3.3v8.3c0 2.1-.6 3.8-1.8 4.9a6.9 6.9 0 01-9.1 0 6.6 6.6 0 01-1.8-4.9v-8.3h3.3v8.1c0 1 .2 2 .8 2.8z" class="st0"/><path id="svg_21" d="M96.9 240.7v11.9h-3.3v-11.9h-4.2v-2.9h11.7v2.9h-4.2z" class="st0"/><path id="svg_22" d="M103.5 237.8h3.3v14.8h-3.3v-14.8z" class="st0"/><path id="svg_23" d="M120.8 237.8h3.3v14.8h-3.3l-7-9.2v9.2h-3.3v-14.8h3.1l7.2 9.5v-9.5z" class="st0"/><path id="svg_24" d="M137.3 245.1h3.3v5.2a8 8 0 01-6.1 2.4c-2 .1-4-.7-5.5-2.2a7 7 0 01-2.2-5.4 7.5 7.5 0 017.6-7.7c2 0 4 .7 5.5 2.1l-1.7 2.5a7 7 0 00-1.8-1.2l-1.8-.3c-1.2 0-2.3.4-3.2 1.3a5.2 5.2 0 00-.1 6.7c.8.8 1.8 1.3 2.9 1.3 1 0 2-.2 2.9-.7l.2-4z" class="st0"/><path id="svg_25" d="M159.2 237.8v2.9h-6.8v3.2h6.5v2.9h-6.5v5.8h-3.3v-14.8h10.1z" class="st0"/><path id="svg_26" d="M174.4 250.5a8 8 0 01-11 0c-3-3-3-7.9 0-10.9a8 8 0 0111 0c3 3.1 3 7.9 0 10.9zm-1.1-5.4a5 5 0 00-1.3-3.4 4.1 4.1 0 00-5.9-.3l-.3.3a5 5 0 000 6.7 4.1 4.1 0 005.9.3l.3-.3c.9-.8 1.3-2 1.3-3.3z" class="st0"/><path id="svg_27" d="M183.3 248.8c.5.7 1.4 1.1 2.2 1 .9 0 1.7-.3 2.2-1a4 4 0 00.8-2.8v-8.1h3.3v8.3c0 2.1-.6 3.8-1.8 4.9a6.9 6.9 0 01-9.1 0 6.6 6.6 0 01-1.8-4.9v-8.3h3.3v8.1c.1 1 .4 2 .9 2.8z" class="st0"/><path id="svg_28" d="M205.6 237.8h3.3v14.8h-3.3l-7-9.2v9.2h-3.3v-14.8h3.1l7.2 9.5v-9.5z" class="st0"/><path id="svg_29" d="M223.8 239.8a7 7 0 012.1 5.4 7 7 0 01-2.1 5.4c-1.4 1.3-3.5 2-6.3 2h-5v-14.8h5.2c2.7 0 4.7.7 6.1 2zm-2.4 8.7c.8-.8 1.2-1.9 1.2-3.3s-.4-2.6-1.2-3.3c-.8-.8-2.1-1.2-3.7-1.2h-1.8v9h2.1c1.4 0 2.6-.4 3.4-1.2z" class="st0"/><path id="svg_30" d="M238.9 252.6l-1.4-3.2h-6.2l-1.4 3.2h-3.5l6.4-14.8h3.2l6.4 14.8h-3.5zm-4.5-10.4l-1.9 4.3h3.7l-1.8-4.3z" class="st0"/><path id="svg_31" d="M249.2 240.7v11.9H246v-11.9h-4.2v-2.9h11.7v2.9h-4.3z" class="st0"/><path id="svg_32" d="M255.8 237.8h3.3v14.8h-3.3v-14.8z" class="st0"/><path id="svg_33" d="M275.2 250.5a8 8 0 01-11 0c-3-3-3-7.9 0-10.9a8 8 0 0111 0c3 3.1 3 7.9 0 10.9zm-1.2-5.4a5 5 0 00-1.3-3.4 4.1 4.1 0 00-5.9-.3l-.3.3a5 5 0 000 6.7 4.1 4.1 0 005.9.3l.3-.3a4 4 0 001.3-3.3z" class="st0"/><path id="svg_34" d="M290.5 237.8h3.3v14.8h-3.3l-7-9.2v9.2h-3.3v-14.8h3.1l7.2 9.5v-9.5z" class="st0"/><path id="svg_35" d="M104.1 133.5H85.6v43.2h43.2v-18.5h-24.7v-24.7z" class="st1"/><path id="svg_36" d="M196.6 133.7v24.5h-24.5l-.1-.1v18.6h43.2v-43.2h-18.6v.2z" class="st1"/><path id="svg_37" d="M85.6 90.4h18.6l-.1-.1V65.7h24.5l.1.1V47.2H85.6v43.2z" class="st1"/><path id="svg_38" d="M172 47.2v18.5h24.7v24.7h18.5V47.2H172z" class="st1"/><path id="svg_39" d="M169.7 90.4L145 65.7h27V47.2h-43.2v18.6l24.5 24.5 16.4.1z" class="st2"/><path id="svg_40" d="M147.4 133.5h-16.3l20.4 20.4 4.2 4.2h-27v18.5H172V158l-12.3-12.3-12.3-12.2z" class="st2"/><path id="svg_41" d="M196.6 90.4v26.9l-4.2-4.2L172 92.6V109l12.3 12.3 12.3 12.3h18.6V90.4h-18.6z" class="st2"/><path id="svg_42" d="M128.8 114.9l-24.5-24.5H85.6v43.2h18.5v-26.9l24.7 24.7v-16.5z" class="st2"/></g></svg>