<svg xmlns="http://www.w3.org/2000/svg" viewBox="0 0 300 300"><style>.st0{fill:#4e4540}.st2{fill:#ed1944}</style><path d="M261.9 230.5c0-1.8-1.5-3.3-3.3-3.3a3.3 3.3 0 00-3.3 3.3c0 1.8 1.5 3.3 3.3 3.3 1.8.1 3.3-1.4 3.3-3.3zm-3.3 2.5a2.5 2.5 0 01-2.5-2.5c0-1.4 1.1-2.5 2.5-2.5s2.5 1.1 2.5 2.5-1.1 2.5-2.5 2.5z" class="st0"/><path d="M259.8 229.9c0-.3-.1-.6-.3-.8-.2-.2-.5-.3-.9-.3h-1.2v3.3h.7V231h.4l.6 1.1h.8l-.7-1.2c.4-.2.6-.5.6-1zm-.6.1c0 .3-.2.5-.5.5h-.5v-1h.5c.3 0 .5.1.5.5 0-.1 0 0 0 0zM62.7 220.9v-.4c0-7.9-5.1-13.6-12.2-13.6s-12.3 5.8-12.3 13.6v.4c0 7.9 5.1 13.5 12.2 13.5s12.3-5.7 12.3-13.5zm-18.8-.1v-.3c0-5 2.5-8.6 6.5-8.6 3.8 0 6.6 3.7 6.6 8.7v.3c0 4.9-2.5 8.7-6.5 8.7-3.8-.1-6.6-3.9-6.6-8.8zM89.6 221v-.7c0-9-5-13.4-10.3-13.4-3.8 0-6.1 2.2-7.8 4.8v-4.2h-5.6v34.1h5.6V230c1.6 2.3 3.9 4.5 7.8 4.5 5.3-.1 10.3-4.6 10.3-13.5zm-18.2-.1v-.5c0-5.2 2.9-8.5 6.3-8.5s6.1 3.2 6.1 8.5v.4c0 5.3-2.7 8.5-6.1 8.5-3.4.1-6.3-3.2-6.3-8.4zM114 230.3l-2.9-3.5a8.3 8.3 0 01-6.1 2.8c-3.4 0-6.2-2.4-6.7-6.9h16.6v-1.9c0-8-3.8-14-11-14-6.5 0-11.3 5.7-11.3 13.7v.4c0 8.3 5.3 13.5 12.1 13.5 4 0 6.9-1.5 9.3-4.1zm-10.1-18.7c3.3 0 5.2 3 5.5 7.2H98.2c.4-4.4 2.6-7.2 5.7-7.2zM131.5 206.9c-3.6 0-5.7 2-7.3 4.4v-3.9h-5.6v26.5h5.6v-16.1c0-3.6 2-5.8 5-5.8s4.7 2 4.7 5.7v16.2h5.6v-17.8c.2-5.6-2.9-9.2-8-9.2zM162.5 226.3c0-4.2-3.1-6.1-7.2-8-3.1-1.4-5.2-2.3-5.2-4v-.1c0-1.4 1.2-2.6 3.3-2.6 2.1 0 4.3 1 6.3 2.3l2.4-4.1a15 15 0 00-8.6-2.8c-4.9 0-8.8 3-8.8 7.7v.1c0 4.3 3.3 6.1 7.3 7.8 3.1 1.3 5.2 2.2 5.2 4.1 0 1.6-1.3 2.9-3.7 2.9-2.3 0-4.9-1.1-7.3-3.1l-2.6 4c3 2.5 6.7 3.7 9.9 3.7 5 .2 9-2.7 9-7.9zM180 233.1v-4.6a6 6 0 01-3 .7c-1.8 0-2.8-.8-2.8-2.9v-14.1h5.9v-4.8h-5.9v-7.2h-5.6v7.2h-2.9l.9 4.8h2v15.3c0 5.1 2.9 6.8 6.9 6.8 1.7 0 3.2-.5 4.5-1.2zM201.6 209.8c-1.7-1.7-4.3-2.7-7.8-2.7s-6.2.8-8.8 2.1l1.6 4.5c1.7-.8 3.8-1.6 6.4-1.6 3.6 0 5.7 1.8 5.7 5.4v1.1c-1.8-.6-3.6-1-6.1-1-5.6 0-9.4 2.8-9.4 8.5v.2c0 5.1 3.7 8.1 8.1 8.1 3.4 0 5.8-1.5 7.3-3.7v3.2h5.5v-16.5c.2-3.3-.7-5.9-2.5-7.6zm-2.8 15.2c0 3-2.5 5.2-5.7 5.1-2.4-.1-4.3-1.5-4.3-4.2v-.1c0-2.8 1.9-4.4 5.1-4.4 1.9 0 3.6.4 4.9.9v2.7zM228.3 230.4l-3-3.7c-1.5 1.5-3.1 2.7-5.4 2.7-3.8 0-6.5-3.4-6.5-8.6v-.2c0-5 2.7-8.6 6.4-8.6 2.4 0 3.9 1.2 5.3 2.6l3.1-4.1a11.2 11.2 0 00-8.5-3.6c-7 0-12.1 5.7-12.1 13.6v.5c0 7.9 5 13.5 11.9 13.5 4-.1 6.7-1.7 8.8-4.1zM245.6 220.1l-4 4.3 5.3 9.5h6.6z" class="st0"/><path d="M246.5 207.4l-9 11.6v-21.2h-5.7v36.1h5.7v-7.7l15.7-18.8z" class="st0"/><g><path d="M199.9 59.4h-99.6c-6.3 0-11.4 5.1-11.4 11.4v26.8h27.6v-4.4c0-3.4 2.8-6.2 6.2-6.2h54.8c3.4 0 6.2 2.8 6.2 6.2v4.4h27.6V70.8c0-6.2-5.1-11.4-11.4-11.4zM183.6 145.4c0 3.4-2.8 6.2-6.2 6.2h-54.8a6.2 6.2 0 01-6.2-6.2V141H88.9v26.8c0 6.3 5.1 11.4 11.4 11.4h99.6c6.3 0 11.4-5.1 11.4-11.4V141h-27.6l-.1 4.4zM88.9 105.5h27.6v27.6H88.9zM183.6 105.5h27.6v27.6h-27.6z" class="st2"/></g></svg>