<svg xmlns="http://www.w3.org/2000/svg" id="Layer_1" x="0" y="0" version="1.1" viewBox="0 0 300 300" xml:space="preserve"><defs/><style>.st0{fill:#e0592a}.st1{fill:#00adbb}.st2{fill:#00829b}</style><g id="XMLID_22_"><g id="XMLID_1_"><path id="XMLID_208_" d="M40.4 200.6c0-1.9.3-3.6 1.1-5.4.8-1.7 1.7-3.1 2.9-4.4 1.2-1.2 2.7-2.1 4.4-2.9 1.7-.8 3.3-1.1 5.4-1.1 1.9 0 3.6.3 5.4 1.1 1.7.8 3.1 1.8 4.4 2.9 1.2 1.2 2.1 2.7 2.9 4.4s1.1 3.3 1.1 5.4c0 1.9-.3 3.7-1.1 5.4s-1.8 3-2.9 4.4a15.3 15.3 0 01-4.4 2.9c-1.7.8-3.3 1.1-5.4 1.1-1.9 0-3.7-.3-5.4-1.1-1.7-.8-3-1.7-4.4-2.9a15.3 15.3 0 01-2.9-4.4c-.8-1.7-1.1-3.5-1.1-5.4zm3.1 0c0 1.6.3 2.8.9 4.1.6 1.3 1.3 2.3 2.2 3.3 1 1 2 1.8 3.3 2.2s2.6.9 4 .9c1.5 0 2.8-.3 4-.9 1.3-.6 2.3-1.3 3.3-2.2 1-1 1.8-2 2.2-3.3.6-1.3.9-2.6.9-4.1 0-1.6-.3-2.8-.9-4.1-.6-1.3-1.3-2.3-2.2-3.3-1-1-2-1.8-3.3-2.2s-2.6-.9-4-.9c-1.5 0-2.8.3-4 .9-1.3.6-2.3 1.3-3.3 2.2a8 8 0 00-2.2 3.3c-.6 1.2-.9 2.7-.9 4.1z" class="st0"/><path id="XMLID_205_" d="M72.2 213.9v-26.6h6.2c.9 0 1.9.1 2.8.4 1.1.2 2 .7 2.9 1.3.9.6 1.7 1.3 2.2 2.2.7.9.9 2 .9 3.2 0 2.2-.7 4.1-2 5.6-1.5 1.3-3.3 2-6 2h-4.1v12l-2.9-.1zm3.1-14.9h3.2c1.1 0 2-.1 2.7-.4.8-.3 1.3-.7 1.8-1.1.4-.4.8-.9.9-1.5.2-.6.2-1.1.2-1.6 0-.6-.1-1.1-.4-1.7-.3-.6-.7-1-1.2-1.5-.6-.4-1.1-.7-1.8-1-.7-.2-1.5-.3-2.1-.3h-3.3v9.1z" class="st0"/><path id="XMLID_203_" d="M91.2 213.9v-26.6h16.4v3H94.3v8.7H106v3H94.3v8.9h13.8v3H91.2z" class="st0"/><path id="XMLID_201_" d="M138.5 187.3V215c-3.2-3.5-6.5-6.9-9.8-10.3-3.2-3.5-6.5-6.8-9.8-10.3-.1-.2-.2-.3-.3-.6-.1-.1-.2-.3-.3-.6 0 .2 0 .4.1.7 0 .2 0 .4.1.7v19.2h-3.1V186c3.2 3.6 6.5 7 9.8 10.5 3.2 3.5 6.5 7 9.8 10.5.1.2.2.3.3.6.1.1.2.3.3.6 0-.2 0-.4-.1-.7 0-.2 0-.4-.1-.7v-19.6c0 .1 3.1.1 3.1.1z" class="st0"/><path id="XMLID_199_" d="M163.9 210.3l1.3 2c-1 .6-2 1.1-3.2 1.5-1.2.3-2.3.6-3.7.6-1.9 0-3.7-.3-5.4-1.1s-3-1.7-4.4-2.9c-1.2-1.2-2.1-2.7-2.9-4.4s-1.1-3.3-1.1-5.4c0-2 .3-3.7 1.1-5.4s1.7-3.1 2.9-4.4c1.2-1.2 2.7-2.1 4.4-2.9 1.7-.8 3.3-1.1 5.4-1.1 1.3 0 2.5.2 3.7.6 1.2.3 2.2.8 3.2 1.5-.2.3-.4.7-.7 1-.2.3-.4.7-.7 1-1.8-1.1-3.6-1.6-5.7-1.6-1.6 0-3 .3-4.4.9-1.3.6-2.5 1.5-3.6 2.5-1 1.1-1.9 2.2-2.3 3.6-.6 1.5-.9 2.8-.9 4.4 0 1.6.3 3 .9 4.5.6 1.5 1.5 2.6 2.3 3.6a8 8 0 003.6 2.3c1.3.6 2.8.9 4.4.9 1.1 0 2-.1 2.9-.4 1.1-.2 2.1-.7 2.9-1.3z" class="st1"/><path id="XMLID_197_" d="M171.2 213.9v-26.6h2.3v12.1h15.4v-12.1h2.3v26.8h-2.3v-12.3h-15.4v12.3l-2.3-.2z" class="st1"/><path id="XMLID_194_" d="M220.4 213.9H218c-.8-1.9-1.6-3.7-2.2-5.6-.8-1.9-1.6-3.7-2.2-5.6h-9.7c-.8 1.9-1.6 3.7-2.2 5.6-.8 1.9-1.6 3.7-2.3 5.6H197c2-4.7 3.9-9.4 5.9-13.9 2-4.7 3.9-9.3 5.9-13.9 2 4.7 3.9 9.4 5.9 13.9 1.7 4.7 3.7 9.2 5.7 13.9zm-11.5-21.4c0-.2-.1-.4-.2-.6-.1-.2-.1-.4-.2-.6-.6 1.7-1.1 3.1-1.8 4.7s-1.3 3.1-2 4.7h7.6c-.6-1.5-1.2-2.7-1.8-4.1-.4-1.3-.9-2.8-1.6-4.1z" class="st1"/><path id="XMLID_192_" d="M226.5 187.3h2.3v26.6h-2.3v-26.6z" class="st1"/><path id="XMLID_190_" d="M259.8 187.3V215c-3.3-3.8-6.7-7.5-10-11.3-3.3-3.7-6.7-7.5-10-11.3-.1-.2-.2-.3-.3-.6-.1-.1-.2-.3-.3-.6 0 .2 0 .4.1.7 0 .2 0 .4.1.7v21.1h-2.3V186c3.3 3.8 6.7 7.6 10 11.4 3.3 3.8 6.7 7.6 10 11.4.1.2.2.3.3.6.1.1.2.3.3.6 0-.2 0-.4-.1-.7 0-.2 0-.4-.1-.7v-21.4l2.3.1z" class="st1"/></g></g><g id="XMLID_2_"><g id="XMLID_17_"><g id="XMLID_20_"><path id="XMLID_21_" d="M130.2 151.9c-.2 0-.6-.1-.8-.3-.3-.4-.3-1 .1-1.3 6.7-6 10.6-14.5 10.6-23.4 0-5.6-1.5-10.9-4.2-15.6-.2-.4-.1-1.1.3-1.3.4-.2 1.1-.1 1.3.3 2.9 5 4.5 10.7 4.5 16.6 0 9.6-4.1 18.5-11.3 25 0-.1-.2 0-.5 0z" class="st0"/></g><g id="XMLID_18_"><path id="XMLID_19_" d="M108.9 159.9c-18.3 0-33.2-14.8-33.2-33.2s14.8-33.2 33.2-33.2c3.7 0 7.4.7 10.8 1.9.6.2.8.8.6 1.2-.2.6-.8.8-1.2.6a31.7 31.7 0 00-10.2-1.8c-17.3 0-31.2 14.1-31.2 31.2s14.1 31.2 31.2 31.2c.6 0 1 .4 1 1s-.4 1.1-1 1.1z" class="st0"/></g></g><g id="XMLID_10_"><g id="XMLID_15_"><path id="XMLID_16_" d="M192.6 159.9c-15.7 0-29.5-11.2-32.6-26.4-.1-.6.2-1 .8-1.1.6-.1 1 .2 1.1.8 2.9 14.4 15.8 25 30.6 25 .6 0 1 .4 1 1 0 .5-.3.7-.9.7z" class="st1"/></g><g id="XMLID_12_"><path id="XMLID_13_" d="M214 151.9c-.2 0-.6-.1-.8-.3-.3-.4-.3-1 .1-1.3 6.7-6 10.6-14.5 10.6-23.4 0-17.3-14.2-31.4-31.4-31.4-11.2 0-21.5 6-27.1 15.6-.2.4-.9.7-1.3.3-.4-.2-.7-.9-.3-1.3 6-10.2 17-16.6 28.8-16.6 18.3 0 33.2 14.8 33.2 33.2 0 9.6-4.1 18.5-11.3 24.9 0 .2-.3.3-.5.3z" class="st1"/></g></g><g id="XMLID_5_"><g id="XMLID_8_"><path id="XMLID_9_" d="M177.2 107.5c-.3.2-.3.7-.1 1 3.5 5.1 5.6 11.3 5.6 18 0 6.8-2.1 13.2-5.9 18.3-.2.3-.2.8.1 1 .3.3.9.2 1.1-.1 3.9-5.5 6.1-12.1 6.1-19.2 0-6.9-2.1-13.5-5.9-18.7-.1-.5-.7-.7-1-.3z" class="st2"/></g><g id="XMLID_6_"><path id="XMLID_7_" d="M164.9 155.2c-.2-.2-.6-.2-.9-.1-4 1.9-8.5 2.8-13.2 2.8-4.8 0-9.4-1.1-13.5-3-.3-.1-.7-.1-.9.1-.3.3-.2 1 .2 1.2 4.2 2 9 3.1 14.2 3.1 4.9 0 9.6-1.1 13.8-3 .7-.1.8-.7.3-1.1.1 0 .1 0 0 0z" class="st2"/></g></g><g id="XMLID_3_"><path id="XMLID_4_" d="M125.5 146c-.3 0-.6-.1-.8-.3-.1-.2-15.4-19.5-.7-38.9 16.5-21.8 41.3-10.4 41.5-10.3.4.2.7.8.4 1.3-.2.4-.8.7-1.3.4-1-.4-23.5-10.7-39.2 9.8-13.9 18.2.6 36.4.7 36.6.3.4.2 1-.1 1.3 0 0-.2.1-.5.1z" class="st2"/></g></g></svg>