<svg xmlns="http://www.w3.org/2000/svg" id="Layer_1" x="0" y="0" version="1.1" viewBox="0 0 300 300" xml:space="preserve"><defs/><style>.st1{fill:#fff}.st2{fill:#231f20}</style><circle cx="74.8" cy="150.4" r="47.1" fill="#a1d33c"/><path d="M63.3 168.9c-.8 2.5-1.8 3.8-5 3.8-2.8 0-4-1.1-4-2.8l.3-1.8 11.2-39.3c.8-2.5 1.8-3.8 5-3.8 2.9 0 4.1 1.1 4.1 2.8 0 .6-.2 1.2-.4 1.9l-11.2 39.2zM84.8 168.9c-.8 2.5-1.8 3.8-5 3.8-2.8 0-4-1.1-4-2.8l.3-1.8 11.2-39.3c.8-2.5 1.8-3.8 5-3.8 2.9 0 4.1 1.1 4.1 2.8 0 .6-.2 1.2-.4 1.9l-11.2 39.2z" class="st1"/><g><path d="M152.1 166.7c0 .6 0 1.1-.3 1.5a2 2 0 01-1.6.7c-.8 0-1.4-.3-1.7-.7s-.3-.9-.3-1.5v-23h-7.7c-.6 0-1-.1-1.4-.3-.4-.3-.6-.7-.6-1.4s.2-1.2.6-1.4c.4-.3.9-.3 1.4-.3h19c.6 0 1 .1 1.4.3.4.3.6.7.6 1.4s-.2 1.2-.6 1.4c-.4.3-.9.3-1.4.3h-7.6v23zM184.3 139.7c8.9 0 14.5 6.2 14.5 14.7 0 8.7-5.7 14.8-14.6 14.8-8.9 0-14.5-6.2-14.5-14.7 0-8.7 5.7-14.8 14.6-14.8zm0 26.2c6.5 0 10.6-4.2 10.6-11.5 0-7.4-4.2-11.6-10.7-11.6s-10.6 4.2-10.6 11.5c0 7.4 4.2 11.6 10.7 11.6zM227.8 166c-3.5 2.3-8 2.8-11.9 2.8-2.6 0-4.8-.2-5.9-.6-1.1-.4-1.3-1-1.3-2.2v-23.2c0-1.4.4-2 2.1-2.4 1.3-.3 3.4-.5 5.9-.5 4.6 0 8.5.6 11.5 2.8 3 2.1 5.3 5.8 5.3 11.5 0 6.3-2.7 9.8-5.7 11.8zm-15.2-.6s1.5.2 3.9.2c3.9 0 13.1-.5 13.1-11.1 0-4.4-1.6-7.2-3.9-8.9-2.2-1.7-5.1-2.3-8.9-2.3-2.7 0-4.3.3-4.3.3l.1 21.8zM258 139.7c8.9 0 14.5 6.2 14.5 14.7 0 8.7-5.7 14.8-14.6 14.8s-14.5-6.2-14.5-14.7c0-8.7 5.7-14.8 14.6-14.8zm0 26.2c6.5 0 10.6-4.2 10.6-11.5 0-7.4-4.2-11.6-10.7-11.6-6.5 0-10.6 4.2-10.6 11.5 0 7.4 4.2 11.6 10.7 11.6z" class="st2"/></g></svg>